<?xml version="1.0" encoding="utf-8"?>
<!-- Generator: Adobe Illustrator 23.0.5, SVG Export Plug-In . SVG Version: 6.00 Build 0)  -->
<svg version="1.1" id="Capa_1" xmlns="http://www.w3.org/2000/svg" xmlns:xlink="http://www.w3.org/1999/xlink" x="0px" y="0px"
	 viewBox="0 0 703 611.1" style="enable-background:new 0 0 703 611.1;" xml:space="preserve">
<style type="text/css">
	.st0{fill:#FFFFFF;}
	.st1{fill:none;stroke:#FFFFFF;stroke-width:0;stroke-linecap:round;stroke-linejoin:round;}
	.st2{opacity:0.48;}
</style>
<image style="overflow:visible;enable-background:new    ;" width="1919" height="1081" xlink:href="1620ED0D.jpeg"  transform="matrix(0.9995 0 0 0.9995 -7905.583 -7876.9331)">
</image>
<path class="st0" d="M389.3,388c0.1-0.2,0.2-0.5,0.4-0.7C389.3,387.7,389.3,387.9,389.3,388z"/>
<path class="st0" d="M393.6,265.4c0-0.1,0.1-0.2,0.1-0.5C393.7,264.9,393.6,265.2,393.6,265.4z"/>
<line class="st1" x1="398.3" y1="259.6" x2="398.4" y2="259.6"/>
<g>
	<g>
		<g>
			<g>
				<path class="st0" d="M398.7,266.1c-0.4-0.5-0.1-0.1-0.2,0H398.7z"/>
				<path class="st0" d="M398.5,266.1h-0.1C398.4,266.2,398.4,266.1,398.5,266.1z"/>
				<path class="st0" d="M397.2,266.6c-0.1-0.6,0.6-0.2,0.1-1C396.9,265.4,396.7,265.9,397.2,266.6z"/>
				<polygon class="st0" points="398,266.7 397.6,266.3 398,266.9 				"/>
				<polygon class="st0" points="398.4,266.8 398.2,266.7 398.2,267.3 				"/>
				<path class="st0" d="M396.4,267.1l0.1-0.2c0.6,0.2,0.5,0.6,0.9,0.9c0.2-0.2-0.7-1-0.4-1.1c-0.4-0.4-0.5,0.5-1.1-0.1
					C395.5,266.3,396.4,266.7,396.4,267.1z"/>
				<path class="st0" d="M388.3,282.2L388.3,282.2L388.3,282.2z"/>
				<path class="st0" d="M385.5,285.9c-0.1,0-0.1,0-0.2,0c0.1,0,0.1,0.1,0.2,0.1V285.9z"/>
				<path class="st0" d="M389,279c0.1,0,0.2,0,0.2,0C389.3,279,389.1,279,389,279z"/>
				<path class="st0" d="M366.6,297.4c0,0-0.1-0.1-0.1-0.2l0,0L366.6,297.4L366.6,297.4z"/>
				<path class="st0" d="M383,290.5c0,0-0.1,0.1-0.1,0.2C383,290.6,383,290.6,383,290.5z"/>
				<path class="st0" d="M390.1,277.8C390.1,277.8,390.1,277.9,390.1,277.8C390.1,277.9,390.1,277.9,390.1,277.8L390.1,277.8
					L390.1,277.8z"/>
				<path class="st0" d="M387.4,285.7c-0.1,0-0.1,0-0.1,0C387.4,285.7,387.4,285.7,387.4,285.7z"/>
				<path class="st0" d="M392.8,269.4c-0.1,0-0.1,0.1-0.1,0.2C392.8,269.7,392.9,269.6,392.8,269.4z"/>
				<path class="st0" d="M391.8,270.5L391.8,270.5C391.6,270.5,391.6,270.5,391.8,270.5z"/>
				<path class="st0" d="M390.9,271.3L390.9,271.3C390.9,271.2,390.9,271.2,390.9,271.3z"/>
				<path class="st0" d="M392.6,269.6c-0.4-0.1-1.1-0.9-0.4,0.1l0.1,0.1c-0.2-0.1,0,0.4-0.1,0.5c0.1,0.1,0.1,0.1,0.2,0.1
					c0,0,0.1,0,0.2-0.1C393.1,270.3,392.8,269.8,392.6,269.6z"/>
				<path class="st0" d="M388.1,282C388.3,282.2,388.3,282,388.1,282L388.1,282z"/>
				<path class="st0" d="M388.4,280.4c0,0-0.1,0-0.1,0.1C388.4,280.5,388.4,280.5,388.4,280.4z"/>
				<path class="st0" d="M392.4,276.9C392.3,276.9,392.3,276.9,392.4,276.9L392.4,276.9z"/>
				<path class="st0" d="M388.3,280.5L388.3,280.5C388.3,280.5,388.1,280.5,388.3,280.5z"/>
				<path class="st0" d="M390.8,277.5L390.8,277.5L390.8,277.5z"/>
				<path class="st0" d="M348.7,310.2c0-0.1,0.2,0,0.4,0c-0.4-0.7-0.4,0.4-0.6-0.4c0,0.1,0,0.2,0,0.4l0.6,0.4
					C349.1,310.2,348.8,310.5,348.7,310.2z"/>
				<path class="st0" d="M364.6,297.3L364.6,297.3c-0.1-0.2-0.2-0.4-0.5-0.4c0.2,0.5,1,0.9,1.2,1.5c0-0.1,0-0.1,0.1-0.1
					C365.1,298.1,364.8,297.7,364.6,297.3z"/>
				<path class="st0" d="M365.5,298.3C365.5,298.3,365.5,298.4,365.5,298.3c0.1,0.1,0.1,0.1,0.2,0.1h0.1
					C365.7,298.4,365.6,298.3,365.5,298.3z"/>
				<path class="st0" d="M351.4,308h0.1C351.4,307.9,351.4,307.9,351.4,308z"/>
				<path class="st0" d="M376.2,283.5c0-0.1,0-0.1-0.1-0.2C376.1,283.2,376.2,283.4,376.2,283.5z"/>
				<path class="st0" d="M366.9,296.1c0.1,0,0.1,0,0.1,0s0,0,0-0.1L366.9,296.1z"/>
				<path class="st0" d="M366.4,307.1c-0.6-0.6,0,0.1-0.5-0.1l0.2,0.5C366.2,307.5,366.2,307.3,366.4,307.1z"/>
				<path class="st0" d="M348.5,310.1C348.5,310.1,348.5,310.2,348.5,310.1C348.5,310.2,348.5,310.2,348.5,310.1L348.5,310.1z"/>
				<path class="st0" d="M363,310.7h-0.1C363,310.7,363,310.9,363,310.7z"/>
				<path class="st0" d="M366.5,297.9l0.5-0.4h-0.2C366.9,297.8,366.1,297.4,366.5,297.9z"/>
				<path class="st0" d="M368.6,305.6l0.4,0.4c-0.4-1.2,1.2-0.6,0.5-2.1c1.9,0.7-0.9-1.5,0.9-0.9l-0.2-0.1c1.9-1.5,4.2-2.5,5.1-4.7
					l0.2,0.2c2.9-2,4.7-5,7.3-7.2c0-0.5-0.7-0.9-0.9-1.4c0.1,0,0.2-0.2,0.6,0c0,0.4,0.4,0.5,0.5,0.7c0.2-0.4,1-0.2,0.7-1l-0.6-0.2
					c-0.1-0.2,0.1-0.2,0.2-0.4c0.1,0.2,0.7,0.6,0.7,0.7c-0.5-1.5,0.9,0,0.9-0.7c-0.7-1-1-2.2-1.2-3.2h0.4c-0.2,0.2,0.6,0.6,0.4,0.9
					c0.5,0,0.4-0.6,0.7-0.7c-0.2-0.1-0.6-0.5-0.6-0.6c0.2,0,0.7,0.4,1,0.2l0.1,0.5c0.5,0.2,0.1-0.4,0.1-0.5c0.4,0.4,0.7,0.1,1.1,0.6
					c-0.2-0.7,0.1-0.5,0-1.1c-0.6-0.1-0.4-0.5-0.7-0.9l-0.1,0.5c0.6-0.1,0,0.2,0.6,0.7c-0.5-0.1-0.7-1.2-1-0.9
					c0-0.7,0.4-0.5,0.2-1.4c-0.1,0.4-0.4-0.5-0.7-0.5c0.2-0.4,0.2,0.1,0.7,0.5c0.1-0.1,0.6,0.1,0.2-0.5c0.5-0.1,0.5,0.5,0.9,0.6
					c0.4,0.5-1.2,0.2,0.2,1.5c-0.1,0.1,0.2,0.9,0,1c0.4,0,1.1,0.2,1-0.4l-0.7-0.7c0.1-0.1-0.4-0.7-0.1-0.7c0.1,0.2,0.6,0.5,0.6,0.2
					c-0.1-0.1-0.1,0-0.2-0.1c0.1-0.4-0.4-0.9-0.1-1.2c-0.5,0-0.7-0.1-1.2-0.2c-0.5-0.6,0.1-0.2,0.1-0.5c0,0.1,0,0.1,0.1,0.2
					l-0.1-0.4c0.5-0.1,0.7,0.9,1.2,0.9c0.6,0.2,0-0.5,0.4-0.4l-0.1-0.1h0.1l0,0c0.1-0.2,0.2-0.4-0.1-0.9c0.2,0.1,0.1-0.2,0-0.4
					c-0.1-0.2-0.4-1,0.5-0.4l0,0c0.2-0.1,0.6-0.1,0.9,0.1l0.5-0.1l0.5,0.6c0.1-0.5-0.2-0.7-0.6-1.5c0.5,0.1,0.6-0.5,0.6-0.9
					c0,0,0.1,0,0.1-0.1l-0.4-0.1c0.2-0.2,0-0.5,0.1-0.6c-0.1,0-0.1,0,0,0h0.1v0.1l0.2,0.1c0.7,0.4,0-0.6,0.4-0.6v0.1
					c0.2,0,1.1,0.6,0.7,0.1c0.1,0,0-0.1,0-0.2h0.1h-0.1c-0.1-0.2-0.2-0.5-0.1-0.4l0.4-0.1c0.1,0,0.1-0.1,0.1-0.2l0.2,0.1
					c0-0.1,0.2,0,0.2,0c1.1,0.4,0.1-1,1.2-0.6c-0.2-0.5-0.6-0.5-0.9-0.6c-0.2-0.4-0.2-0.7-0.4-1.1c0.6,0.4,1.6,0.2,2.4,1.1
					c0.4-0.2-0.6-0.4-0.6-0.7l0,0c-0.2,0-0.5-0.1-0.9-0.4c-0.4-0.4-0.2-0.7-0.1-0.7l0.5,0.6c0.1-0.5-0.9-1.2-1.2-2
					c0.5,0,0.9,0.6,1.4,1.1l0.1-0.4l0.5,0.4c0-0.2-0.4-0.7,0-0.7c0.2,0.6,0.7,0,1.1,0.7c0.2,0-0.5-0.9,0.1-0.4
					c-0.4-0.5-0.4-0.1-0.5-0.1c-0.7-0.6,0-0.6-0.1-0.9c0.4,0.4,0.4,0.5,0.7,0.5c-0.2-0.2-0.4-0.6,0.1-0.4c-0.5-0.4,0.1-0.2,0.2-0.4
					c-0.1,0-0.6-0.1-1-0.5c-0.1-0.2-0.1-0.4,0.1-0.5h-0.4c-0.5-0.7,0.7,0.1,0.7-0.2c0.1,0.4,0.1,0.4,0.4,0.7
					c-0.1-0.4-0.2-0.9-0.2-1.2l0.9,0.4c-0.2-0.4,0.2-0.2-0.1-0.6c0.5,0,0.4,0.7,0.6,1c0.6,0-0.5-1,0.5-0.6l0.4,0.5
					c0.1-0.1,0.1-0.5,0.2-0.4c-0.1-0.1-0.1,0-0.2,0c-0.7-0.9-0.1-1-1.1-1.9l-0.1,0.1c0-0.4-0.4-1.1,0-1s0.5,0.6,0.6,1
					c0.2-0.1-0.9-1.1-0.5-1.2c-0.2,0-0.6-0.4-0.7-0.6c-0.1,0.1-0.6,0.2-0.2,0.5h0.1c0.2,0.2,0.2,0.4,0.4,0.5
					c-0.1,0.1-0.5-0.4-0.7-0.5c-0.5,0.1,0.9,0.9,0.6,1.1l-0.2-0.1c0.1,0.4-0.1,0.6,0.5,1.1c-0.7-0.5-0.1,0.5-0.6,0.4
					c-1.2-1.2,0.5-0.4,0-1.2c-0.4-0.1-0.5-0.6-0.7-1l0.1,1c-0.2-0.1-1-0.6-0.6-0.1l0,0c0,0.4,0.5,0.7,0.2,0.7
					c-0.1-0.1-0.2-0.4-0.4-0.4c-0.2,0,0.1,0.4,0.1,0.6c-0.2,0-0.5-0.6-0.7-0.6c0.4,0.6-0.4,0.1-0.5,0.4c0.7,0.6,0.4,1.5,1.4,1.9
					l0.1,0.9c-0.5-0.2-0.7-1.2-1.5-1.7l0.2-0.2c-1-0.9,0,1.1-1.1,0.4c-0.1,0.1,0,0.2-0.7,0l0.9,0.7c-0.4,0-0.7-0.4-1-0.5
					c0,0.1-0.1,0.2-0.2,0.2c-0.1-0.1-0.1-0.2-0.1-0.4c-0.5-0.4-0.4-0.1-0.2,0.1c0.1,0.2,0,0.4-0.1,0.4l-0.2-0.4c0,0.1,0,0.2,0.1,0.4
					v0.1c0.1,0.1,0.6,0.5,1,0.6c-0.6,0-0.7,0.5-1.7,0.1c-0.2-0.2-0.4-0.6-0.5-0.6c-0.2,0,0,0.6,0.4,0.9v0.1
					c-0.2-0.1-0.5-0.4-0.6-0.2c-0.1,0-0.1-0.1-0.2,0c0.6,0.6,0,0.6,0.2,1c0.1,0,0.2-0.1,0.2-0.2c0.4,0.5,0.6,1.1,0.2,0.9
					c-0.1-0.6-0.9-0.4-0.7-0.9c-1-0.5,0.5,0.6-0.1,0.6l-0.5-0.1c-0.5-0.5,0-0.5-0.1-0.6v0.1c-0.2-0.5,0.4-0.6,0.1-1.4l-0.7,0.2
					c-0.1,1.2-1.5,1.4-1,2.9l0,0c0,0,0.1,0.1,0.2,0.4l-0.1-0.1l0.2,0.5c-0.5-0.2-0.9-0.1-1.4-0.2c0.4,0.1,0.4,0.1,0.7,0.5
					c0.5,0.5,0.6,0.6,0.2,0.7c-0.4-0.4-0.2-0.4-0.6-0.5c0.2,0.1,0.4,0.4,0.4,0.5c-0.4-0.1-0.5,0-0.9-0.2c0-0.1,0.1,0,0.1,0
					c0-0.1-0.5-0.1-0.6-0.5l-0.1,0.2c-0.4-0.1-0.4-0.5-0.6-0.6c-0.1,0.5,0.5,1.4,0.5,1.9c-0.1-0.1-0.9-0.9-0.6-0.6
					c-0.5,0,0.4,1.2,0.1,1.5c-0.1-0.2,0-0.2,0-0.5c-1,0.5-1.6,1.1-3,1.1l0.6,0.9l-0.6-0.2c-1.2,0.2-1.2,1.4-1.7,2.2
					c-0.1,0.2-0.6-0.4-1-0.5c-0.6,0.4,0.1,1.4-0.1,2c-0.1-0.2-0.7-1-1-0.9c0.1,0.2,0.5,0.6,0.2,0.6l-0.1-0.2
					c-0.5-0.2-0.2,0.2-0.6,0.4c-0.4,0.5-0.2,1.4,0.2,2.5c-0.5,0.2-0.7-0.9-1-0.9c0.5,0,0-0.4-0.1-0.6c0.1,0.4,0,0.6-0.6,0.1
					c-0.1,0.2-0.2,0.2-0.1,0.9c-0.1-0.2,0.2-0.1,0.5,0.2c-0.4,0-0.5,0.6-1.1-0.1c-0.7,1-1.9,1.9-2.9,3c0.1,0.5,0.2,0,0.4,0.4
					c0.2,0.6-0.4,0-0.2,0.5l-0.2-0.5c-0.4,0.2,0,1.2,0.1,1.9c-0.4-0.5-0.6-0.1-0.6-0.6c0,0.2-2.1-1.5-1.9-1l1.9,1.5
					c0.1,0.1-0.1,0.2,0,0.4c-0.5-0.2-1-0.5-1.1-0.4c-0.5-0.4-0.1-0.5,0-0.6c-0.7-0.7-0.9-0.1-1.4-0.9c-0.1,0.4,0.4,0.4,0.5,0.7h-0.4
					l0.4,0.1c0,0.4,0.5,1-0.1,0.9l0.5,1c-0.6-0.5-0.2,0.1-0.5,0.1l-0.2-0.5c-0.1,0.1-0.4,0.1-0.6,0c-0.4-0.6,0.2,0-0.1-0.5h-0.4
					c0.4,0.4,0.5,0.6,0.7,0.7c0.5,0.7,0.9,1.4,0.4,1.7c-0.7-0.4-0.2-0.6-0.9-1.1c-0.6,0.2,0.9,2,0.6,2.1c-0.5,0.1,0,0.6-0.2,1
					c-0.2-0.5-0.6-0.1-1.1-0.5l-0.2-0.5c0,0.2-0.2,0.1-0.5-0.1c0.5,0.5,0,0.9,0.1,1.4l0.5,0.4c0,0.4,0,0.9-0.2,0.9
					c-0.1,0.4,0.4,0.7,0.6,1.4c-0.5-0.2-1-0.7-1.4-1.2c0.2,0.1,0.2-0.1,0.5-0.1c0-0.7-0.6-1.9-0.1-2c-0.9-1.2-0.1,0.4-0.6,0.1v-0.1
					c0,0,0,0-0.1,0c0-0.2,0-0.6-0.5-1.2c-0.1,0.4,0.9,1.2,0.2,1c0.1,0.5-0.9-0.1-1.1-0.1c0.2,0.5,1.1,1.4,0.6,1.5l-0.5-0.7
					c-0.4,0.4,0.7,1,0.4,1.4c0.1,0,0.5,0.6,0.7,0.5c0.2,0.4,0,0.7-0.4,0.7c0,0.1,0.1,0.2,0.4,0.4c0.6,0.2-0.1-0.7,0.6-0.2l-0.5-0.7
					c0.4,0,1,0.5,1.1,0.9c0-0.1,0-0.2,0.1-0.1c1,0.9-0.6-0.1,0.1,0.7v-0.2c0.6,0.5,0.2,0.9,0,1c-0.5-0.1-0.7,0-1.2-0.5v-0.5
					c-0.5-0.2-0.1,0.5-0.2,0.6c-0.1,0-0.1-0.1-0.1-0.1s0.1,0,0.1,0.1c0,0-0.1,0-0.2-0.1c-0.1,0.1,0,0.6-0.4,0.6l0.4,0.4l-0.2-0.2
					c0.1-0.1,0.5,0,0.7,0.4c0,0.5-0.9-0.1-1.2-0.4c-0.6-0.6,0.2-0.2,0.2-0.6c-0.7-0.5-0.4,0.2-1,0.1c-0.6-0.7,0.4-0.4-0.2-1
					c-0.4,0.1,0.1,0.6-0.4,0.7c-0.2-0.4-0.1-0.6-0.5-1h-0.4c0.4-0.4-0.9-0.7-0.7-1.2c-0.4-0.1,0.4,0.7-0.2,0.5c0.4,0.2,1,0.6,1.1,1
					h-0.4c-0.4-0.2-0.5-0.9-0.9-1.1v0.5c0.2,0.1,0.4,0.1,0.6,0.5c-0.4-0.1,0.6,1,0.7,1.4c-0.1,0.1-0.2,0.1-0.5,0
					c0.2,0.9-0.1,1.2,0.1,2.1c-0.2-0.6-0.7-0.6-1.1-0.9c0.1-0.4-0.5-0.9-0.9-1.2c0,0.2,0.5,0.9,0.7,1c-0.5,0,0.2,0.6-0.4,0.4
					c-0.4-0.1-0.6-0.6-0.9-0.9c-0.2,0.2,0.7,0.9,0.2,1c-0.1-0.1-0.1-0.1-0.2-0.2c-0.2,0-0.1,0.5,0.1,0.7c-1-0.6-0.4,0.5-1.1-0.2
					c-0.1,0.6,0.5,0.4,0.7,0.7c0.2,0.5-0.4,0.5-0.5,0.4c0-0.1-0.1-0.4,0.1-0.4l-0.6-0.5c-0.9,0,1,1.5,0.1,1.5
					c-0.1-0.5-0.4-0.5-0.6-1c0.1,0.2-0.4,0.4,0.2,0.6c-0.2,0.1-0.4,0.1-0.6,0.1c0.1,0.4,0.1,0.6,0.4,1.1c-0.2,0.1-0.9,0-1.1-0.2
					c0,0.9-1.1,0.6-1.2,1.5h0.1c-0.5,0.2,0.9,0.5,0.5,0.9c-0.6-0.7-0.6-0.2-1.1-0.4c-0.9,0.1-0.4,1.4-1.2,1.4
					c-0.1-0.1-0.2-0.4-0.2-0.4c-0.5,0.1-0.6,0.5-1,0.9l-0.1-0.1c-1,0-0.7,1-1.1,1.7c0-0.1-0.2-0.4-0.4-0.5c-0.4,0.1-0.9,0.4-0.5,1.2
					c-1-0.4,0,0.4-1,0.1c-0.1-0.1-0.1-0.1-0.1-0.2c-0.4,0-0.5,0.1-0.7,0.2c0,0.9,0.7,1.9,0,2.1c-1-0.9,0.1-0.5-0.6-1.2
					c0,0.2,0.1,0.5-0.1,0.5c-0.2-0.4-0.2-0.2-0.5-0.6c-0.4-0.1,0.5,1.4,0.5,1.2c0.1,0.1,0.4,0.2,0.4,0.1c0.5,0.6-0.5,0.5-0.5,1
					c0.1,0,0.5-0.1,0.9,0.4c-0.5,0.1,0.2,1.1,0.4,1.7c-0.7-0.1-0.6-1-1.2-1.6c-0.2-0.2-0.9-0.6-1.1-1c-0.4,0.1,0,0.9-0.1,1.2
					l-0.1-0.2c-0.2,0.4,0.2,1.5-0.5,1.5h0.4c0,0.1-0.1,0.2,0.1,0.7c-0.2-0.4-0.7-0.4-1-0.7c0.9,1.1-0.1,1.4,0.6,2.4
					c-0.4-0.1-0.6-0.6-0.9-0.9c0.2-0.1,0.5,0,0.2-0.5c-0.1,0.2-0.5,0.1-0.7-0.1c0.5,0.7,0.2,1.4,0.7,2.1c-0.5-0.1-0.7-0.2-1.2-0.7
					c-0.2,0.9,1.9,1.2,1.2,1.9c-0.7-0.2-0.4-0.9-1-0.7v-0.1c-1.6-1,0.7,1.1,0.4,1.4c-0.7-0.6-0.2-0.7-1-1c-0.1,0.5,0.9,1.6,0.4,1.6
					l-0.2-0.4c-0.1,0.2-0.6,0.5-0.7,0.6c-0.1-0.1-0.1-0.1-0.1-0.2c-0.6,0.1,0.2,0.5-0.5,0.2l0.2,0.4c0.4,0.1,1,0.1,0.7-0.4
					c0.2,0.6,1.1,0.6,1.7,1.2l-0.2-0.2c1.5,0.6,2.2,0.1,3.1-0.1c-0.4-1.1,0.9-0.4,0.7-1.2c-0.7-0.9-0.1-0.2,0-0.7
					c-0.1,0.2,0.6,0.6,0.9,0.6c-0.1-0.2-0.1-0.4-0.1-0.6c0.4,0.2,1.4,0.4,1-0.2c0.5,0,0.2,0.4,0.4,0.5c0.5,0.4-0.1-0.5,0.1-0.2
					l0.1,0.1c0.2-0.4,0.6-0.4,1.1-0.5c-0.7-0.9,0-0.6-0.1-1c0.2,0.2,0.5,0.1,0.7,0.1l-0.5-0.7c-0.4-0.6,0.6,0.1,0.5-0.4l-0.2-0.1
					c-0.1-0.4,0.9-0.4,1.4-0.1c-0.1-3.1,3.1-1.5,4.4-3.5c-0.1-0.4-0.5-0.4-0.7-0.7c0-0.2,0.1-0.2,0.2-0.4c-0.4-0.1,0,0.1-0.2-0.1
					v0.5c-0.1,0-0.1-0.1-0.2-0.2c0,0.1,0.1,0.4,0,0.5c-0.1-0.4-0.6-1-0.2-1c0.1,0.1,0.1,0.1,0.1,0.2c0.2-0.1-0.1-0.4,0.2-0.4
					c0.2,0,0-0.1,0.4,0.1l0.7-0.1c-0.5-0.9,0.5-0.5,0.6-0.5c0.5,0.6-0.1,0.5,0.2,1.1l0.5,0.2l-0.4-0.4l0.4-0.1l0.1,0.1
					c-0.1-0.2-0.2-0.4-0.1-0.2c0.1,0,0.2,0.1,0.2,0.2l-0.1-0.4c0.4,0.5,0.2,0,0.7,0.5c0.7-0.2,0-1.4,1.1-1.1c-0.4-0.1-0.6-1-0.5-1
					c0.2,0,0.4,0.1,0.5,0.4l-0.1-0.5c1,0.5,0.7-0.2,1.4-0.2l0.2,0.2c-0.1-0.4-0.2-0.7,0-0.9l0.4,0.5c0.5,0.1-0.7-1.1-0.2-1.1
					c-0.5-0.5-0.9-0.5-1.4-1c0.6,0.4,0.9,0.2,0.5,0c0-0.5,0.1-0.1,0.4-0.1l-0.1-0.5c0.2-0.1,0.7,0.6,0.9,0.9
					c-0.4-0.6,0.2-0.5,0.5-0.6l0.1,0.2l0.4-0.1c-0.2-0.5,0-0.7,0.4-0.9l0.5,0.7c0.5,0.1-0.1-0.2-0.2-0.4c-0.1-0.5,0.4-0.1,0.9,0
					C367.1,305.5,369.2,306.9,368.6,305.6z M392,276.6h-0.1C391.8,276.4,391.8,276.3,392,276.6z M389.6,278.6c0-0.5,0.2-0.1,0.4,0
					c-0.4,0.1-0.4,0.4-0.7,0.5c0.1,0.1,0.4,0.2,0.5,0.4c-0.1,0-0.4,0-0.7-0.2C388.5,278.4,390.1,278.9,389.6,278.6z M391.1,270.8
					l0.1,0.1l0,0L391.1,270.8z M390.5,272.5c-0.1-0.1-0.2-0.1-0.4-0.1C390.4,272.5,390.5,272.7,390.5,272.5z M387.3,274.3
					c-0.4-0.2-0.4,0-0.4,0.1C386.9,274.4,387.2,274.4,387.3,274.3z M372.1,290.3c0-0.1-0.1-0.6-0.5-0.6c0.1,0.2-0.4,0,0,0.4l0,0
					C371.8,290.3,372.1,290.3,372.1,290.3z M367.1,299.9c-0.2-0.2-0.5-0.6-0.7-0.7l0,0c-0.1-0.1-0.2-0.1-0.2-0.2
					c-0.1,0-0.2,0-0.2,0.1C366.9,299.9,366.9,300.3,367.1,299.9z"/>
				<path class="st0" d="M366,294.1C366,294.1,365.9,294.1,366,294.1C365.9,294.1,366,294.1,366,294.1z"/>
				<path class="st0" d="M366,299c0,0,0.2,0.1,0.4,0.1C366.2,299,366.1,299,366,299z"/>
				<path class="st0" d="M398.1,269.4v0.1l0.4,0.1c0-0.5-0.4-0.9-0.7-1.4c0.1,0.6-0.1,0.5-0.2,1L398.1,269.4z"/>
				<path class="st0" d="M395.1,266.8c-0.1-0.1-0.5-0.4-0.5-0.2l0.2,0.2H395.1z"/>
				<path class="st0" d="M391,268.4h0.5C391.3,268.2,390.6,268.1,391,268.4z"/>
				<path class="st0" d="M396.5,271.9l-0.1-0.4c-0.4-0.1-0.5,0-0.1,0.4C396.1,271.5,396.4,272,396.5,271.9z"/>
				<path class="st0" d="M390.3,269.1c0.5,0.6-0.5,0,0,0.5C390.3,269.4,390.8,269.6,390.3,269.1z"/>
				<path class="st0" d="M395.4,273.7c0.6,0.4,0.2-0.1,0.5-0.1C395.7,273.7,395.1,273.3,395.4,273.7z"/>
				<path class="st0" d="M390.5,271.8c-0.4-0.4-0.2-0.5,0-0.5c0.1,0.1,0.2,0.4,0.2,0.5c-0.1-0.5,0-0.4,0-0.7c-0.4-0.1-0.7,0-1.2-0.5
					C389.6,270.9,390.1,271.5,390.5,271.8z"/>
				<path class="st0" d="M395.1,274.2c0.2,0,0.6,0.2,0.7,0.1c-0.2-0.2-0.7-0.5-0.7-0.4l-0.4-0.5
					C394.2,273.3,395.4,273.9,395.1,274.2z"/>
				<path class="st0" d="M388.9,271.4l0.2,0.1c-0.1-0.5,0.2-0.6-0.2-1.2C388.8,270.7,388.8,271,388.9,271.4z"/>
				<path class="st0" d="M393.7,273.9l0.6,0.6c0.2-0.1-0.2-0.1-0.2-0.4c0.1,0,0.2,0,0.1-0.1C394.1,274.3,393.6,273.5,393.7,273.9z"
					/>
				<path class="st0" d="M393.9,275.2v0.5l0.9,0.5C394.7,275.7,394.4,275.7,393.9,275.2z"/>
				<path class="st0" d="M393.1,275l-0.1-0.1l0.6,1.2C393.4,275.5,393.5,275.7,393.1,275z"/>
				<path class="st0" d="M385.3,275.2c0.2,0.2,0.7,0.4,0.4,0.2C385.5,275.2,384.9,275.2,385.3,275.2z"/>
				<path class="st0" d="M390.9,279.1c-0.2-0.1-0.2,0.6-0.1,0.9C390.8,279.8,391.3,279.4,390.9,279.1z"/>
				<path class="st0" d="M390.8,280.1V280V280.1z"/>
				<path class="st0" d="M386.5,287.1L386.5,287.1L386.5,287.1z"/>
				<path class="st0" d="M386.5,286.9c0.1,0,0.2-0.4,0-0.6c0,0.2,0,0.5,0.1,1C386.7,287,386.9,287.1,386.5,286.9z"/>
				<path class="st0" d="M385.2,288c-0.1-0.2,0.1-0.2-0.2-0.5C384.8,287.5,384.9,287.8,385.2,288z"/>
				<path class="st0" d="M369.1,289.5c-0.2,0-0.2,0.1,0.1,0.5C369.4,289.8,369.1,289.6,369.1,289.5z"/>
				<polygon class="st0" points="369.1,290.2 369,290 368.6,289.8 				"/>
				<path class="st0" d="M367.7,290.5c0,0-0.1-0.1-0.1-0.2C367.6,290.3,367.7,290.5,367.7,290.5z"/>
				<path class="st0" d="M367.6,290.2L367.6,290.2L367.6,290.2z"/>
				<path class="st0" d="M367.9,290.3l-0.1-0.2v0.1C367.6,290.2,367.7,290.2,367.9,290.3z"/>
				<path class="st0" d="M367.5,290.7l0.7,0.4c-0.1-0.5-0.5-0.1-1-0.9L367.5,290.7z"/>
				<path class="st0" d="M367,291.5c-0.4,0,0.4,1.1-0.4,0.5c-0.1,0.7,1.2,1,1,1.7c0.9-0.1-1.1-1.5-0.2-1.6
					C366.7,292,367.1,291.7,367,291.5z"/>
				<path class="st0" d="M368.2,292.5c-0.4-0.4-0.5-0.1-0.4,0.1C368,292.6,368.6,292.9,368.2,292.5z"/>
				<polygon class="st0" points="366.5,292.6 366.1,292.5 366.2,292.7 				"/>
				<path class="st0" d="M365.9,292.9l-0.2-0.5C365.7,292.7,365.5,292.8,365.9,292.9z"/>
				<path class="st0" d="M364.6,293.2c-0.2,0,0.5,1,0.6,0.5h-0.1C365,293.6,364.6,293.4,364.6,293.2z"/>
				<path class="st0" d="M364.5,296.3c0.1,0,0.1-0.2-0.1-0.5v0.4L364.5,296.3z"/>
				<path class="st0" d="M366.7,298.4c0.6,0.5,0.1-0.2,0.5-0.2C367,298.2,366.9,298.2,366.7,298.4z"/>
				<path class="st0" d="M363.4,295.8c-0.1-0.2,0.1-0.2,0.1-0.2C363.3,295.2,363.1,295.4,363.4,295.8z"/>
				<path class="st0" d="M363.3,296.3c-0.2-0.1-0.2-0.4-0.5-0.4c-0.4-0.1-0.5,0.1-0.4,0.5c0.2,0.1,1,0.7,1.2,1.1
					c0-0.5-0.9-1.6,0.1-1l-0.7-1.1C362.6,295.4,363.5,296.2,363.3,296.3z"/>
				<path class="st0" d="M365.6,297.6l-0.5-0.1c0.4,0.2,0.2,0.5,0.4,0.6C366.2,298.7,365.6,297.7,365.6,297.6z"/>
				<polygon class="st0" points="362.3,298.2 362.1,298.7 362.3,298.5 				"/>
				<polygon class="st0" points="361.9,298.2 361.6,298.1 361.8,298.5 				"/>
				<polygon class="st0" points="361.3,298.3 361.4,298.3 361.4,297.9 				"/>
				<path class="st0" d="M360.5,298.8l0.4,0.2c0-0.1,0.5,0,0-0.4C361,298.8,360.9,298.9,360.5,298.8z"/>
				<path class="st0" d="M366.1,308.1c-0.1-0.2-0.4-0.4-0.6-0.5l0.4,0.6C366,308.1,366,308.1,366.1,308.1z"/>
				<path class="st0" d="M364.9,307.8l0.4,0.7c0.4-0.1-0.1-0.6,0-1c-0.2-0.1,0,0.5-0.2,0.4L364.9,307.8z"/>
				<path class="st0" d="M360.1,311.7c-0.4-0.4-0.4-0.2-0.4-0.6c0,0.5-0.2,0.6-0.5,0.9c0.2,0.2,0.5,0.7,0.5,0.6v-0.5l0.2,0.2
					C360.5,312.4,359.7,311.7,360.1,311.7z"/>
				<path class="st0" d="M344.8,319.6c-0.1-0.2-0.4-0.4-0.5-0.5C344.3,319.5,344.8,319.5,344.8,319.6z"/>
			</g>
		</g>
	</g>
</g>
<g class="st2">
	<g>
		<g>
			<g>
				<g>
					<path class="st0" d="M523.4,20.3c0,0.2,0.1,0.7,0.4,0.5v-0.9L523.4,20.3z"/>
					<path class="st0" d="M525.6,21.4c0.2-0.5,0.6-1.1,0.2-1.9c-0.2,0.9-0.4,0.5-0.6,1.5c-0.2,0.1-0.5-0.1-0.5-0.5
						c0,0.2-0.5-0.1-0.5,0.4c0.5,0.5,1,0.5,1.4-0.1C525.7,21.1,525.6,21.3,525.6,21.4z"/>
					<path class="st0" d="M542.6,32.3l0.1-0.1C542.7,32.3,542.6,32.3,542.6,32.3z"/>
					<path class="st0" d="M528.4,33.4c0.1,0,0.2,0,0.2-0.1C528.5,33.4,528.4,33.4,528.4,33.4z"/>
					<path class="st0" d="M525.7,31.5c0.1,0,0.1,0.1,0.2,0.1C525.8,31.5,525.8,31.4,525.7,31.5z"/>
					<path class="st0" d="M542.6,32.3l-0.5,0.1C542.4,32.6,542.4,32.4,542.6,32.3z"/>
					<path class="st0" d="M529.3,19.1c-0.1,0-0.1,0.1-0.2,0.2C529,19.3,529.2,19.2,529.3,19.1C529.3,19.2,529.3,19.1,529.3,19.1z"/>
					<path class="st0" d="M542.6,26.8L542.6,26.8c-0.1-0.1-0.2,0-0.4,0H542.6z"/>
					<path class="st0" d="M539,24.2c0.1,0.1,0.4-0.6,0.5-0.9c-0.1,0.2-0.2,0.4-0.4,0.4C539.1,23.8,539,24,539,24.2z"/>
					<path class="st0" d="M530.7,21.9l-0.1,0.1C530.5,21.9,530.7,21.9,530.7,21.9z"/>
					<path class="st0" d="M542.9,29.5c-0.1,0-0.2,0-0.2,0C542.7,29.5,542.9,29.5,542.9,29.5z"/>
					<path class="st0" d="M528.8,17.1h-0.1C528.8,17.1,528.8,17.1,528.8,17.1z"/>
					<path class="st0" d="M523.3,23.3L523.3,23.3c0-0.2,0-0.4-0.1-0.4L523.3,23.3z"/>
					<path class="st0" d="M518.5,31.8C518.6,31.8,518.6,31.8,518.5,31.8C518.6,31.6,518.6,31.6,518.5,31.8z"/>
					<path class="st0" d="M474.5,32c0,0.7-1.1,0.1-1,1.1C473.7,32.9,474.7,32.8,474.5,32z"/>
					<path class="st0" d="M529.4,19.2c0.1,0,0.1,0,0.2,0C529.5,19.2,529.5,19.2,529.4,19.2z"/>
					<path class="st0" d="M473.5,33.1L473.5,33.1L473.5,33.1C473.5,33.3,473.5,33.1,473.5,33.1z"/>
					<path class="st0" d="M507.8,35.5c0,0.1,0.1,0.2,0.1,0.2S507.9,35.6,507.8,35.5z"/>
					<path class="st0" d="M516.3,34.3h-0.2C516.2,34.3,516.3,34.3,516.3,34.3z"/>
					<path class="st0" d="M503.4,37.1c-0.1,0-0.1-0.1-0.4,0v0.1C503.2,37,503.2,37,503.4,37.1z"/>
					<path class="st0" d="M498.6,37.4c0,0,0,0.1,0.1,0.1h0.1L498.6,37.4z"/>
					<path class="st0" d="M514.7,6c0.1,0.2,0.1,0.4,0.2,0.6C515,6.1,515.9,6,514.7,6z"/>
					<path class="st0" d="M529.3,19.4c0-0.1,0-0.2,0.1-0.4h-0.1C529.3,19.3,529.3,19.4,529.3,19.4z"/>
					<path class="st0" d="M503.7,42.6h-0.9C503,42.6,503.4,42.6,503.7,42.6z"/>
					<path class="st0" d="M484.5,9.2l0.2-0.1C484.6,9.1,484.6,9.2,484.5,9.2z"/>
					<path class="st0" d="M500.4,42.8c-0.1-0.2-0.4-0.4-0.5-0.5c0,0.1,0,0.1-0.1,0.2L500.4,42.8z"/>
					<path class="st0" d="M515,6.6L515,6.6L515,6.6z"/>
					<path class="st0" d="M521.6,6.8c-0.9-0.4-0.7,0.6-1.2,1c-1.1-0.2-0.1-0.9-0.4-1.4c-0.7,0-1.5,0.6-2,0.4c0-0.1-0.1-0.2,0.1-0.4
						c-0.9,0.5-2.1-0.5-3,0.4c0-0.1-0.1-0.1-0.1-0.2c0.1,0.5,0,1,0,1.2c-0.4,0-0.7,0.5-0.7-0.1c0.2,0,0.2-0.2,0.4-0.4l-0.4,0.2
						c-0.4-0.9,0.5-0.2,0.6-0.9c-0.9,0.2-1.7,1-2.2,0.7c-0.2-0.9,1.4-0.4,0.5-1.1l1,0.4c-0.7-1.4,0.6,0.1,0-1.4
						c-1.4-0.2-1.5,0.4-2.9,0.4c-0.2,0.5,0.2,0.6,0,1.1c-0.7,0.6-1.2,0.1-1.6-0.2s-0.9-0.7-1.2,0c-0.1,0.6,0.1,1.6-0.9,1.5
						c0-0.4-0.1-0.6-0.1-1c-1.2,0.5,0,1.5-1.4,1.6c0-0.4,0.6-0.7,0.5-0.7c-1.1-0.2-0.2,0.7-0.7,1.1l-0.6-0.6
						c-1.1,0.9-1.7,2.2-2.6,3.5c-0.1-0.2-0.1-0.6-0.6-0.5c-0.2,0.4-0.5,0.9-0.7,1.2c-0.1,0.1-0.4,0.4-0.4,0.5l-0.1,0.1
						c-0.2,0.1-0.5,0-0.6-0.1c0.1,0.2,0.1,0.6,0.2,0.9v0.1c0,0-0.1-0.4-0.2-0.6c-0.2-0.4,0.1,0.6,0.2,1c-0.1,0-0.2-0.6-0.2-0.9
						c0,0.7-0.9,1-1.2-0.1l0.2-0.1c-0.6-0.6-1.5,0.9-2-0.1h0.2c-1.6-1.1-3.9-1.2-4.9-2.7c-0.6,0.9-1.7-1-2.2,0.4
						c-0.9-1-0.5-1.1-2.1-2c-0.5-0.1-0.7,0.9-1.4,0.9V9c-0.2,0.2-0.5,0.5-0.7,0.7l-0.4-1l-0.5,0.1c0.2,0,0.4,0.4,0.4,0.6
						c-0.7,0.2-1.9-0.6-2-1c-0.6,0.2-1.2,0.5-1.9,0.7c0-0.4,0.4-0.5,0.6-0.7c-1,0.9-0.2-0.7-1.1,0c0.1,0.1,0,0.5,0,0.6
						c-0.5-0.4-1.7-0.1-2.5,0.2V8.9c-1.5,0.2-3,1.4-4.4,2.1c0.6-0.1,1,0.7,0.6,1.1l-0.6-0.6c0,0.6,0.6,0,0.4,0.9
						c-0.5,0.2-0.9-0.5-0.6-1l-0.5,0.6c-0.1-0.1-0.1-0.4-0.2-0.6c0,0.5-1.6,0.1-1.4,1.1l-0.1-0.1c-1.4,1.1-1.7,1.9-2.6,2.9
						c0.5,0.5,0.1,0.7,0.2,1.5c-0.7,0.6-1.9,1.2-2.4,2.5c0,0.9,0.5,0.5,0.6,1c-0.6-0.2-1,1-1.2,0.2c-0.2,0.7-0.2,1.2-0.4,1.7
						c0,0.5,0,1.1,0.1,2.1c0.2-0.2,0.4-0.4,0.6-0.2c0,0.4-0.4,0.7-0.6,0.6v-0.1c0.2,0.5,0.2,1.1,0.1,1.6c0,0.6-0.2,1.2-0.2,1.9
						c-0.1,1.2,0,2.6,1,3l-0.1-0.1c0.5,0.4,1,0.9,1.5,1.1c0.4,0.7-0.6-0.1-0.6,0.6c1,0.5,1.4,1,1.7,1.6c0.4,0.5,0.7,1.1,1.6,1.4
						c-0.2,1.1,0.6,1.7,1.6,2.2c1,0.5,2,0.9,2.5,1.7l0.1-0.4c0.5-0.2,0.4,0.4,0.6,0.6c0.1-0.4-0.2-0.5,0.1-0.6
						c1.6,0.4,3.1,1,4.7,1.7c1.6,0.6,3.1,1.2,4.7,1.6c1.1,0.2,0.9-2.2,2.2-1l-0.5,0.7c2.4-0.9,4.6,0.2,6.8-0.5
						c-0.1,0.2-0.1,0.4-0.4,0.4c0.5,0.6,1.7,0,1.7-0.4c0.4,0.1,0.1,0.4,0.2,0.7c0.5,0.4,1.1-0.7,1.4-0.1c0,0.1-0.1,0.2-0.2,0.2
						c0.2-0.2,1.4,0.1,1.1-0.6c0.9,0.4,1.6-0.4,2.2,0c0.4-0.7,1.5,0.2,1.5-0.7c0,1.1,1.5,0.7,2,0.2c-0.1,0.4,0.5,0.4,0.4,0.7
						c0.6-0.1,1.1-0.4,1-0.9c1.2,1.2,2.1-1.4,3,0.2c1.7-0.9,3.2-1.6,4.7-2.2c0.2,1.1-1.7,0.5-1.4,1.6c1.5-0.7,2-2,3.6-2.1
						c0.4,0-0.1,0.5-0.1,0.7c1.4-0.9,3-0.9,4-1.9c0,0.1,0,0.2-0.1,0.4c0.2-0.1,0.6-0.1,0.5-0.5l-0.2,0.2c-0.6-0.5,0.4-1.9,0.2-2.2
						c0.1,1.5,1.4-0.2,1.5,1.7c0.1-0.1,0.2-0.5,0-0.7c0.2,0,0.5,0.1,0.4,0.6c0.7-0.6,0.2-1,1-1.4c0.1,0.2,0,0.4,0,0.6
						c0.1-0.6,0.4-1.2,0.9-1.1c0,0.1,0.1,0.4,0,0.4c0.4-0.1,0.6-0.5,1-0.9c0.4-0.2,0.9-0.4,1.4,0c-0.6,1,0.2,0.4,0,1.4
						c0.2,0,0.4-0.1,0.6-0.1l-0.1-0.5c0.5,0.2,1.2-0.2,1.6,0.2l-0.6,0.1l1.1,0.2l-0.5-0.6c0.7-0.2,0.4-1.1,1.1-0.5
						c-0.2,0,0.6,0.2,0.7,0.9l0,0c0.4-0.1,0.7-0.4,1.2,0c0,0.4-0.4,1-0.4,1.1c0.5-0.6,1.6,0.2,2.1-0.5c-0.1,0.1-0.2,0.6-0.2,0.7
						l0.4-0.5c0.2,0.2,0.2,0.4,0.1,0.7c0.9,0.2-0.1-1.2,0.9-0.5c-0.1,0,0,0.1-0.2,0.2c1.1,0.5,2.1-0.1,3.2,0.1c0.4,1-0.9,0.2-0.6,1
						c0.7-0.1,1.6-0.4,2.4-0.7c0.7-0.4,1.5-0.7,2.2-0.9c-0.1,0-0.2,0-0.2,0c-0.1-0.6,0.1-0.6,0.6-0.5c0.4,0.1,1,0.2,1.1-0.2
						c-0.1,0.2,0.1,0.7,0.1,0.6c1.1-0.4,1.7-1.5,2.4-3l0.1,0.4c0.6-0.2,1.1-1.2,1.6-1.7c-0.2-0.4,0-0.6-0.5-0.6
						c1.4-0.5,1.4-1.7,1.1-2.9c-0.2-1.1-0.7-1.7-0.2-3c0.1,0.2,0.5,0.5,0.4,0.2c-0.2-0.5-0.6-1-1-1.5c-0.5,0.4-0.1,0.4-0.5,0.9
						c-0.4,0-0.7-0.2-1-0.5c0.6,0.4,0.7-0.5,0.9-1c-0.1,0.1-0.4,0.1-0.5,0.4c0.2-1.2-1,0.6-1.1-0.5l0.2-0.2
						c-0.4-0.1-0.9-0.1-1.1-0.4c0.2-0.6,0.5,0,0.9-0.4c-0.5-0.4-1.6,0.4-1.7-0.5c0.4,0,0.6,0.1,0.9,0.1c-0.1-1-0.2-0.9-0.6-1.1l0,0
						c-0.2-0.2-0.5-0.5-0.7-0.7l0.1,0.4c-0.7,0.6-1.1,0.6-1.4,0.4c-0.4-0.1-0.7-0.4-1.4,0.1c1.2-0.7,0.4-0.5,0.6-1.2
						c-0.1-0.2-0.5-0.6-0.4-0.7c-0.6,0.5-0.7-0.6-1.5,0.1c0-0.2-0.5-0.1-0.2-0.7c-0.6,0.1,0.1,0.4,0,0.7c-1,0.6-2.1-1.2-3.5-0.2
						c-1.1,0.4-1.4,1.2-2.4,1.6c-0.4-0.4,0.2-0.9,0.2-0.9c-0.6-0.4-1-0.2-1.5,0c0.1-0.2,0-0.4-0.1-0.6c-0.4,0.1-0.2,0.9-0.9,0.6
						c0.1-0.2,0.1-0.7,0.4-1c-0.5,0.2-1,0.7-1.5,1c-0.1-0.4,0.2-0.6,0.4-1c-0.6,0.2-1.5,0.5-1.6,1.2l0.4,0.2c-0.2,0-0.1-0.5,0-0.7
						c0.5-0.6,0.7,0.1,0.7,0.4l-0.4,0.2c0.5,1.4,1.4-0.4,2.2-0.4l-0.2,1l0.7-0.9c0.1,0.2,0.2,0.9,0,1c0.5,0.5,0.5-0.4,0.9,0.2
						c0,0.1,0,0.1,0,0.1l0.5-0.4c-0.1,0.2,0.1,0.7-0.2,0.6c0.9,0.6,1.5-0.7,1.7,0l-0.1,0.1c1.2-0.2,0.1-0.7,1.1-1.6
						c0.1,0.6,0.4,1.2,0.5,1.9l0.1-0.7c0.1,0,0.4,0.1,0.2,0.4c0.5-0.5,0-0.4,0.2-0.7c0.5,0.7,1.7-0.1,1.7,1.1
						c0.4-0.5-0.5-0.5,0.2-0.9c-0.1,1.4,0.7-0.1,1.2,0.6c-0.4,0.6-0.7,0.1-0.4,0.9c0.6-1,0.9,0.5,1.4,0.5c0.4-0.9,1,0,1.9,0.1
						c-0.1,0.2,1,1.1,1.1,1.9l-0.1,0.1c0.7-0.6,1.1,0,1.5,0.4c-0.5,0.2-0.7,0.4-1,0.2c0.1,0.1,0.1,0.2,0.2,0.4
						c0.2-0.1,0.5,0,0.7,0.1l-0.6,0.2c0.1,0.2,0.4,0.4,0.6,0.6c0.2,0.2,0.4,0.5,0.1,0.9c0.4,0,0.7-0.1,1.1-0.2
						c0.4-0.1,0.7-0.1,1,0.4c-0.4,0-1,0.1-1.1-0.1c0,0.1,0.2,0.2,0.1,0.4c-0.1-0.1-0.4-0.2-0.6-0.4c-0.2,0.4,0.5,0.2,0.4,0.5
						c-0.5,0-0.4,0.2-0.7,0.1c0-0.1,0.2-0.2,0-0.4c-0.1,0.2-0.4,0.6-0.9,0.6c0.2,0,0.6,0.1,0.6,0.4c-0.1,0.6-0.6,0-1,0.2
						c0.2,0.2-0.1,0.4,0.5,0.7c-0.1,0.1-0.4,0-0.6,0c0.1,0.4-0.6,1.2,0.2,1.4h0.1c0,0,0,0,0,0.1l0,0l0,0c0,0.6-0.5,1-1,1.4
						c-0.5,0.2-1.1,0.5-1.4,0.9l-0.1-0.2c-0.4,0.6-1.1,0.7-1.4,1.4c-0.2,0.1-0.6-0.2-0.6-0.6c-0.4,0.2-0.4,0.6-1.2,0.2
						c0.4-0.5-0.2-0.4,0.4-0.4c-0.6-0.1-0.7-0.5-1.4,0.2c0.1-0.6-0.5-0.7-0.7-0.6l0.4,0.5c-0.4,0.1-0.6,0-0.9,0l0.1-0.9
						c-0.6-0.5-1.1-0.1-1.7,0.1c-0.6,0.2-1.1,0.4-1.4-0.5c-0.5,0.5,0.6,0.5,0.1,1.1c-0.6-0.2-0.9-1.6-1-1.6
						c-0.6-0.7-1.1,0.9-1.9,0.4c0,0.4-0.1,1.1-0.9,1.1c-0.6-0.4-0.2-1.5,0.2-1.5c0.1,0,0.1,0.1,0.1,0.2c0.2,0,0.5,0,0.4-0.4
						l-0.1,0.2c-0.1-0.4-1-0.7-0.6-1.1c-0.6,0.1-0.4,0.4-0.1,0.6c-0.6-0.7-1.2-0.5-2.2-1.1c0.1,0.2,0.1,0.6,0,0.5
						c-1.5-0.7-0.7,0.4-1.9,0.4c-0.6-0.5,0.2-1.1-0.9-0.7c-0.7-0.2-0.2-0.7,0.1-1c-1.2,0.6-2.4,0-3,0.1c0.1-0.1,0.4-0.2,0.5-0.4
						c-0.2,0.2-0.6,0.4-0.9,0.5l0.5,0.4c-0.4,0-0.6,0.1-0.6-0.1c-0.1,0.5,0.6,0.9,0.2,1.5c-0.5-0.1-0.9,0.7-1.2,0.1
						c1.1-0.2-0.5-0.6,0.4-1.1c-0.1,0.1-0.4,0.2-0.6,0.2c-0.1-0.1,0-0.1,0-0.2c-1.1-0.2,0,1-0.9,1.4c0-0.5-0.5-0.7-0.6-0.5
						c0.4-0.1,0.5,0.6,0.2,1c-0.7-0.1-0.5,0.5-0.9,0.6h0.4c0,0.5-0.2,0.5-0.6,0.9c-0.1-0.4,0.2-0.4,0.1-0.5
						c-0.2,0.9-1.2-0.4-1.7,0.4c-0.4-0.2-0.2-0.7-0.6-0.9c-0.5,0.7-1-0.4-1.6,0.4c0.4,0.5,0.4,0.4,0,1.1l1.1-0.7l-0.6,1
						c0.4-0.1,0.7-0.6,1-0.5c-0.2,0.6-0.2,0.4,0.1,0.9c-0.7-0.7-0.9,0.9-1.7,0.4l-0.4-1.5c-1.1-0.4-1.5,1.1-2.7,1l0.5,0.1
						c0,0.6-0.7,0.2-1.1,0.5c0-0.5-0.4-0.6-0.5-0.9c0.1,0.4-0.9,0.1-0.9,1.1l-0.6-0.5c-1-0.1-1,1.6-2,1.5c0.2-0.5-0.2-0.9,0.4-1.4
						c-0.4,0-0.6,0-0.6,0.4c-0.2-0.2-0.9,0.7-1.1,0.4c-0.1,0.2-0.1,0.7-0.5,0.7c0-0.1,0-0.2,0-0.2c0,0.2-0.5,0.4-0.1,0.9
						c-1.1-1.5-2.9,0.2-3.7-1c-0.7,0.2-1.6,0.4-2.2,0.4c0-0.1,0-0.2,0.1-0.2c-0.9-0.5-0.5,1.4-1.6,0.9c-0.5-0.7,0.5-0.4,0.2-0.7
						c-0.1-1.6-1.2,0.2-1.9-0.7l0.1-0.1c-0.5-0.5-1.2,0.6-2.1,0.5c0,0,0-0.1,0-0.2c-0.6,0.9-1.7,1-2.6,1.2c0.2-0.6,0.4-0.4,0.2-1
						c-0.4,0.1,0,1-0.7,1.1c-0.2-0.4-0.7-0.7-0.7-1.4h0.7c-0.2-0.9-0.9,0-1.2-0.2l0.1-0.4c-1,0-1.1,1-2.2,0.9l0.1,0.2
						c-0.7,0.9-0.5-0.6-1.1,0v-1c-0.4,0.1-1.5,0.7-2.4,0.7c0.6-0.6,1.5-0.9,2-1.1c-0.4-0.1-1.2-0.1-1.6,0.2c0.1-0.1,0.4-0.2,0.5-0.1
						c-0.6,0.6-1.4,0.9-2.1,0.6c0.6-1.7-1.9-1-1.7-2.6c-1.5,0.1-2.1-1.4-3.2-2.1c-0.5,1.5-0.4-0.2-1.2,1c-0.4-0.1-0.4-0.2-0.4-0.4
						c-0.1-0.5-0.1-1-0.1-1.4c0.1-0.5,0.5,0,0.6-0.2c-0.4-0.6,0.2-0.6,0.2-1.2c-0.4,0.4-0.7,0.4-0.7-0.1c-0.1,0.2-0.1,0.6-0.1,0.9
						c-1.2-0.2,0.5-1.4-0.6-1.7h0.5c-0.5-0.2-0.7-1.4-2-1.4c0.1-0.1,0.5-0.4,0.6-0.2c-0.1-0.5-0.5-1-0.9-1.6c-0.2-0.5-0.5-1.1,0-1.6
						l0.4,0.1c-0.1-0.2-0.6-0.5-0.2-0.6c0.1,0,0.4,0.1,0.4,0.1c-0.1-0.1-0.5-0.7-0.2-0.9l0.4,0.4c0.4-0.5,0.2-0.9,0.1-1.4
						s-0.4-1.1-0.1-1.6c1,0.5,1.7,0,2.1-0.2l0.1,0.1c0.9-0.9,0.9-2.2,1.7-3.5c0.7,0.2,1.2,0,2-0.4c0.4-0.1,0.6-0.4,1-0.4
						c0.4-0.1,0.7-0.1,1.1-0.1c-0.2-0.1-0.2-0.9,0-1c0.4,0.1,0.6-1,0.9,0h-0.1c0.5,0.9,0.9,0.5,1.4,0.5l-0.1-1.4
						c0.7,0.9,1.6,0.6,2.5,0.5c0.7-0.2,1.6-0.4,1.9,0.5c0.4-0.2,0.7-0.2,1.1-0.5l-0.1,0.7c0.9,0.4,1.2,0.5,2.4,0.6l-0.4,0.4
						c0.6,0.2,1.4-1.7,2-1.6l-0.1,1c1.1,0.4,1.9,1.6,3.2,1.2c-0.1,0.1-0.2,0.4-0.5,0.4c0.5,0.2,1.6,1.6,2.1,0.2
						c-0.2,0.4,0,0.6,0.5,0.6c0.6,0.2,1.5,0.4,2,0.4l-0.2,0.6c1-0.5,1-0.7,2-0.4c0.2,0.2,0.2,0.9-0.1,0.4c0.9,1,0.5-0.5,1.5,0.6
						c0,0.1-0.1,0.2-0.2,0.4c0.7,0.5,0.7,0.4,0.7-0.4c0-0.1,0-0.2,0-0.4c0-0.9,0.7-1.4,1.1-0.9c-0.1-0.6-0.4-1.6,0-2
						c0.2,0.1,0.2,0.5,0.2,0.6c0.5-0.6,0.6-1.4,0.7-1.9c0.1-0.5,0.1-0.7,0.6-0.7c0.1,0.1,0.2,0.1,0.4,0.1c-0.2,0.2-0.5,0.5-0.6,0.7
						c-0.2,0.4-0.4,0.5-0.4,0.5c0.2,0.2,0.5,0.1,0.7,0.1s0.5,0,0.6,0.7c0-0.1,0-0.4,0.1-0.5c0-0.2,0-0.2,0-0.4
						c0-0.2-0.1-0.4-0.1-0.6c0-0.4,0-0.9,0.4-0.9c0,0,0.1,0,0.2,0.1V15c0.1,0,0.1-0.1,0.1-0.4c0.2,0,0.4-0.1,0.5-0.2
						c0.4,0.4,0.6-0.2,0.9-0.4c-0.5-0.5-0.1-0.7-0.7-0.9c0.1,0,0,0.1-0.1,0.2v0.1v-0.1c-0.1,0.1-0.4,0.4-0.5,0.5
						c-0.1-0.4-0.1-0.9,0.4-0.7c-0.1-0.5-0.4-0.9-0.4-1.1c1,0.5,1.9,0.5,2.2,1c0.5-0.9,1.6-1.1,1.7-2.6c0.2-0.2,0.4,0.2,0.6,0.5
						c-0.1,0.1-0.2,0.2-0.2,0.4c0.4-0.5,1.4-0.5,1.4-1.4c0.7,0.4-0.2,0.9,0.6,0.6l-0.1,0.2c0.9,0.6,1.5,0.1,2.4-0.4
						c0.7-0.5,1.9-0.7,2.5,0.5c-0.1-0.1-0.1-0.2-0.1-0.4c1,0.7,2.1,1,3.2,1.6c1.1,0.5,2.1,1.4,2.1,2.6c0.1,0.6,0.6,0.4,1.2,0.5
						l-0.6,0.5c0.4,0,0.7,0.1,1.1,0.2c0.5,0.4,0.1,1-0.1,1.4c-0.2,0.5-0.5,0.9,0,1.4l0.5-0.1c0,0.4,0.2,1.4-0.4,1.1
						c0.1,0,0.5,0.2,0.2,0.4l-0.4-0.1c0.1,0.4,0.2,0.7,0.2,1.1c-0.2,0.2-0.6,0-1-0.2c-0.4-0.2-0.6-0.4-0.9-0.1c0,0.1,0,0.5,0.1,0.7
						c0,0.4,0,0.7,0.1,0.7c0.1-0.1,0.5,0,0.7,0.2l-0.2,0.4c0.2,0.5,0.5,1.1,0.7,1.6c0.2,0.5,0.7,0.7,1.9,0.5c0.1-0.5,0.4-1,0.4-1.4
						c0.2,0,0.5,0,0.6,0c-0.2,0.4-0.5,0.6-0.7,0.9c0.9-0.1,0.7-0.7,0.7-1.2c0.4,0.1,0.6,0,0.7-0.1c-0.1-0.6-0.2-1.1-0.5-1.6
						c0.5,0,0.6,0.9,1.1,0.1c-0.4-0.7-1.1,0.1-1.2-0.7c0.6-0.4,1-0.1,0.7-0.9c0.4,0,0.5,0.1,0.6,0.4c-0.2-0.6,0-1.6-0.6-1.9
						c0.6-0.6-0.4-1.7,0.7-1.9c-0.2-0.1-1-0.7-1.2-1.1c0.7,0.2,0.6-0.2,0.5-0.7s-0.4-1.1,0.4-1.2c-0.7-0.1-1-0.5-1.5-1.1
						c-0.4-0.5-0.9-1.1-1.5-1.4c0.1,0,0.4,0,0.4,0.1c-0.4-0.5-0.2-1-0.4-1.4c-0.7,0.6-1.6,0.1-2.4,0.4c0-1.2,1.1-0.6,1.5-1.5
						c-0.5,0.6-1.5-0.2-1.7,0.5c-0.1-0.7-0.2-0.5,0-1.4c-0.7,1-0.6-0.1-1.4,0.2c-0.4-0.9,0.4-1.1-0.6-1.1c-0.1-0.2,0-0.4,0.2-0.5
						C521.3,6.8,521.6,6.8,521.6,6.8z M502.4,12.1L502.4,12.1c0.1-0.1,0.1-0.2,0.2-0.4C502.5,11.9,502.5,12,502.4,12.1z M501.4,13.5
						c0.1-0.1,0.2-0.4,0.5-0.5c0.2,0.1,0.4,0.4,0.2,0.4C502,13.1,501.7,13.3,501.4,13.5z M506.9,14.5c-0.1,0.2-0.2,0.1-0.4,0
						c0-0.1,0.1-0.1,0.1-0.2c0,0,0,0,0-0.1C506.9,14.2,506.9,14.3,506.9,14.5z"/>
					<path class="st0" d="M506.6,13.6C506.6,13.5,506.6,13.5,506.6,13.6c0-0.1-0.1-0.1-0.1-0.1C506.5,13.5,506.5,13.6,506.6,13.6
						L506.6,13.6z"/>
					<path class="st0" d="M542.7,32.1L542.7,32.1C542.7,32.1,542.9,32.1,542.7,32.1C542.9,32.3,542.9,32.1,542.7,32.1z"/>
					<polygon class="st0" points="486.4,9 486.4,9.2 486.5,9.1 					"/>
					<path class="st0" d="M544.8,24.4c0,0,0-0.1,0-0.2C544.8,24.2,544.8,24.3,544.8,24.4z"/>
					<path class="st0" d="M541.7,21.7c-0.1-0.1-0.2-0.4-0.4-0.5C541.5,21.4,541.6,21.6,541.7,21.7z"/>
					<path class="st0" d="M539.1,20.2c-0.1,0.1-0.1,0.2-0.1,0.2l0,0L539.1,20.2z"/>
					<path class="st0" d="M518.2,38.5L518.2,38.5C518,38.7,518.1,38.6,518.2,38.5z"/>
					<path class="st0" d="M528.9,36.5c-0.1,0.1-0.4,0.1-0.5,0.1C528.7,36.7,528.8,36.9,528.9,36.5z"/>
					<path class="st0" d="M503.8,42.6L503.8,42.6L503.8,42.6L503.8,42.6z"/>
					<path class="st0" d="M527.8,36.4c0.1,0.2,0.4,0.2,0.6,0.2C528.3,36.5,528,36.4,527.8,36.4z"/>
					<path class="st0" d="M526.7,19.2h-0.1v0.1L526.7,19.2z"/>
					<path class="st0" d="M526.6,19.3l-0.1,0.1C526.6,19.4,526.6,19.4,526.6,19.3z"/>
					<path class="st0" d="M526.2,19.6l0.2-0.2C526.3,19.4,526.2,19.4,526.2,19.6z"/>
					<path class="st0" d="M530.5,19.3v-0.2C530.5,19.1,530.5,19.2,530.5,19.3z"/>
					<path class="st0" d="M531.7,19.2c-0.2-0.1-0.6-0.5-1.1-0.4v0.2C530.7,18.7,531.4,19.7,531.7,19.2z"/>
					<path class="st0" d="M535.9,22.7l-0.9-0.4c0.1,0.2,0.2,0.6-0.1,0.7C535.9,24,534.9,22.4,535.9,22.7z"/>
					<path class="st0" d="M538.4,23.7c-0.5,0-0.1,0.4-0.1,0.5C538.5,24,538.6,23.9,538.4,23.7z"/>
					<path class="st0" d="M538.1,34.8l-0.1-0.6C537.8,34.3,538.1,34.4,538.1,34.8z"/>
					<polygon class="st0" points="534.5,38.4 535,38.7 535.1,38.2 					"/>
					<path class="st0" d="M532.9,33.5l0.1-0.1c-0.1,0-0.4,0.1-0.6,0.1C532.7,33.6,532.8,33.6,532.9,33.5z"/>
					<path class="st0" d="M499.3,36.7l0.1,0.7C499.8,37.4,499.8,36.5,499.3,36.7z"/>
					<path class="st0" d="M484.9,37.1c-0.1-0.4-0.5-0.7-0.7-0.4C484.5,36.9,484.7,37.2,484.9,37.1z"/>
					<path class="st0" d="M482.4,15.2c-0.1,0.1-0.1,0.2-0.2,0.2c0.1-0.1,0.2-0.1,0.5-0.2H482.4z"/>
				</g>
			</g>
		</g>
	</g>
</g>
</svg>
