<?xml version="1.0" encoding="utf-8"?>
<!-- Generator: Adobe Illustrator 23.0.5, SVG Export Plug-In . SVG Version: 6.00 Build 0)  -->
<svg version="1.1" id="Capa_1" xmlns="http://www.w3.org/2000/svg" xmlns:xlink="http://www.w3.org/1999/xlink" x="0px" y="0px"
	 viewBox="0 0 703 611.1" style="enable-background:new 0 0 703 611.1;" xml:space="preserve">
<style type="text/css">
	.st0{fill:#FFFFFF;}
	.st1{fill:none;stroke:#FFFFFF;stroke-width:0;stroke-linecap:round;stroke-linejoin:round;}
	.st2{opacity:0.48;}
</style>
<g>
	<g>
		<g>
			<g>
				<path class="st0" d="M398.6,381.7c-0.6,0.2-0.1,0.2,0.1,0.4L398.6,381.7z"/>
				<path class="st0" d="M398.7,382.1v0.2C398.9,382.2,398.7,382.1,398.7,382.1z"/>
				<path class="st0" d="M399.6,384c-0.7-0.1-0.5-1-1.2-0.7C398.2,383.9,398.9,384.4,399.6,384z"/>
				<polygon class="st0" points="399.6,383.2 399.2,383.3 400,383.3 				"/>
				<polygon class="st0" points="399.7,382.7 399.6,382.8 400.3,383 				"/>
				<path class="st0" d="M400.3,385.5l-0.4-0.4c0.2-0.7,0.9-0.2,1-0.7c-0.4-0.5-1.1,0.5-1.4-0.2c-0.4,0.4,0.7,1,0,1.4
					C399.6,386.5,399.8,385.5,400.3,385.5z"/>
				<path class="st0" d="M426.9,413.4c0,0.1,0,0.2,0,0.4c0-0.1,0.1-0.1,0.1-0.2L426.9,413.4z"/>
				<path class="st0" d="M417.3,404c0-0.1,0-0.2,0-0.4C417.1,403.7,417.1,403.8,417.3,404z"/>
				<path class="st0" d="M445,448.1c0,0-0.1,0-0.2,0.1l0,0L445,448.1L445,448.1z"/>
				<path class="st0" d="M433.3,420.1c0.1,0.1,0.1,0.2,0.2,0.2C433.4,420.1,433.4,420.1,433.3,420.1z"/>
				<path class="st0" d="M426.2,410.6c0,0.1,0,0.2,0.1,0.2C426.4,410.7,426.4,410.7,426.2,410.6z"/>
				<path class="st0" d="M404,392.4c0,0.1,0.1,0.2,0.2,0.2C404.2,392.4,404.2,392.4,404,392.4z"/>
				<path class="st0" d="M405.7,394.6L405.7,394.6C405.6,394.7,405.7,394.7,405.7,394.6z"/>
				<path class="st0" d="M404.2,392.6c-0.1,0.4-1,1.1,0.1,0.6l0.1-0.1c-0.1,0.4,0.5,0.2,0.6,0.4c0.1-0.1,0.1-0.1,0.2-0.2
					c0-0.1-0.1-0.2-0.1-0.5C405.1,392.4,404.6,392.6,404.2,392.6z"/>
				<path class="st0" d="M421.4,407.2C421.6,407.1,421.4,406.9,421.4,407.2L421.4,407.2z"/>
				<path class="st0" d="M419.1,405.7c0,0.1,0.1,0.1,0.1,0.2C419.3,405.8,419.3,405.8,419.1,405.7z"/>
				<path class="st0" d="M413.9,397.9L413.9,397.9C414,397.9,413.9,397.7,413.9,397.9z"/>
				<path class="st0" d="M419.4,406.2c0,0-0.1-0.1-0.1-0.2C419.3,406.1,419.3,406.1,419.4,406.2z"/>
				<path class="st0" d="M464.7,482.2c-0.2-0.1,0-0.4,0-0.6c-0.9,0.1,0.5,0.7-0.5,0.6c0.1,0.1,0.2,0.2,0.5,0.2l0.5-0.6
					C464.7,481.7,465.1,482.2,464.7,482.2z"/>
				<path class="st0" d="M445.1,451L445.1,451c-0.2,0.1-0.4,0.1-0.4,0.5c0.6-0.1,1-0.9,1.7-0.9c-0.1,0-0.1-0.1-0.1-0.4
					C446.1,450.9,445.6,451,445.1,451z"/>
				<path class="st0" d="M446.4,450.4L446.4,450.4c0.1-0.1,0.1-0.1,0.1-0.2c0,0,0-0.1,0-0.2C446.4,450.1,446.4,450.2,446.4,450.4z"
					/>
				<path class="st0" d="M461.2,476.9c0-0.1,0-0.1,0-0.2C461.1,476.9,461.2,476.9,461.2,476.9z"/>
				<path class="st0" d="M425,425.2c-0.1,0-0.2,0-0.4,0C424.9,425.4,425,425.4,425,425.2z"/>
				<path class="st0" d="M443.2,446.9c0-0.1,0-0.1,0-0.2c0,0-0.1,0-0.1-0.1L443.2,446.9z"/>
				<path class="st0" d="M458,454.9c-0.7,0.4,0.1,0-0.1,0.6h0.5C458.3,455.1,458.1,455,458,454.9z"/>
				<path class="st0" d="M445.6,448.8l-0.6-1v0.4C445.5,448,445.1,448.9,445.6,448.8z"/>
				<path class="st0" d="M455.5,450.6l0.4-0.4c-1.6-0.2-1-2.2-2.9-2.1c0.7-2.2-1.9,0.2-1.2-1.7l-0.1,0.2c-2.2-3.6-4-7.7-7-10.3
					l0.4-0.2c-3.1-5.5-7.3-10-10.7-15.2c-0.6-0.2-1.1,0.5-1.7,0.4c-0.1-0.2-0.4-0.6,0-0.9c0.5,0.2,0.6-0.2,0.9-0.2
					c-0.5-0.5-0.5-1.6-1.4-1.7l-0.1,0.7c-0.4,0-0.4-0.5-0.5-0.6c0.2-0.1,0.6-0.7,0.9-0.6c-2-0.2-0.1-1.2-1.2-1.7
					c-1.1,0.5-2.7,0-4.1-0.2v-0.6c0.4,0.5,0.7-0.5,1.1,0.1c-0.1-0.7-0.9-1-1.1-1.6c-0.1,0.2-0.5,0.5-0.7,0.4
					c-0.1-0.4,0.4-0.9,0.2-1.2l0.6,0.1c0.2-0.5-0.5-0.4-0.6-0.5c0.4-0.4,0.1-1,0.6-1.2c-0.9,0-0.7-0.5-1.5-0.7c0,0.9-0.6,0.2-1,0.6
					l0.6,0.5c-0.4-1,0.2,0.2,1-0.4c0,0.6-1.6,0.4-1,0.9c-1-0.5-0.7-1-1.9-1.4c0.5,0.4-0.5,0.2-0.6,0.6c-0.5-0.6,0.1-0.4,0.5-0.9
					c-0.2-0.4,0-0.7-0.7-0.6c-0.1-0.7,0.6-0.4,0.7-0.7c0.6-0.1,0.5,2,2,0.6c0.2,0.2,1.1,0.2,1.4,0.6c0-0.5,0.1-1.4-0.6-1.6l-0.9,0.6
					c-0.2-0.4-1,0-1-0.2c0.4,0,0.6-0.6,0.2-0.7c-0.1,0.1,0,0.2-0.1,0.4c-0.5-0.5-1.1-0.1-1.7-0.6c0.1,0.6-0.1,1-0.1,1.7
					c-0.7,0.4-0.4-0.2-0.6-0.5c0.1,0,0.1,0,0.2-0.1l-0.5-0.1c-0.1-0.9,1-0.6,0.9-1.2c0.2-0.7-0.6-0.2-0.5-0.7l-0.1,0.1v-0.1l0,0
					c-0.4-0.2-0.5-0.6-1.1-0.4c0.1-0.2-0.2-0.2-0.5-0.2c-0.4,0-1.2-0.1-0.6-0.9l0,0c-0.2-0.5-0.2-1,0.1-1l-0.2-0.7l0.6-0.4
					c-0.6-0.5-0.9-0.1-1.9-0.1c0-0.7-0.7-1.2-1.2-1.4c0,0,0-0.1-0.1-0.2v0.4c-0.4-0.5-0.6-0.2-0.9-0.5c0,0.1,0,0.1,0-0.1
					c0,0,0-0.1-0.1-0.2c0.1,0,0.1,0,0.1,0.1l0.1-0.2c0.4-0.9-0.7-0.4-0.9-0.9c0,0,0.1,0,0.1,0.1c0-0.4,0.6-1.2,0-1
					c0-0.1-0.1-0.1-0.4-0.1v-0.2c0,0.1,0,0.1,0,0.2c-0.2,0-0.5,0.1-0.4,0l-0.4-0.6c0-0.1-0.1-0.2-0.4-0.4l0.1-0.2
					c-0.1-0.2,0-0.2,0-0.4c0.4-1.4-1.2-0.9-1.1-2.1c-0.5,0.1-0.5,0.6-0.7,0.9c-0.4,0.1-1-0.1-1.4-0.2c0.4-0.7,0.1-2.2,1-2.6
					c-0.4-0.7-0.4,0.6-0.9,0.5V394c0,0.2-0.1,0.6-0.4,1c-0.4,0.4-1-0.1-1-0.4l0.7-0.4c-0.6-0.4-1.5,0.4-2.5,0.5
					c-0.1-0.6,0.7-0.9,1.2-1.4l-0.5-0.4l0.5-0.4c-0.4-0.2-0.9,0-1-0.6c0.7,0,0-1,0.9-1c0-0.4-1,0.2-0.5-0.4
					c-0.6,0.2-0.1,0.4-0.1,0.6c-0.6,0.6-0.7-0.2-1.1-0.5c0.4-0.2,0.6-0.1,0.6-0.6c-0.4,0.1-0.7,0.1-0.5-0.4
					c-0.5,0.4-0.4-0.4-0.5-0.6c0,0.2,0,0.9-0.6,1c-0.4,0-0.5-0.1-0.7-0.6v0.4c-1,0.1,0.1-1-0.5-1.2c0.5,0,0.5,0.1,1,0
					c-0.4,0-1.1-0.2-1.5-0.4l0.4-0.9c-0.4,0.2-0.2-0.5-0.7-0.1c0-0.7,0.9,0,1.2-0.2c-0.1-0.9-1.2,0.1-0.9-1l0.6-0.1
					c-0.1-0.2-0.6-0.4-0.5-0.6c-0.1,0.1,0,0.1,0,0.2c-1.1,0.6-1.4-0.4-2.4,0.4l0.1,0.4c-0.5-0.2-1.4-0.1-1.2-0.6s0.7-0.4,1.2-0.4
					c-0.2-0.5-1.4,0.5-1.6-0.1c0,0.4-0.4,0.6-0.7,0.6c0.1,0.4,0.4,1,0.7,0.6v-0.1c0.2-0.1,0.5-0.1,0.6-0.1c0.2,0.4-0.4,0.5-0.5,0.7
					c0.2,0.7,1-0.6,1.4-0.1L402,387c0.5,0.1,0.7,0.5,1.5,0.1c-0.5,0.7,0.7,0.5,0.5,1c-1.4,1.1-0.6-1-1.6-0.9
					c-0.1,0.5-0.7,0.4-1.2,0.4l1.2,0.5c-0.1,0.2-0.6,1,0,0.9v-0.1c0.5,0.2,1-0.2,1,0.2c-0.1,0.1-0.4,0.2-0.5,0.2
					c0.1,0.4,0.5,0,0.7,0.1c0.1,0.4-0.7,0.2-0.6,0.6c0.7,0,0.2,0.6,0.5,1c0.7-0.7,2,0.4,2.2-0.7l1.1,0.4c-0.2,0.5-1.5,0.4-2,1
					l-0.4-0.6c-1,0.9,1.5,0.7,0.6,2c0.1,0.4,0.2,0.1,0.1,1.1l0.9-0.7c0,0.5-0.4,0.9-0.6,1c0.1,0.1,0.2,0.4,0.4,0.5
					c-0.1,0-0.4,0.1-0.5,0c-0.4,0.6-0.1,0.5,0.2,0.4c0.4,0,0.4,0.1,0.5,0.4l-0.5,0.1c0.1,0,0.4,0.1,0.5,0c0,0.1,0.1,0.1,0.2,0.1
					c0.1-0.1,0.6-0.6,0.6-1.1c0.1,1,0.7,1.4,0.4,2.5c-0.2,0.1-0.7,0.1-0.7,0.2c0.1,0.4,0.7,0.4,1.1,0.1c0.1,0,0.1,0.1,0.1,0.1
					c-0.1,0.2-0.4,0.5-0.4,0.6s-0.1,0.2,0,0.4c0.7-0.4,0.9,0.4,1.2,0.4c0-0.2-0.1-0.4-0.2-0.5c0.6-0.1,1.4-0.2,1.1,0.2
					c-0.7-0.1-0.4,1-1.1,0.5c-0.6,1.1,0.9-0.2,0.9,0.5l-0.1,0.6c-0.6,0.4-0.6-0.4-0.7-0.1l0.2,0.1c-0.6,0-0.9-1-1.9-1.1l0.5,1.2
					c1.6,0.9,2,3.1,4,3.4l0,0c0,0,0.1-0.1,0.4-0.2l-0.1,0.1h0.6c-0.4,0.6,0,1.1-0.1,1.9c0.1-0.5,0.1-0.5,0.5-0.7
					c0.6-0.4,0.7-0.5,0.9,0.1c-0.4,0.2-0.5,0-0.6,0.5c0.1-0.2,0.5-0.4,0.6-0.2c-0.1,0.4,0.1,0.7-0.2,1c-0.1,0-0.1-0.2-0.1-0.2
					c-0.1,0,0,0.6-0.6,0.6l0.4,0.4c-0.1,0.5-0.6,0.2-0.7,0.4c0.7,0.5,1.9,0.1,2.5,0.6c-0.2,0.1-1,0.7-0.7,0.5c0.1,0.6,1.6,0.4,2,0.7
					c-0.2,0.1-0.4-0.1-0.6-0.2c0.7,1.7,1.7,3.1,2,5.1l1.1-0.2l-0.2,0.7c0.6,1.9,2,2.7,3.2,4c0.4,0.4-0.4,0.7-0.5,1.1
					c0.6,1.1,1.7,0.6,2.6,1.5c-0.4,0-1.2,0.4-1,0.7c0.2-0.1,0.7-0.4,0.7,0h-0.4c-0.2,0.5,0.4,0.5,0.5,1.1c0.6,0.9,1.9,1.2,3.2,1.2
					c0.5,0.9-1,0.6-1.1,0.9c-0.1-0.7-0.4-0.2-0.7-0.1c0.5,0.1,0.9,0.4,0.4,1c0.4,0.4,0.4,0.6,1.1,0.6c-0.4,0-0.1-0.5,0.2-0.5
					c0,0.5,0.9,1.1,0,1.6c1.5,1.7,2.9,4,4.4,6c0.6,0,0-0.4,0.4-0.4c0.9,0.1,0,0.6,0.7,0.6l-0.5,0.1c0.4,0.6,1.6,0.7,2.4,1
					c-0.5,0.2,0,0.7-0.6,0.5c0.2,0.2-1.6,2.1-1,2l1.7-1.7c0.2-0.1,0.4,0.4,0.5,0.2c-0.2,0.5-0.5,1.1-0.4,1.2c-0.5,0.4-0.6,0-0.7-0.2
					c-0.9,0.6,0,1.1-1,1.4c0.5,0.4,0.4-0.4,0.9-0.2l0.1,0.6v-0.5c0.5,0.2,1.2-0.1,1.1,0.6l1.1-0.1c-0.6,0.5,0.1,0.5,0.1,0.9
					l-0.5,0.1c0.2,0.4,0.2,0.5,0.1,0.9c-0.7,0.2-0.1-0.4-0.6-0.1l0.1,0.5c0.4-0.2,0.9-0.2,0.9-0.6c1-0.1,1.6-0.4,2.2,0.5
					c-0.4,0.9-0.9,0-1.4,0.6c0.4,1.1,2.5-0.1,2.7,0.5c0.2,0.9,0.7,0.4,1.4,1c-0.6,0.1-0.1,0.9-0.5,1.2h-0.6c0.2,0.1,0.2,0.4-0.1,0.6
					c0.6-0.5,1.2,0.5,1.9,0.7l0.5-0.4c0.5,0.2,1.1,0.5,1.2,1c0.6,0.5,0.9,0,1.7,0.1c-0.2,0.6-0.9,0.9-1.4,1.2
					c0.1-0.4-0.2-0.5-0.2-0.9c-1-0.4-2.4-0.2-2.7-1.1c-1.4,0.5,0.5,0.4,0.4,1c-0.1,0-0.1,0-0.1,0s0,0,0,0.1
					c-0.4-0.1-0.9-0.5-1.5-0.1c0.5,0.4,1.4-0.5,1.2,0.4c0.6,0.1-0.1,1.1,0,1.5c0.6,0,1.6-0.7,1.9,0l-0.9,0.2
					c0.5,0.7,1.2-0.4,1.7,0.4c-0.1-0.2,0.9-0.2,0.5-0.7c0.5,0,1,0.4,1,1c0.1,0,0.2-0.1,0.5-0.2c0.1-0.7-1-0.4-0.5-1.1l-1,0.2
					c0-0.6,0.5-1,1-1c-0.1-0.1-0.2-0.1-0.2-0.2c1-0.9,0,0.7,1,0.2l-0.2-0.2c0.6-0.6,1.1,0.2,1.2,0.6c0,0.6,0.1,1.1-0.4,1.5l-0.6-0.4
					c-0.2,0.6,0.7,0.5,1,0.9c0,0.1-0.1,0.1-0.1,0.2l0.1-0.1c0,0.1,0,0.2-0.1,0.4c0.1,0.2,0.7,0.5,0.7,0.9l0.5-0.4l-0.2,0.1
					c-0.1-0.2-0.1-0.9,0.4-0.9c0.7,0.4-0.1,1.1-0.4,1.5c-0.7,0.4-0.4-0.6-0.9-0.6c-0.6,0.6,0.4,0.6,0.2,1.5c-1,0.4-0.5-0.6-1.2-0.4
					c0.2,0.6,0.9,0.2,1,1c-0.4,0.2-0.7-0.2-1.2,0.1v0.5c-0.6-0.7-0.9,0.9-1.5,0.4c-0.1,0.5,0.9,0,0.7,0.7c0.2-0.4,0.6-1.1,1.2-1
					l0.1,0.6c-0.2,0.5-1.1,0.1-1.2,0.6l0.6,0.2c0.2-0.1,0.1-0.5,0.6-0.6c0,0.5,1.2-0.2,1.7-0.1c0.1,0.2,0.2,0.5,0,0.7
					c1.1,0.1,1.7,1,2.7,1.1c-0.7-0.1-0.7,0.6-1,1c-0.4-0.4-1.1,0.1-1.6,0.5c0.2,0.2,1.1-0.1,1.2-0.4c0,0.6,0.7,0,0.5,0.7
					c0,0.5-0.7,0.4-1,0.6c0.4,0.5,1-0.5,1.2,0.2c-0.1,0-0.1,0-0.2,0.1c0,0.4,0.6,0.5,1,0.2c-0.7,1,0.7,0.9-0.2,1.4
					c0.7,0.5,0.4-0.5,0.9-0.5c0.6,0,0.6,0.7,0.6,1c-0.1-0.1-0.5-0.1-0.5-0.4l-0.5,0.6c0.1,1.2,1.9-0.5,1.9,0.7
					c-0.6-0.2-0.6,0.2-1.2,0.2c0.2,0,0.6,0.9,0.7,0c0.1,0.4,0.2,0.6,0.2,1c0.5,0.1,0.9,0.2,1.4,0.1c0.2,0.5,0,1.1-0.1,1.6
					c1.1,0.6,1,2.1,2.2,2.7V468c0.5,0.9,0.6-1,1.1-0.1c-0.9,0.5-0.1,0.9-0.4,1.4c0.4,1.2,1.7,1.2,1.9,2.6c-0.1,0.1-0.4,0.2-0.5,0
					c0.2,0.9,0.7,1.4,1.2,2h-0.1c0.1,1.5,1.5,1.9,2.5,2.7c-0.1,0-0.5,0.1-0.6,0.2c0.2,0.6,0.7,1.6,1.6,1.5c-0.4,1.1,0.5,0.2,0.4,1.6
					c-0.1,0.1-0.1,0-0.2,0c0,0.6,0.4,0.7,0.5,1.2c1.1,0.5,2.2,0,2.7,1.2c-1,0.9-0.7-0.4-1.6,0.1c0.4,0.1,0.6,0.1,0.6,0.6
					c-0.5,0.1-0.2,0.1-0.7,0.4c-0.1,0.4,1.7,0.1,1.6,0.1c0.2-0.1,0.2-0.2,0.1-0.5c0.9-0.2,0.7,1,1.4,1.2c-0.1-0.1-0.2-0.9,0.4-1
					c0.2,0.9,1.4,0.4,2.2,0.5c0,1-1.2,0.2-1.9,0.9c-0.2,0.2-0.6,1-1.1,0.9c0.2,0.6,1.1,0.6,1.6,1l-0.2,0.1c0.6,0.6,2,0.7,2,1.6V488
					c0.2,0,0.4,0.4,1,0.2c-0.4,0.2-0.4,0.9-0.7,0.9c1.4-0.5,1.7,1.1,3.1,0.6c-0.1,0.4-0.7,0.6-1,0.6c-0.2-0.5-0.1-0.9-0.7-0.7
					c0.2,0.4,0.1,0.9-0.1,1c1-0.1,1.9,0.5,2.6,0.2c-0.1,0.5-0.1,0.9-0.7,1.2c1.1,0.9,1.4-1.9,2.2-0.6c-0.1,1-1.1,0-0.7,0.9l-0.2-0.1
					c-1.1,1.6,1.4-0.4,1.7,0.4c-0.7,0.6-0.9,0-1.1,0.9c0.6,0.4,2-0.1,2.1,0.6l-0.4,0.1c0.4,0.4,0.7,1.2,1,1.5c-0.1,0.1-0.1,0-0.2,0
					c0.1,0.9,0.6,0,0.5,1l0.5-0.1c0.1-0.5,0.1-1.4-0.6-1.4c0.7,0,0.6-1.2,1.4-1.6l-0.4,0.1c0.5-1.7-0.2-3.1-0.6-4.6
					c-1.4-0.1-0.6-1.5-1.7-1.9c-1,0.5-0.2,0-1-0.6c0.4,0.2,0.7-0.5,0.7-0.7c-0.4,0-0.5,0-0.7-0.1c0.2-0.4,0.4-1.7-0.5-1.6
					c0-0.6,0.4-0.1,0.6-0.1c0.4-0.5-0.6-0.1-0.4-0.5h0.1c-0.5-0.6-0.5-1.2-0.9-2c-1,0.6-0.9-0.4-1.4-0.5c0.4-0.1,0.1-0.6,0.1-1
					l-1,0.1c-0.9,0,0-0.7-0.6-1l-0.1,0.2c-0.5-0.1-0.6-1.4-0.4-2.1c-4-1.9-2.5-5.6-5.2-8.5c-0.5,0-0.4,0.5-0.9,0.6
					c-0.4-0.2-0.4-0.4-0.6-0.6c0,0.5,0.2,0.2,0,0.4l0.6,0.2c0,0.1-0.1,0-0.2,0.1c0.2,0.1,0.5,0.1,0.6,0.4c-0.5-0.1-1.2,0.2-1.2-0.2
					c0.1,0,0.1,0,0.4,0c-0.1-0.4-0.5-0.1-0.5-0.5c0-0.4-0.2-0.2,0-0.4l-0.2-1.2c-1.1,0.1-0.7-1-0.7-1.2c0.6-0.4,0.6,0.5,1.4,0.2
					l0.2-0.6l-0.5,0.4l-0.2-0.6h0.1c-0.2,0.1-0.5,0.1-0.4-0.1c0-0.1,0.1-0.2,0.2-0.1l-0.5-0.1c0.6-0.1,0-0.4,0.6-0.7
					c-0.5-1.4-1.7-0.9-1.7-2.4c-0.1,0.4-1.1,0.4-1.2,0c0-0.2,0.1-0.4,0.4-0.5l-0.6-0.1c0.6-1.1-0.4-1.2-0.6-2.1l0.2-0.1
					c-0.5,0-1-0.1-1.1-0.6l0.6-0.2c0-0.7-1.4,0.4-1.4-0.4c-0.5,0.4-0.6,1-1.1,1.4c0.5-0.5,0.1-1.1-0.1-0.7c-0.6-0.4-0.2-0.4-0.1-0.5
					l-0.6-0.1c-0.2-0.4,0.6-0.6,1.1-0.7c-0.9,0.1-0.7-0.6-0.9-1.1h0.4l-0.2-0.6c-0.6,0-1.1-0.5-1.1-1.1l1-0.2c0.1-0.6-0.4,0-0.5,0
					c-0.7-0.2-0.2-0.7,0-1.2C455.7,452.7,457.1,450.5,455.5,450.6z M413.7,398.2v0.1C413.4,398.4,413.2,398.4,413.7,398.2z
					 M416.5,402.7c-0.6-0.4-0.2-0.4,0-0.6c0.1,0.6,0.6,0.7,0.7,1.4c0.1-0.1,0.2-0.4,0.4-0.5c0.1,0.2,0,0.5-0.2,0.9
					C416.5,404.2,416.9,402.2,416.5,402.7z M405.9,395.5c0,0,0.1,0,0.2,0l0,0H405.9z M408.4,397.6c-0.1,0.1-0.1,0.2-0.1,0.4
					C408.4,397.9,408.6,397.7,408.4,397.6z M411.3,403.5c-0.2,0.4,0,0.5,0.2,0.6C411.5,404.1,411.4,403.8,411.3,403.5z M434.8,435.7
					c-0.2-0.1-0.7-0.1-0.7,0.2c0.4,0,0.1,0.5,0.6,0.4l0,0C434.7,435.9,434.8,435.7,434.8,435.7z M448.3,449.1
					c-0.4,0.2-0.7,0.4-0.9,0.5l0,0c-0.1,0.1-0.1,0.2-0.2,0.2c0,0.1,0,0.4,0.2,0.4C448.4,449.5,448.6,449.8,448.3,449.1z"/>
				<path class="st0" d="M440.5,446.9l0.1,0.1C440.7,447,440.7,447,440.5,446.9z"/>
				<path class="st0" d="M447.3,450.1c0.1,0,0-0.2,0-0.5C447.3,449.8,447.3,450,447.3,450.1z"/>
				<path class="st0" d="M403.2,384.8l0.2,0.1l0.1-0.5c-0.6-0.2-1.1,0-1.7,0.2c0.7,0.1,0.7,0.6,1.2,1L403.2,384.8z"/>
				<path class="st0" d="M400.2,387.4c-0.1,0.1-0.4,0.5-0.4,0.6l0.4-0.1V387.4z"/>
				<path class="st0" d="M403.1,394.4l-0.1-0.6C402.6,393.8,402.6,394.6,403.1,394.4z"/>
				<path class="st0" d="M406.7,388.5h-0.5c-0.1,0.4,0.1,0.7,0.5,0.5C406.3,388.9,406.8,388.8,406.7,388.5z"/>
				<path class="st0" d="M403.8,395.7c0.7-0.2,0.1,0.6,0.7,0.4C404.3,396,404.5,395.2,403.8,395.7z"/>
				<path class="st0" d="M409.2,391.4c0.5-0.5-0.2-0.5-0.4-0.9C409.1,390.8,408.8,391.5,409.2,391.4z"/>
				<path class="st0" d="M407.4,397.1c-0.5,0.2-0.5,0-0.6-0.2c0.1,0,0.4-0.1,0.5,0c-0.6-0.1-0.5-0.2-1-0.4c-0.1,0.5,0,1.1-0.5,1.5
					C406.4,397.7,407.2,397.6,407.4,397.1z"/>
				<path class="st0" d="M409.8,392c0-0.4,0.2-0.7,0-1.1c-0.2,0.2-0.6,0.6-0.2,1l-0.6,0.2C408.8,392.8,409.6,391.5,409.8,392z"/>
				<path class="st0" d="M407.3,399.2l0.1-0.4c-0.6-0.1-0.7-0.6-1.5-0.4C406.2,399,406.8,399.2,407.3,399.2z"/>
				<path class="st0" d="M409.8,393.9l0.7-0.5c-0.1-0.4-0.2,0.2-0.5,0.1c0-0.1,0-0.4-0.2-0.4C410.2,393.6,409.3,393.8,409.8,393.9z"
					/>
				<path class="st0" d="M411.4,394.5l0.6,0.2l0.5-0.9C411.9,393.5,412,394.1,411.4,394.5z"/>
				<path class="st0" d="M411.3,395.4l-0.1,0.1h1.5C412,395.4,412,395.4,411.3,395.4z"/>
				<path class="st0" d="M412.8,406.8c0.4-0.1,0.4-0.7,0.2-0.4C412.7,406.6,412.7,407.3,412.8,406.8z"/>
				<path class="st0" d="M417,401.2c-0.1,0.4,0.7,0.6,1.2,0.9C417.9,401.8,417.5,401,417,401.2z"/>
				<path class="st0" d="M418.4,402.2h-0.1C418.3,402.1,418.4,402.2,418.4,402.2z"/>
				<path class="st0" d="M428.3,412.7h0.1C428.3,412.8,428.3,412.7,428.3,412.7z"/>
				<path class="st0" d="M428,412.5c0-0.2-0.5-0.5-0.9-0.4c0.4,0.2,0.6,0.4,1.2,0.5C428.1,412.7,428.2,412.3,428,412.5z"/>
				<path class="st0" d="M429.7,415.4c-0.2,0-0.4-0.2-0.6,0C429.1,415.5,429.6,415.5,429.7,415.4z"/>
				<path class="st0" d="M434.1,439.5c0,0.4,0.2,0.4,0.6,0C434.4,439.3,434.3,439.7,434.1,439.5z"/>
				<polygon class="st0" points="434.9,439.8 434.8,440 434.6,440.4 				"/>
				<path class="st0" d="M435.7,442c-0.1,0-0.1,0-0.2,0C435.6,442.2,435.7,442.2,435.7,442z"/>
				<path class="st0" d="M435.4,441.8l-0.2,0.1c0,0,0.1,0,0.1,0.1C435.3,442,435.3,441.9,435.4,441.8z"/>
				<path class="st0" d="M435.9,442.7l0.4-0.9c-0.6-0.1,0,0.6-1,0.7L435.9,442.7z"/>
				<path class="st0" d="M436.9,443.7c0,0.5,1.4,0.2,0.7,1c1.1,0.6,1.1-1.1,2.2-0.2c-0.4-1.2-1.9,0.6-2-0.6
					C437.7,444.5,437.3,443.7,436.9,443.7z"/>
				<path class="st0" d="M438.2,442.5c-0.4,0.2-0.1,0.6,0.1,0.6C438.3,443,438.7,442.4,438.2,442.5z"/>
				<polygon class="st0" points="438.7,445.3 438.6,445.8 438.8,445.6 				"/>
				<path class="st0" d="M439.2,446.4h-0.6C438.8,446.4,439,446.9,439.2,446.4z"/>
				<path class="st0" d="M439.7,448.3c0,0.4,1.2-0.1,0.6-0.5v0.1C440.2,448,440,448.5,439.7,448.3z"/>
				<path class="st0" d="M443.8,450.5c-0.1-0.2-0.4-0.4-0.6-0.1l0.6,0.4V450.5z"/>
				<path class="st0" d="M446.3,448.6c0.5-0.6-0.4-0.4-0.4-0.9C446,448.3,445.9,448.3,446.3,448.6z"/>
				<path class="st0" d="M443.3,451.7c-0.4,0-0.4-0.2-0.4-0.4C442.7,451.6,442.9,451.9,443.3,451.7z"/>
				<path class="st0" d="M444,452.4c-0.1,0.4-0.4,0.2-0.5,0.5c0,0.5,0.2,0.9,0.7,0.9c0.2-0.2,0.9-0.9,1.2-1c-0.6-0.4-2,0.1-1.2-0.7
					l-1.4,0.4C443,452.7,443.9,452,444,452.4z"/>
				<path class="st0" d="M445.4,449.8l-0.1,0.5c0.4-0.4,0.5-0.1,0.7,0C446.8,449.6,445.5,449.9,445.4,449.8z"/>
				<polygon class="st0" points="446.8,455 447.4,455.5 447.3,455.2 				"/>
				<polygon class="st0" points="446.8,455.6 446.5,455.7 447.3,455.8 				"/>
				<polygon class="st0" points="446.9,456.3 446.9,456.3 446.4,456.1 				"/>
				<path class="st0" d="M447.6,457.8l0.2-0.4c-0.2-0.1,0-0.6-0.5-0.4C447.8,457.1,447.9,457.5,447.6,457.8z"/>
				<path class="st0" d="M459.3,455.8c-0.2,0-0.5,0.2-0.6,0.5l0.7-0.2C459.3,456.1,459.2,456.1,459.3,455.8z"/>
				<path class="st0" d="M458.8,457.3h1c-0.2-0.6-0.9-0.2-1.2-0.6c0,0.4,0.6,0.2,0.6,0.6H458.8z"/>
				<path class="st0" d="M464.9,466.8c-0.5,0.2-0.4,0.4-0.9,0.1c0.6,0.2,0.7,0.7,1.2,1.2c0.2-0.2,1-0.2,0.6-0.4l-0.6-0.4l0.4-0.1
					C465.7,466.7,465.1,467.4,464.9,466.8z"/>
				<path class="st0" d="M477.6,493.9c-0.2,0.1-0.4,0.2-0.5,0.5C477.5,494.6,477.5,493.8,477.6,493.9z"/>
			</g>
		</g>
	</g>
</g>
<line class="st1" x1="398.3" y1="259.6" x2="398.4" y2="259.6"/>
<path class="st0" d="M402.1,361c-0.4-0.4,0.2-1.1-0.2-1.4c0,0,0,0,0-0.1c-0.1,0.5-0.5,0.9-0.5,1C401.5,361,401.8,361.8,402.1,361z"
	/>
<g class="st2">
	<g>
		<g>
			<g>
				<g>
					<path class="st0" d="M523.4,20.3c0,0.2,0.1,0.7,0.4,0.5v-0.9L523.4,20.3z"/>
					<path class="st0" d="M525.6,21.4c0.2-0.5,0.6-1.1,0.2-1.9c-0.2,0.9-0.4,0.5-0.6,1.5c-0.2,0.1-0.5-0.1-0.5-0.5
						c0,0.2-0.5-0.1-0.5,0.4c0.5,0.5,1,0.5,1.4-0.1C525.7,21.1,525.6,21.3,525.6,21.4z"/>
					<path class="st0" d="M542.6,32.3l0.1-0.1C542.7,32.3,542.6,32.3,542.6,32.3z"/>
					<path class="st0" d="M528.4,33.4c0.1,0,0.2,0,0.2-0.1C528.5,33.4,528.4,33.4,528.4,33.4z"/>
					<path class="st0" d="M525.7,31.5c0.1,0,0.1,0.1,0.2,0.1C525.8,31.5,525.8,31.4,525.7,31.5z"/>
					<path class="st0" d="M542.6,32.3l-0.5,0.1C542.4,32.6,542.4,32.4,542.6,32.3z"/>
					<path class="st0" d="M529.3,19.1c-0.1,0-0.1,0.1-0.2,0.2C529,19.3,529.2,19.2,529.3,19.1C529.3,19.2,529.3,19.1,529.3,19.1z"/>
					<path class="st0" d="M542.6,26.8L542.6,26.8c-0.1-0.1-0.2,0-0.4,0H542.6z"/>
					<path class="st0" d="M539,24.2c0.1,0.1,0.4-0.6,0.5-0.9c-0.1,0.2-0.2,0.4-0.4,0.4C539.1,23.8,539,24,539,24.2z"/>
					<path class="st0" d="M530.7,21.9l-0.1,0.1C530.5,21.9,530.7,21.9,530.7,21.9z"/>
					<path class="st0" d="M523.3,23.3L523.3,23.3c0-0.2,0-0.4-0.1-0.4L523.3,23.3z"/>
					<path class="st0" d="M518.5,31.8C518.6,31.8,518.6,31.8,518.5,31.8C518.6,31.6,518.6,31.6,518.5,31.8z"/>
					<path class="st0" d="M474.5,32c0,0.7-1.1,0.1-1,1.1C473.7,32.9,474.7,32.8,474.5,32z"/>
					<path class="st0" d="M507.8,35.5c0,0.1,0.1,0.2,0.1,0.2S507.9,35.6,507.8,35.5z"/>
					<path class="st0" d="M503.4,37.1c-0.1,0-0.1-0.1-0.4,0v0.1C503.2,37,503.2,37,503.4,37.1z"/>
					<path class="st0" d="M498.6,37.4c0,0,0,0.1,0.1,0.1h0.1L498.6,37.4z"/>
					<path class="st0" d="M514.7,6c0.1,0.2,0.1,0.4,0.2,0.6C515,6.1,515.9,6,514.7,6z"/>
					<path class="st0" d="M529.3,19.4c0-0.1,0-0.2,0.1-0.4h-0.1C529.3,19.3,529.3,19.4,529.3,19.4z"/>
					<path class="st0" d="M484.5,9.2l0.2-0.1C484.6,9.1,484.6,9.2,484.5,9.2z"/>
					<path class="st0" d="M500.4,42.8c-0.1-0.2-0.4-0.4-0.5-0.5c0,0.1,0,0.1-0.1,0.2L500.4,42.8z"/>
					<path class="st0" d="M521.6,6.8c-0.9-0.4-0.7,0.6-1.2,1c-1.1-0.2-0.1-0.9-0.4-1.4c-0.7,0-1.5,0.6-2,0.4c0-0.1-0.1-0.2,0.1-0.4
						c-0.9,0.5-2.1-0.5-3,0.4c0-0.1-0.1-0.1-0.1-0.2c0.1,0.5,0,1,0,1.2c-0.4,0-0.7,0.5-0.7-0.1c0.2,0,0.2-0.2,0.4-0.4l-0.4,0.2
						c-0.4-0.9,0.5-0.2,0.6-0.9c-0.9,0.2-1.7,1-2.2,0.7c-0.2-0.9,1.4-0.4,0.5-1.1l1,0.4c-0.7-1.4,0.6,0.1,0-1.4
						c-1.4-0.2-1.5,0.4-2.9,0.4c-0.2,0.5,0.2,0.6,0,1.1c-0.7,0.6-1.2,0.1-1.6-0.2s-0.9-0.7-1.2,0c-0.1,0.6,0.1,1.6-0.9,1.5
						c0-0.4-0.1-0.6-0.1-1c-1.2,0.5,0,1.5-1.4,1.6c0-0.4,0.6-0.7,0.5-0.7c-1.1-0.2-0.2,0.7-0.7,1.1l-0.6-0.6
						c-1.1,0.9-1.7,2.2-2.6,3.5c-0.1-0.2-0.1-0.6-0.6-0.5c-0.2,0.4-0.5,0.9-0.7,1.2c-0.1,0.1-0.4,0.4-0.4,0.5l-0.1,0.1
						c-0.2,0.1-0.5,0-0.6-0.1c0.1,0.2,0.1,0.6,0.2,0.9v0.1c0,0-0.1-0.4-0.2-0.6c-0.2-0.4,0.1,0.6,0.2,1c-0.1,0-0.2-0.6-0.2-0.9
						c0,0.7-0.9,1-1.2-0.1l0.2-0.1c-0.6-0.6-1.5,0.9-2-0.1h0.2c-1.6-1.1-3.9-1.2-4.9-2.7c-0.6,0.9-1.7-1-2.2,0.4
						c-0.9-1-0.5-1.1-2.1-2c-0.5-0.1-0.7,0.9-1.4,0.9V9c-0.2,0.2-0.5,0.5-0.7,0.7l-0.4-1l-0.5,0.1c0.2,0,0.4,0.4,0.4,0.6
						c-0.7,0.2-1.9-0.6-2-1c-0.6,0.2-1.2,0.5-1.9,0.7c0-0.4,0.4-0.5,0.6-0.7c-1,0.9-0.2-0.7-1.1,0c0.1,0.1,0,0.5,0,0.6
						c-0.5-0.4-1.7-0.1-2.5,0.2V8.9c-1.5,0.2-3,1.4-4.4,2.1c0.6-0.1,1,0.7,0.6,1.1l-0.6-0.6c0,0.6,0.6,0,0.4,0.9
						c-0.5,0.2-0.9-0.5-0.6-1l-0.5,0.6c-0.1-0.1-0.1-0.4-0.2-0.6c0,0.5-1.6,0.1-1.4,1.1l-0.1-0.1c-1.4,1.1-1.7,1.9-2.6,2.9
						c0.5,0.5,0.1,0.7,0.2,1.5c-0.7,0.6-1.9,1.2-2.4,2.5c0,0.9,0.5,0.5,0.6,1c-0.6-0.2-1,1-1.2,0.2c-0.2,0.7-0.2,1.2-0.4,1.7
						c0,0.5,0,1.1,0.1,2.1c0.2-0.2,0.4-0.4,0.6-0.2c0,0.4-0.4,0.7-0.6,0.6v-0.1c0.2,0.5,0.2,1.1,0.1,1.6c0,0.6-0.2,1.2-0.2,1.9
						c-0.1,1.2,0,2.6,1,3l-0.1-0.1c0.5,0.4,1,0.9,1.5,1.1c0.4,0.7-0.6-0.1-0.6,0.6c1,0.5,1.4,1,1.7,1.6c0.4,0.5,0.7,1.1,1.6,1.4
						c-0.2,1.1,0.6,1.7,1.6,2.2c1,0.5,2,0.9,2.5,1.7l0.1-0.4c0.5-0.2,0.4,0.4,0.6,0.6c0.1-0.4-0.2-0.5,0.1-0.6
						c1.6,0.4,3.1,1,4.7,1.7c1.6,0.6,3.1,1.2,4.7,1.6c1.1,0.2,0.9-2.2,2.2-1l-0.5,0.7c2.4-0.9,4.6,0.2,6.8-0.5
						c-0.1,0.2-0.1,0.4-0.4,0.4c0.5,0.6,1.7,0,1.7-0.4c0.4,0.1,0.1,0.4,0.2,0.7c0.5,0.4,1.1-0.7,1.4-0.1c0,0.1-0.1,0.2-0.2,0.2
						c0.2-0.2,1.4,0.1,1.1-0.6c0.9,0.4,1.6-0.4,2.2,0c0.4-0.7,1.5,0.2,1.5-0.7c0,1.1,1.5,0.7,2,0.2c-0.1,0.4,0.5,0.4,0.4,0.7
						c0.6-0.1,1.1-0.4,1-0.9c1.2,1.2,2.1-1.4,3,0.2c1.7-0.9,3.2-1.6,4.7-2.2c0.2,1.1-1.7,0.5-1.4,1.6c1.5-0.7,2-2,3.6-2.1
						c0.4,0-0.1,0.5-0.1,0.7c1.4-0.9,3-0.9,4-1.9c0,0.1,0,0.2-0.1,0.4c0.2-0.1,0.6-0.1,0.5-0.5l-0.2,0.2c-0.6-0.5,0.4-1.9,0.2-2.2
						c0.1,1.5,1.4-0.2,1.5,1.7c0.1-0.1,0.2-0.5,0-0.7c0.2,0,0.5,0.1,0.4,0.6c0.7-0.6,0.2-1,1-1.4c0.1,0.2,0,0.4,0,0.6
						c0.1-0.6,0.4-1.2,0.9-1.1c0,0.1,0.1,0.4,0,0.4c0.4-0.1,0.6-0.5,1-0.9c0.4-0.2,0.9-0.4,1.4,0c-0.6,1,0.2,0.4,0,1.4
						c0.2,0,0.4-0.1,0.6-0.1l-0.1-0.5c0.5,0.2,1.2-0.2,1.6,0.2l-0.6,0.1l1.1,0.2l-0.5-0.6c0.7-0.2,0.4-1.1,1.1-0.5
						c-0.2,0,0.6,0.2,0.7,0.9l0,0c0.4-0.1,0.7-0.4,1.2,0c0,0.4-0.4,1-0.4,1.1c0.5-0.6,1.6,0.2,2.1-0.5c-0.1,0.1-0.2,0.6-0.2,0.7
						l0.4-0.5c0.2,0.2,0.2,0.4,0.1,0.7c0.9,0.2-0.1-1.2,0.9-0.5c-0.1,0,0,0.1-0.2,0.2c1.1,0.5,2.1-0.1,3.2,0.1c0.4,1-0.9,0.2-0.6,1
						c0.7-0.1,1.6-0.4,2.4-0.7c0.7-0.4,1.5-0.7,2.2-0.9c-0.1,0-0.2,0-0.2,0c-0.1-0.6,0.1-0.6,0.6-0.5c0.4,0.1,1,0.2,1.1-0.2
						c-0.1,0.2,0.1,0.7,0.1,0.6c1.1-0.4,1.7-1.5,2.4-3l0.1,0.4c0.6-0.2,1.1-1.2,1.6-1.7c-0.2-0.4,0-0.6-0.5-0.6
						c1.4-0.5,1.4-1.7,1.1-2.9c-0.2-1.1-0.7-1.7-0.2-3c0.1,0.2,0.5,0.5,0.4,0.2c-0.2-0.5-0.6-1-1-1.5c-0.5,0.4-0.1,0.4-0.5,0.9
						c-0.4,0-0.7-0.2-1-0.5c0.6,0.4,0.7-0.5,0.9-1c-0.1,0.1-0.4,0.1-0.5,0.4c0.2-1.2-1,0.6-1.1-0.5l0.2-0.2
						c-0.4-0.1-0.9-0.1-1.1-0.4c0.2-0.6,0.5,0,0.9-0.4c-0.5-0.4-1.6,0.4-1.7-0.5c0.4,0,0.6,0.1,0.9,0.1c-0.1-1-0.2-0.9-0.6-1.1l0,0
						c-0.2-0.2-0.5-0.5-0.7-0.7l0.1,0.4c-0.7,0.6-1.1,0.6-1.4,0.4c-0.4-0.1-0.7-0.4-1.4,0.1c1.2-0.7,0.4-0.5,0.6-1.2
						c-0.1-0.2-0.5-0.6-0.4-0.7c-0.6,0.5-0.7-0.6-1.5,0.1c0-0.2-0.5-0.1-0.2-0.7c-0.6,0.1,0.1,0.4,0,0.7c-1,0.6-2.1-1.2-3.5-0.2
						c-1.1,0.4-1.4,1.2-2.4,1.6c-0.4-0.4,0.2-0.9,0.2-0.9c-0.6-0.4-1-0.2-1.5,0c0.1-0.2,0-0.4-0.1-0.6c-0.4,0.1-0.2,0.9-0.9,0.6
						c0.1-0.2,0.1-0.7,0.4-1c-0.5,0.2-1,0.7-1.5,1c-0.1-0.4,0.2-0.6,0.4-1c-0.6,0.2-1.5,0.5-1.6,1.2l0.4,0.2c-0.2,0-0.1-0.5,0-0.7
						c0.5-0.6,0.7,0.1,0.7,0.4l-0.4,0.2c0.5,1.4,1.4-0.4,2.2-0.4l-0.2,1l0.7-0.9c0.1,0.2,0.2,0.9,0,1c0.5,0.5,0.5-0.4,0.9,0.2
						c0,0.1,0,0.1,0,0.1l0.5-0.4c-0.1,0.2,0.1,0.7-0.2,0.6c0.9,0.6,1.5-0.7,1.7,0l-0.1,0.1c1.2-0.2,0.1-0.7,1.1-1.6
						c0.1,0.6,0.4,1.2,0.5,1.9l0.1-0.7c0.1,0,0.4,0.1,0.2,0.4c0.5-0.5,0-0.4,0.2-0.7c0.5,0.7,1.7-0.1,1.7,1.1
						c0.4-0.5-0.5-0.5,0.2-0.9c-0.1,1.4,0.7-0.1,1.2,0.6c-0.4,0.6-0.7,0.1-0.4,0.9c0.6-1,0.9,0.5,1.4,0.5c0.4-0.9,1,0,1.9,0.1
						c-0.1,0.2,1,1.1,1.1,1.9l-0.1,0.1c0.7-0.6,1.1,0,1.5,0.4c-0.5,0.2-0.7,0.4-1,0.2c0.1,0.1,0.1,0.2,0.2,0.4
						c0.2-0.1,0.5,0,0.7,0.1l-0.6,0.2c0.1,0.2,0.4,0.4,0.6,0.6c0.2,0.2,0.4,0.5,0.1,0.9c0.4,0,0.7-0.1,1.1-0.2
						c0.4-0.1,0.7-0.1,1,0.4c-0.4,0-1,0.1-1.1-0.1c0,0.1,0.2,0.2,0.1,0.4c-0.1-0.1-0.4-0.2-0.6-0.4c-0.2,0.4,0.5,0.2,0.4,0.5
						c-0.5,0-0.4,0.2-0.7,0.1c0-0.1,0.2-0.2,0-0.4c-0.1,0.2-0.4,0.6-0.9,0.6c0.2,0,0.6,0.1,0.6,0.4c-0.1,0.6-0.6,0-1,0.2
						c0.2,0.2-0.1,0.4,0.5,0.7c-0.1,0.1-0.4,0-0.6,0c0.1,0.4-0.6,1.2,0.2,1.4h0.1c0,0,0,0,0,0.1l0,0l0,0c0,0.6-0.5,1-1,1.4
						c-0.5,0.2-1.1,0.5-1.4,0.9l-0.1-0.2c-0.4,0.6-1.1,0.7-1.4,1.4c-0.2,0.1-0.6-0.2-0.6-0.6c-0.4,0.2-0.4,0.6-1.2,0.2
						c0.4-0.5-0.2-0.4,0.4-0.4c-0.6-0.1-0.7-0.5-1.4,0.2c0.1-0.6-0.5-0.7-0.7-0.6l0.4,0.5c-0.4,0.1-0.6,0-0.9,0l0.1-0.9
						c-0.6-0.5-1.1-0.1-1.7,0.1c-0.6,0.2-1.1,0.4-1.4-0.5c-0.5,0.5,0.6,0.5,0.1,1.1c-0.6-0.2-0.9-1.6-1-1.6
						c-0.6-0.7-1.1,0.9-1.9,0.4c0,0.4-0.1,1.1-0.9,1.1c-0.6-0.4-0.2-1.5,0.2-1.5c0.1,0,0.1,0.1,0.1,0.2c0.2,0,0.5,0,0.4-0.4
						l-0.1,0.2c-0.1-0.4-1-0.7-0.6-1.1c-0.6,0.1-0.4,0.4-0.1,0.6c-0.6-0.7-1.2-0.5-2.2-1.1c0.1,0.2,0.1,0.6,0,0.5
						c-1.5-0.7-0.7,0.4-1.9,0.4c-0.6-0.5,0.2-1.1-0.9-0.7c-0.7-0.2-0.2-0.7,0.1-1c-1.2,0.6-2.4,0-3,0.1c0.1-0.1,0.4-0.2,0.5-0.4
						c-0.2,0.2-0.6,0.4-0.9,0.5l0.5,0.4c-0.4,0-0.6,0.1-0.6-0.1c-0.1,0.5,0.6,0.9,0.2,1.5c-0.5-0.1-0.9,0.7-1.2,0.1
						c1.1-0.2-0.5-0.6,0.4-1.1c-0.1,0.1-0.4,0.2-0.6,0.2c-0.1-0.1,0-0.1,0-0.2c-1.1-0.2,0,1-0.9,1.4c0-0.5-0.5-0.7-0.6-0.5
						c0.4-0.1,0.5,0.6,0.2,1c-0.7-0.1-0.5,0.5-0.9,0.6h0.4c0,0.5-0.2,0.5-0.6,0.9c-0.1-0.4,0.2-0.4,0.1-0.5
						c-0.2,0.9-1.2-0.4-1.7,0.4c-0.4-0.2-0.2-0.7-0.6-0.9c-0.5,0.7-1-0.4-1.6,0.4c0.4,0.5,0.4,0.4,0,1.1l1.1-0.7l-0.6,1
						c0.4-0.1,0.7-0.6,1-0.5c-0.2,0.6-0.2,0.4,0.1,0.9c-0.7-0.7-0.9,0.9-1.7,0.4l-0.4-1.5c-1.1-0.4-1.5,1.1-2.7,1l0.5,0.1
						c0,0.6-0.7,0.2-1.1,0.5c0-0.5-0.4-0.6-0.5-0.9c0.1,0.4-0.9,0.1-0.9,1.1l-0.6-0.5c-1-0.1-1,1.6-2,1.5c0.2-0.5-0.2-0.9,0.4-1.4
						c-0.4,0-0.6,0-0.6,0.4c-0.2-0.2-0.9,0.7-1.1,0.4c-0.1,0.2-0.1,0.7-0.5,0.7c0-0.1,0-0.2,0-0.2c0,0.2-0.5,0.4-0.1,0.9
						c-1.1-1.5-2.9,0.2-3.7-1c-0.7,0.2-1.6,0.4-2.2,0.4c0-0.1,0-0.2,0.1-0.2c-0.9-0.5-0.5,1.4-1.6,0.9c-0.5-0.7,0.5-0.4,0.2-0.7
						c-0.1-1.6-1.2,0.2-1.9-0.7l0.1-0.1c-0.5-0.5-1.2,0.6-2.1,0.5c0,0,0-0.1,0-0.2c-0.6,0.9-1.7,1-2.6,1.2c0.2-0.6,0.4-0.4,0.2-1
						c-0.4,0.1,0,1-0.7,1.1c-0.2-0.4-0.7-0.7-0.7-1.4h0.7c-0.2-0.9-0.9,0-1.2-0.2l0.1-0.4c-1,0-1.1,1-2.2,0.9l0.1,0.2
						c-0.7,0.9-0.5-0.6-1.1,0v-1c-0.4,0.1-1.5,0.7-2.4,0.7c0.6-0.6,1.5-0.9,2-1.1c-0.4-0.1-1.2-0.1-1.6,0.2c0.1-0.1,0.4-0.2,0.5-0.1
						c-0.6,0.6-1.4,0.9-2.1,0.6c0.6-1.7-1.9-1-1.7-2.6c-1.5,0.1-2.1-1.4-3.2-2.1c-0.5,1.5-0.4-0.2-1.2,1c-0.4-0.1-0.4-0.2-0.4-0.4
						c-0.1-0.5-0.1-1-0.1-1.4c0.1-0.5,0.5,0,0.6-0.2c-0.4-0.6,0.2-0.6,0.2-1.2c-0.4,0.4-0.7,0.4-0.7-0.1c-0.1,0.2-0.1,0.6-0.1,0.9
						c-1.2-0.2,0.5-1.4-0.6-1.7h0.5c-0.5-0.2-0.7-1.4-2-1.4c0.1-0.1,0.5-0.4,0.6-0.2c-0.1-0.5-0.5-1-0.9-1.6c-0.2-0.5-0.5-1.1,0-1.6
						l0.4,0.1c-0.1-0.2-0.6-0.5-0.2-0.6c0.1,0,0.4,0.1,0.4,0.1c-0.1-0.1-0.5-0.7-0.2-0.9l0.4,0.4c0.4-0.5,0.2-0.9,0.1-1.4
						s-0.4-1.1-0.1-1.6c1,0.5,1.7,0,2.1-0.2l0.1,0.1c0.9-0.9,0.9-2.2,1.7-3.5c0.7,0.2,1.2,0,2-0.4c0.4-0.1,0.6-0.4,1-0.4
						c0.4-0.1,0.7-0.1,1.1-0.1c-0.2-0.1-0.2-0.9,0-1c0.4,0.1,0.6-1,0.9,0h-0.1c0.5,0.9,0.9,0.5,1.4,0.5l-0.1-1.4
						c0.7,0.9,1.6,0.6,2.5,0.5c0.7-0.2,1.6-0.4,1.9,0.5c0.4-0.2,0.7-0.2,1.1-0.5l-0.1,0.7c0.9,0.4,1.2,0.5,2.4,0.6l-0.4,0.4
						c0.6,0.2,1.4-1.7,2-1.6l-0.1,1c1.1,0.4,1.9,1.6,3.2,1.2c-0.1,0.1-0.2,0.4-0.5,0.4c0.5,0.2,1.6,1.6,2.1,0.2
						c-0.2,0.4,0,0.6,0.5,0.6c0.6,0.2,1.5,0.4,2,0.4l-0.2,0.6c1-0.5,1-0.7,2-0.4c0.2,0.2,0.2,0.9-0.1,0.4c0.9,1,0.5-0.5,1.5,0.6
						c0,0.1-0.1,0.2-0.2,0.4c0.7,0.5,0.7,0.4,0.7-0.4c0-0.1,0-0.2,0-0.4c0-0.9,0.7-1.4,1.1-0.9c-0.1-0.6-0.4-1.6,0-2
						c0.2,0.1,0.2,0.5,0.2,0.6c0.5-0.6,0.6-1.4,0.7-1.9c0.1-0.5,0.1-0.7,0.6-0.7c0.1,0.1,0.2,0.1,0.4,0.1c-0.2,0.2-0.5,0.5-0.6,0.7
						c-0.2,0.4-0.4,0.5-0.4,0.5c0.2,0.2,0.5,0.1,0.7,0.1s0.5,0,0.6,0.7c0-0.1,0-0.4,0.1-0.5c0-0.2,0-0.2,0-0.4
						c0-0.2-0.1-0.4-0.1-0.6c0-0.4,0-0.9,0.4-0.9c0,0,0.1,0,0.2,0.1V15c0.1,0,0.1-0.1,0.1-0.4c0.2,0,0.4-0.1,0.5-0.2
						c0.4,0.4,0.6-0.2,0.9-0.4c-0.5-0.5-0.1-0.7-0.7-0.9c0.1,0,0,0.1-0.1,0.2v0.1v-0.1c-0.1,0.1-0.4,0.4-0.5,0.5
						c-0.1-0.4-0.1-0.9,0.4-0.7c-0.1-0.5-0.4-0.9-0.4-1.1c1,0.5,1.9,0.5,2.2,1c0.5-0.9,1.6-1.1,1.7-2.6c0.2-0.2,0.4,0.2,0.6,0.5
						c-0.1,0.1-0.2,0.2-0.2,0.4c0.4-0.5,1.4-0.5,1.4-1.4c0.7,0.4-0.2,0.9,0.6,0.6l-0.1,0.2c0.9,0.6,1.5,0.1,2.4-0.4
						c0.7-0.5,1.9-0.7,2.5,0.5c-0.1-0.1-0.1-0.2-0.1-0.4c1,0.7,2.1,1,3.2,1.6c1.1,0.5,2.1,1.4,2.1,2.6c0.1,0.6,0.6,0.4,1.2,0.5
						l-0.6,0.5c0.4,0,0.7,0.1,1.1,0.2c0.5,0.4,0.1,1-0.1,1.4c-0.2,0.5-0.5,0.9,0,1.4l0.5-0.1c0,0.4,0.2,1.4-0.4,1.1
						c0.1,0,0.5,0.2,0.2,0.4l-0.4-0.1c0.1,0.4,0.2,0.7,0.2,1.1c-0.2,0.2-0.6,0-1-0.2c-0.4-0.2-0.6-0.4-0.9-0.1c0,0.1,0,0.5,0.1,0.7
						c0,0.4,0,0.7,0.1,0.7c0.1-0.1,0.5,0,0.7,0.2l-0.2,0.4c0.2,0.5,0.5,1.1,0.7,1.6c0.2,0.5,0.7,0.7,1.9,0.5c0.1-0.5,0.4-1,0.4-1.4
						c0.2,0,0.5,0,0.6,0c-0.2,0.4-0.5,0.6-0.7,0.9c0.9-0.1,0.7-0.7,0.7-1.2c0.4,0.1,0.6,0,0.7-0.1c-0.1-0.6-0.2-1.1-0.5-1.6
						c0.5,0,0.6,0.9,1.1,0.1c-0.4-0.7-1.1,0.1-1.2-0.7c0.6-0.4,1-0.1,0.7-0.9c0.4,0,0.5,0.1,0.6,0.4c-0.2-0.6,0-1.6-0.6-1.9
						c0.6-0.6-0.4-1.7,0.7-1.9c-0.2-0.1-1-0.7-1.2-1.1c0.7,0.2,0.6-0.2,0.5-0.7s-0.4-1.1,0.4-1.2c-0.7-0.1-1-0.5-1.5-1.1
						c-0.4-0.5-0.9-1.1-1.5-1.4c0.1,0,0.4,0,0.4,0.1c-0.4-0.5-0.2-1-0.4-1.4c-0.7,0.6-1.6,0.1-2.4,0.4c0-1.2,1.1-0.6,1.5-1.5
						c-0.5,0.6-1.5-0.2-1.7,0.5c-0.1-0.7-0.2-0.5,0-1.4c-0.7,1-0.6-0.1-1.4,0.2c-0.4-0.9,0.4-1.1-0.6-1.1c-0.1-0.2,0-0.4,0.2-0.5
						C521.3,6.8,521.6,6.8,521.6,6.8z M502.4,12.1L502.4,12.1c0.1-0.1,0.1-0.2,0.2-0.4C502.5,11.9,502.5,12,502.4,12.1z M501.4,13.5
						c0.1-0.1,0.2-0.4,0.5-0.5c0.2,0.1,0.4,0.4,0.2,0.4C502,13.1,501.7,13.3,501.4,13.5z M506.9,14.5c-0.1,0.2-0.2,0.1-0.4,0
						c0-0.1,0.1-0.1,0.1-0.2c0,0,0,0,0-0.1C506.9,14.2,506.9,14.3,506.9,14.5z"/>
					<path class="st0" d="M506.6,13.6C506.6,13.5,506.6,13.5,506.6,13.6c0-0.1-0.1-0.1-0.1-0.1C506.5,13.5,506.5,13.6,506.6,13.6
						L506.6,13.6z"/>
					<path class="st0" d="M542.7,32.1L542.7,32.1C542.7,32.1,542.9,32.1,542.7,32.1C542.9,32.3,542.9,32.1,542.7,32.1z"/>
					<polygon class="st0" points="486.4,9 486.4,9.2 486.5,9.1 					"/>
					<path class="st0" d="M541.7,21.7c-0.1-0.1-0.2-0.4-0.4-0.5C541.5,21.4,541.6,21.6,541.7,21.7z"/>
					<path class="st0" d="M539.1,20.2c-0.1,0.1-0.1,0.2-0.1,0.2l0,0L539.1,20.2z"/>
					<path class="st0" d="M518.2,38.5L518.2,38.5C518,38.7,518.1,38.6,518.2,38.5z"/>
					<path class="st0" d="M528.9,36.5c-0.1,0.1-0.4,0.1-0.5,0.1C528.7,36.7,528.8,36.9,528.9,36.5z"/>
					<path class="st0" d="M527.8,36.4c0.1,0.2,0.4,0.2,0.6,0.2C528.3,36.5,528,36.4,527.8,36.4z"/>
					<path class="st0" d="M526.7,19.2h-0.1v0.1L526.7,19.2z"/>
					<path class="st0" d="M526.6,19.3l-0.1,0.1C526.6,19.4,526.6,19.4,526.6,19.3z"/>
					<path class="st0" d="M526.2,19.6l0.2-0.2C526.3,19.4,526.2,19.4,526.2,19.6z"/>
					<path class="st0" d="M531.7,19.2c-0.2-0.1-0.6-0.5-1.1-0.4v0.2C530.7,18.7,531.4,19.7,531.7,19.2z"/>
					<path class="st0" d="M535.9,22.7l-0.9-0.4c0.1,0.2,0.2,0.6-0.1,0.7C535.9,24,534.9,22.4,535.9,22.7z"/>
					<path class="st0" d="M538.4,23.7c-0.5,0-0.1,0.4-0.1,0.5C538.5,24,538.6,23.9,538.4,23.7z"/>
					<path class="st0" d="M538.1,34.8l-0.1-0.6C537.8,34.3,538.1,34.4,538.1,34.8z"/>
					<polygon class="st0" points="534.5,38.4 535,38.7 535.1,38.2 					"/>
					<path class="st0" d="M532.9,33.5l0.1-0.1c-0.1,0-0.4,0.1-0.6,0.1C532.7,33.6,532.8,33.6,532.9,33.5z"/>
					<path class="st0" d="M499.3,36.7l0.1,0.7C499.8,37.4,499.8,36.5,499.3,36.7z"/>
					<path class="st0" d="M484.9,37.1c-0.1-0.4-0.5-0.7-0.7-0.4C484.5,36.9,484.7,37.2,484.9,37.1z"/>
					<path class="st0" d="M482.4,15.2c-0.1,0.1-0.1,0.2-0.2,0.2c0.1-0.1,0.2-0.1,0.5-0.2H482.4z"/>
				</g>
			</g>
		</g>
	</g>
</g>
</svg>
