<?xml version="1.0" encoding="utf-8"?>
<!-- Generator: Adobe Illustrator 23.0.5, SVG Export Plug-In . SVG Version: 6.00 Build 0)  -->
<svg version="1.1" id="Capa_1" xmlns="http://www.w3.org/2000/svg" xmlns:xlink="http://www.w3.org/1999/xlink" x="0px" y="0px"
	 viewBox="0 0 703 611.1" style="enable-background:new 0 0 703 611.1;" xml:space="preserve">
<style type="text/css">
	.st0{fill:#FFFFFF;}
	.st1{fill:none;stroke:#FFFFFF;stroke-width:0;stroke-linecap:round;stroke-linejoin:round;}
	.st2{opacity:0.48;}
</style>
<image style="overflow:visible;enable-background:new    ;" width="1919" height="1081" xlink:href="1620ED0D.jpeg"  transform="matrix(0.9995 0 0 0.9995 -7905.583 -7876.9331)">
</image>
<path class="st0" d="M389.3,388c0.1-0.2,0.2-0.5,0.4-0.7C389.3,387.7,389.3,387.9,389.3,388z"/>
<path class="st0" d="M419.4,293.6c0.4,0.2,0.6,0.5,0.9,0.6l0.1-1c-0.7-0.4,0.2,0.5-0.2,0.4c-0.3-0.2-0.4-0.5-0.5-0.8
	c-0.1,0-0.3-0.1-0.4-0.1C418.8,292.9,420.7,293.9,419.4,293.6z"/>
<path class="st0" d="M409.7,283.2c-0.1-0.1-0.2-0.2-0.4-0.4C409.4,283.1,409.6,283.2,409.7,283.2z"/>
<path class="st1" d="M420.4,294.1C420.4,294.1,420.4,294.1,420.4,294.1"/>
<line class="st1" x1="398.3" y1="259.6" x2="398.4" y2="259.6"/>
<path class="st0" d="M407.6,270.7l1.5,0.9c-0.9-0.7-1.2-1-2-1.8C407.8,270.9,407.8,270.4,407.6,270.7z"/>
<path class="st0" d="M409,271.6c0,0,0.1,0.1,0.2,0.1c0,0,0,0,0,0L409,271.6z"/>
<path class="st0" d="M454.7,321.3c1.1,0.2-0.4-2,0.6-2.2l-0.4,0.1c-1-2.9-3.4-5.4-5.5-8.1c-2.2-0.7-2.4-2.9-4.5-3.9
	c-1.1,0.6-0.5-0.1-2.1-1.4c0.9,0.6,0.7-0.6,0.4-1.1c-0.5,0-0.9-0.2-1.4-0.5c0-0.6-1.2-3-2.4-3c-0.6-1.1,0.5-0.1,0.9-0.1
	c0-0.7-1-0.4-1-0.9c0,0,0.1-0.1,0.2,0c-1.4-1.2-2-2.2-3.2-3.6c-0.9,0.7-1.6-1-2.6-1.2c0.5-0.1-0.5-1-0.7-1.6l-1.4-0.1
	c-1.2-0.1-0.6-1.4-1.9-2l0.1,0.4c-1-0.4-2.4-2.6-2.6-3.7c-4-2.2-6.2-4.9-8.5-7.6c-1.1-1.4-2.1-2.9-3.4-4.2c-0.6-0.7-1.2-1.5-2-2.2
	c-0.1-0.1-0.4-0.4-0.6-0.6c-0.4-0.2-0.6-0.6-1-0.9c-0.7-0.6-1.4-1.2-2.1-2c-0.9-0.4,0.2,1.1-0.5,1c0,0-0.1-0.1-0.1-0.1
	c0,0.1-0.1,0,0,0.4c0.5,0.4,1.2,0.7,1.9,1.4c-1.1-0.6-1.6,0-2.6-1.4c0.1,0,0.2,0,0.6,0.2c-1-1-1.1-0.6-1.7-1.5
	c-0.9-1.1-0.6-0.5-0.7-1.1l-3-3.4c-0.1,0-0.3,0-0.5,0c0.4,3.7,1.5,7,1,10.8c0,0,0,0,0,0c0.1,0,0.5,0.1,0.9,1c0,0.2,0,0.6,0,0.6
	c0.5,0.9,0.6,0.7,1,1.1v0.1c0,0.4,0.1,0.5,0.1,0.6l0.2,0.1c0.2,0.2,0.5,0.5,0.9,0.6c1.1,0.9,2.4,1.6,3.5,2.5
	c-0.2-0.1-0.5,0.1-0.7,0.1c1,1.2,2.6,3,4,3c0.6,1.9,1.1,0.6,2.1,2.9c0,0.2-0.2,0-0.4-0.1c0.6,1,1.2,1.5,2,2.4c0.5,0.3,1,0.5,1.5,0.7
	c0.1,0,0.3,0.1,0.4,0.1c1.2,0.4,2.3,0.7,3.6,2.3c-0.7,1-1.5-1-2.2-0.2c0.6,0.2,1.1,0.4,1.5,1.1c-0.7,0-0.2,0.1-0.9,0.2
	c0.2,0.6,2.7,0.7,2.6,0.7c0.2-0.1,0.1-0.4-0.4-0.7c1-0.1,2.1,1.9,3.4,2.6c-0.4-0.4-1.2-1.5-0.4-1.6c1.2,1.5,2.5,1,3.9,1.6
	c0.9,1.6-1.7-0.1-2.1,0.7c0,0.4,0,1.5-0.7,1.2c1,1.2,2.4,1.5,3.5,2.2l-0.2,0.1c1.5,1.2,3.7,1.9,4.6,3.4l-0.5-0.9
	c0.4,0.1,1,0.9,1.7,0.9c-0.4,0.2,0.4,1.4-0.2,1.4c1.6-0.4,3.9,2.5,5.4,2.2c0.1,0.6-0.5,0.7-0.9,0.9c-0.9-1-1-1.4-1.7-1.5
	c0.7,0.7,1.1,1.5,0.7,1.6c1.4,0.1,3.4,1.5,4.4,1.2c0.2,0.9,0.6,1.5,0,1.9c2.6,1.9,0.4-2.6,3-0.2c0.7,1.6-1.7-0.4-0.4,1.2l-0.4-0.2
	c-0.1,2.5,1.7-0.1,3,1.1c-0.5,0.9-1.4-0.4-1,1c1.4,1,3,0.4,4,1.7l-0.5,0.1c0.9,0.6,2.2,2.2,3,3c-0.1,0.1-0.1,0-0.4,0
	c1.2,1.6,1,0.2,1.6,1.9h0.6C456.7,322.9,456,321.6,454.7,321.3z"/>
<path class="st0" d="M401.4,263.5c0.1,0.5,0.2,0.7-0.6,0.2c0.8,0.4,1.5,1.1,2.3,1.9c0-0.5-0.1-0.9-0.1-1.4c-0.5-0.4-0.4,0.3-1.3-0.6
	c-0.1-0.1-0.2-0.3-0.4-0.4C401.3,263.3,401.3,263.4,401.4,263.5z"/>
<path class="st0" d="M405.1,267.4c-0.4-0.7,1.1-0.2,0.4-0.7l-2-1.5c0.1-0.1,0.1-0.1,0.2-0.2c-0.3-0.4-0.5-0.6-0.7-0.7
	c0,0.5,0,0.9,0.1,1.4C403.7,266.2,404.3,266.8,405.1,267.4z"/>
<path class="st0" d="M451.1,318.6c0.7,0.4,0.2-0.4,0.2-0.6C451.1,318.1,451.1,318.4,451.1,318.6z"/>
<path class="st0" d="M451.3,318C451.3,318,451.4,318,451.3,318C451.3,317.9,451.3,318,451.3,318z"/>
<g class="st2">
	<g>
		<g>
			<g>
				<g>
					<path class="st0" d="M523.4,20.3c0,0.2,0.1,0.7,0.4,0.5v-0.9L523.4,20.3z"/>
					<path class="st0" d="M525.6,21.4c0.2-0.5,0.6-1.1,0.2-1.9c-0.2,0.9-0.4,0.5-0.6,1.5c-0.2,0.1-0.5-0.1-0.5-0.5
						c0,0.2-0.5-0.1-0.5,0.4c0.5,0.5,1,0.5,1.4-0.1C525.7,21.1,525.6,21.3,525.6,21.4z"/>
					<path class="st0" d="M542.6,32.3l0.1-0.1C542.7,32.3,542.6,32.3,542.6,32.3z"/>
					<path class="st0" d="M528.4,33.4c0.1,0,0.2,0,0.2-0.1C528.5,33.4,528.4,33.4,528.4,33.4z"/>
					<path class="st0" d="M525.7,31.5c0.1,0,0.1,0.1,0.2,0.1C525.8,31.5,525.8,31.4,525.7,31.5z"/>
					<path class="st0" d="M542.6,32.3l-0.5,0.1C542.4,32.6,542.4,32.4,542.6,32.3z"/>
					<path class="st0" d="M529.3,19.1c-0.1,0-0.1,0.1-0.2,0.2C529,19.3,529.2,19.2,529.3,19.1C529.3,19.2,529.3,19.1,529.3,19.1z"/>
					<path class="st0" d="M542.6,26.8L542.6,26.8c-0.1-0.1-0.2,0-0.4,0H542.6z"/>
					<path class="st0" d="M539,24.2c0.1,0.1,0.4-0.6,0.5-0.9c-0.1,0.2-0.2,0.4-0.4,0.4C539.1,23.8,539,24,539,24.2z"/>
					<path class="st0" d="M530.7,21.9l-0.1,0.1C530.5,21.9,530.7,21.9,530.7,21.9z"/>
					<path class="st0" d="M542.9,29.5c-0.1,0-0.2,0-0.2,0C542.7,29.5,542.9,29.5,542.9,29.5z"/>
					<path class="st0" d="M528.8,17.1h-0.1C528.8,17.1,528.8,17.1,528.8,17.1z"/>
					<path class="st0" d="M523.3,23.3L523.3,23.3c0-0.2,0-0.4-0.1-0.4L523.3,23.3z"/>
					<path class="st0" d="M518.5,31.8C518.6,31.8,518.6,31.8,518.5,31.8C518.6,31.6,518.6,31.6,518.5,31.8z"/>
					<path class="st0" d="M474.5,32c0,0.7-1.1,0.1-1,1.1C473.7,32.9,474.7,32.8,474.5,32z"/>
					<path class="st0" d="M529.4,19.2c0.1,0,0.1,0,0.2,0C529.5,19.2,529.5,19.2,529.4,19.2z"/>
					<path class="st0" d="M473.5,33.1L473.5,33.1L473.5,33.1C473.5,33.3,473.5,33.1,473.5,33.1z"/>
					<path class="st0" d="M507.8,35.5c0,0.1,0.1,0.2,0.1,0.2S507.9,35.6,507.8,35.5z"/>
					<path class="st0" d="M516.3,34.3h-0.2C516.2,34.3,516.3,34.3,516.3,34.3z"/>
					<path class="st0" d="M503.4,37.1c-0.1,0-0.1-0.1-0.4,0v0.1C503.2,37,503.2,37,503.4,37.1z"/>
					<path class="st0" d="M498.6,37.4c0,0,0,0.1,0.1,0.1h0.1L498.6,37.4z"/>
					<path class="st0" d="M514.7,6c0.1,0.2,0.1,0.4,0.2,0.6C515,6.1,515.9,6,514.7,6z"/>
					<path class="st0" d="M529.3,19.4c0-0.1,0-0.2,0.1-0.4h-0.1C529.3,19.3,529.3,19.4,529.3,19.4z"/>
					<path class="st0" d="M503.7,42.6h-0.9C503,42.6,503.4,42.6,503.7,42.6z"/>
					<path class="st0" d="M484.5,9.2l0.2-0.1C484.6,9.1,484.6,9.2,484.5,9.2z"/>
					<path class="st0" d="M500.4,42.8c-0.1-0.2-0.4-0.4-0.5-0.5c0,0.1,0,0.1-0.1,0.2L500.4,42.8z"/>
					<path class="st0" d="M515,6.6L515,6.6L515,6.6z"/>
					<path class="st0" d="M521.6,6.8c-0.9-0.4-0.7,0.6-1.2,1c-1.1-0.2-0.1-0.9-0.4-1.4c-0.7,0-1.5,0.6-2,0.4c0-0.1-0.1-0.2,0.1-0.4
						c-0.9,0.5-2.1-0.5-3,0.4c0-0.1-0.1-0.1-0.1-0.2c0.1,0.5,0,1,0,1.2c-0.4,0-0.7,0.5-0.7-0.1c0.2,0,0.2-0.2,0.4-0.4l-0.4,0.2
						c-0.4-0.9,0.5-0.2,0.6-0.9c-0.9,0.2-1.7,1-2.2,0.7c-0.2-0.9,1.4-0.4,0.5-1.1l1,0.4c-0.7-1.4,0.6,0.1,0-1.4
						c-1.4-0.2-1.5,0.4-2.9,0.4c-0.2,0.5,0.2,0.6,0,1.1c-0.7,0.6-1.2,0.1-1.6-0.2s-0.9-0.7-1.2,0c-0.1,0.6,0.1,1.6-0.9,1.5
						c0-0.4-0.1-0.6-0.1-1c-1.2,0.5,0,1.5-1.4,1.6c0-0.4,0.6-0.7,0.5-0.7c-1.1-0.2-0.2,0.7-0.7,1.1l-0.6-0.6
						c-1.1,0.9-1.7,2.2-2.6,3.5c-0.1-0.2-0.1-0.6-0.6-0.5c-0.2,0.4-0.5,0.9-0.7,1.2c-0.1,0.1-0.4,0.4-0.4,0.5l-0.1,0.1
						c-0.2,0.1-0.5,0-0.6-0.1c0.1,0.2,0.1,0.6,0.2,0.9v0.1c0,0-0.1-0.4-0.2-0.6c-0.2-0.4,0.1,0.6,0.2,1c-0.1,0-0.2-0.6-0.2-0.9
						c0,0.7-0.9,1-1.2-0.1l0.2-0.1c-0.6-0.6-1.5,0.9-2-0.1h0.2c-1.6-1.1-3.9-1.2-4.9-2.7c-0.6,0.9-1.7-1-2.2,0.4
						c-0.9-1-0.5-1.1-2.1-2c-0.5-0.1-0.7,0.9-1.4,0.9V9c-0.2,0.2-0.5,0.5-0.7,0.7l-0.4-1l-0.5,0.1c0.2,0,0.4,0.4,0.4,0.6
						c-0.7,0.2-1.9-0.6-2-1c-0.6,0.2-1.2,0.5-1.9,0.7c0-0.4,0.4-0.5,0.6-0.7c-1,0.9-0.2-0.7-1.1,0c0.1,0.1,0,0.5,0,0.6
						c-0.5-0.4-1.7-0.1-2.5,0.2V8.9c-1.5,0.2-3,1.4-4.4,2.1c0.6-0.1,1,0.7,0.6,1.1l-0.6-0.6c0,0.6,0.6,0,0.4,0.9
						c-0.5,0.2-0.9-0.5-0.6-1l-0.5,0.6c-0.1-0.1-0.1-0.4-0.2-0.6c0,0.5-1.6,0.1-1.4,1.1l-0.1-0.1c-1.4,1.1-1.7,1.9-2.6,2.9
						c0.5,0.5,0.1,0.7,0.2,1.5c-0.7,0.6-1.9,1.2-2.4,2.5c0,0.9,0.5,0.5,0.6,1c-0.6-0.2-1,1-1.2,0.2c-0.2,0.7-0.2,1.2-0.4,1.7
						c0,0.5,0,1.1,0.1,2.1c0.2-0.2,0.4-0.4,0.6-0.2c0,0.4-0.4,0.7-0.6,0.6v-0.1c0.2,0.5,0.2,1.1,0.1,1.6c0,0.6-0.2,1.2-0.2,1.9
						c-0.1,1.2,0,2.6,1,3l-0.1-0.1c0.5,0.4,1,0.9,1.5,1.1c0.4,0.7-0.6-0.1-0.6,0.6c1,0.5,1.4,1,1.7,1.6c0.4,0.5,0.7,1.1,1.6,1.4
						c-0.2,1.1,0.6,1.7,1.6,2.2c1,0.5,2,0.9,2.5,1.7l0.1-0.4c0.5-0.2,0.4,0.4,0.6,0.6c0.1-0.4-0.2-0.5,0.1-0.6
						c1.6,0.4,3.1,1,4.7,1.7c1.6,0.6,3.1,1.2,4.7,1.6c1.1,0.2,0.9-2.2,2.2-1l-0.5,0.7c2.4-0.9,4.6,0.2,6.8-0.5
						c-0.1,0.2-0.1,0.4-0.4,0.4c0.5,0.6,1.7,0,1.7-0.4c0.4,0.1,0.1,0.4,0.2,0.7c0.5,0.4,1.1-0.7,1.4-0.1c0,0.1-0.1,0.2-0.2,0.2
						c0.2-0.2,1.4,0.1,1.1-0.6c0.9,0.4,1.6-0.4,2.2,0c0.4-0.7,1.5,0.2,1.5-0.7c0,1.1,1.5,0.7,2,0.2c-0.1,0.4,0.5,0.4,0.4,0.7
						c0.6-0.1,1.1-0.4,1-0.9c1.2,1.2,2.1-1.4,3,0.2c1.7-0.9,3.2-1.6,4.7-2.2c0.2,1.1-1.7,0.5-1.4,1.6c1.5-0.7,2-2,3.6-2.1
						c0.4,0-0.1,0.5-0.1,0.7c1.4-0.9,3-0.9,4-1.9c0,0.1,0,0.2-0.1,0.4c0.2-0.1,0.6-0.1,0.5-0.5l-0.2,0.2c-0.6-0.5,0.4-1.9,0.2-2.2
						c0.1,1.5,1.4-0.2,1.5,1.7c0.1-0.1,0.2-0.5,0-0.7c0.2,0,0.5,0.1,0.4,0.6c0.7-0.6,0.2-1,1-1.4c0.1,0.2,0,0.4,0,0.6
						c0.1-0.6,0.4-1.2,0.9-1.1c0,0.1,0.1,0.4,0,0.4c0.4-0.1,0.6-0.5,1-0.9c0.4-0.2,0.9-0.4,1.4,0c-0.6,1,0.2,0.4,0,1.4
						c0.2,0,0.4-0.1,0.6-0.1l-0.1-0.5c0.5,0.2,1.2-0.2,1.6,0.2l-0.6,0.1l1.1,0.2l-0.5-0.6c0.7-0.2,0.4-1.1,1.1-0.5
						c-0.2,0,0.6,0.2,0.7,0.9l0,0c0.4-0.1,0.7-0.4,1.2,0c0,0.4-0.4,1-0.4,1.1c0.5-0.6,1.6,0.2,2.1-0.5c-0.1,0.1-0.2,0.6-0.2,0.7
						l0.4-0.5c0.2,0.2,0.2,0.4,0.1,0.7c0.9,0.2-0.1-1.2,0.9-0.5c-0.1,0,0,0.1-0.2,0.2c1.1,0.5,2.1-0.1,3.2,0.1c0.4,1-0.9,0.2-0.6,1
						c0.7-0.1,1.6-0.4,2.4-0.7c0.7-0.4,1.5-0.7,2.2-0.9c-0.1,0-0.2,0-0.2,0c-0.1-0.6,0.1-0.6,0.6-0.5c0.4,0.1,1,0.2,1.1-0.2
						c-0.1,0.2,0.1,0.7,0.1,0.6c1.1-0.4,1.7-1.5,2.4-3l0.1,0.4c0.6-0.2,1.1-1.2,1.6-1.7c-0.2-0.4,0-0.6-0.5-0.6
						c1.4-0.5,1.4-1.7,1.1-2.9c-0.2-1.1-0.7-1.7-0.2-3c0.1,0.2,0.5,0.5,0.4,0.2c-0.2-0.5-0.6-1-1-1.5c-0.5,0.4-0.1,0.4-0.5,0.9
						c-0.4,0-0.7-0.2-1-0.5c0.6,0.4,0.7-0.5,0.9-1c-0.1,0.1-0.4,0.1-0.5,0.4c0.2-1.2-1,0.6-1.1-0.5l0.2-0.2
						c-0.4-0.1-0.9-0.1-1.1-0.4c0.2-0.6,0.5,0,0.9-0.4c-0.5-0.4-1.6,0.4-1.7-0.5c0.4,0,0.6,0.1,0.9,0.1c-0.1-1-0.2-0.9-0.6-1.1l0,0
						c-0.2-0.2-0.5-0.5-0.7-0.7l0.1,0.4c-0.7,0.6-1.1,0.6-1.4,0.4c-0.4-0.1-0.7-0.4-1.4,0.1c1.2-0.7,0.4-0.5,0.6-1.2
						c-0.1-0.2-0.5-0.6-0.4-0.7c-0.6,0.5-0.7-0.6-1.5,0.1c0-0.2-0.5-0.1-0.2-0.7c-0.6,0.1,0.1,0.4,0,0.7c-1,0.6-2.1-1.2-3.5-0.2
						c-1.1,0.4-1.4,1.2-2.4,1.6c-0.4-0.4,0.2-0.9,0.2-0.9c-0.6-0.4-1-0.2-1.5,0c0.1-0.2,0-0.4-0.1-0.6c-0.4,0.1-0.2,0.9-0.9,0.6
						c0.1-0.2,0.1-0.7,0.4-1c-0.5,0.2-1,0.7-1.5,1c-0.1-0.4,0.2-0.6,0.4-1c-0.6,0.2-1.5,0.5-1.6,1.2l0.4,0.2c-0.2,0-0.1-0.5,0-0.7
						c0.5-0.6,0.7,0.1,0.7,0.4l-0.4,0.2c0.5,1.4,1.4-0.4,2.2-0.4l-0.2,1l0.7-0.9c0.1,0.2,0.2,0.9,0,1c0.5,0.5,0.5-0.4,0.9,0.2
						c0,0.1,0,0.1,0,0.1l0.5-0.4c-0.1,0.2,0.1,0.7-0.2,0.6c0.9,0.6,1.5-0.7,1.7,0l-0.1,0.1c1.2-0.2,0.1-0.7,1.1-1.6
						c0.1,0.6,0.4,1.2,0.5,1.9l0.1-0.7c0.1,0,0.4,0.1,0.2,0.4c0.5-0.5,0-0.4,0.2-0.7c0.5,0.7,1.7-0.1,1.7,1.1
						c0.4-0.5-0.5-0.5,0.2-0.9c-0.1,1.4,0.7-0.1,1.2,0.6c-0.4,0.6-0.7,0.1-0.4,0.9c0.6-1,0.9,0.5,1.4,0.5c0.4-0.9,1,0,1.9,0.1
						c-0.1,0.2,1,1.1,1.1,1.9l-0.1,0.1c0.7-0.6,1.1,0,1.5,0.4c-0.5,0.2-0.7,0.4-1,0.2c0.1,0.1,0.1,0.2,0.2,0.4
						c0.2-0.1,0.5,0,0.7,0.1l-0.6,0.2c0.1,0.2,0.4,0.4,0.6,0.6c0.2,0.2,0.4,0.5,0.1,0.9c0.4,0,0.7-0.1,1.1-0.2
						c0.4-0.1,0.7-0.1,1,0.4c-0.4,0-1,0.1-1.1-0.1c0,0.1,0.2,0.2,0.1,0.4c-0.1-0.1-0.4-0.2-0.6-0.4c-0.2,0.4,0.5,0.2,0.4,0.5
						c-0.5,0-0.4,0.2-0.7,0.1c0-0.1,0.2-0.2,0-0.4c-0.1,0.2-0.4,0.6-0.9,0.6c0.2,0,0.6,0.1,0.6,0.4c-0.1,0.6-0.6,0-1,0.2
						c0.2,0.2-0.1,0.4,0.5,0.7c-0.1,0.1-0.4,0-0.6,0c0.1,0.4-0.6,1.2,0.2,1.4h0.1c0,0,0,0,0,0.1l0,0l0,0c0,0.6-0.5,1-1,1.4
						c-0.5,0.2-1.1,0.5-1.4,0.9l-0.1-0.2c-0.4,0.6-1.1,0.7-1.4,1.4c-0.2,0.1-0.6-0.2-0.6-0.6c-0.4,0.2-0.4,0.6-1.2,0.2
						c0.4-0.5-0.2-0.4,0.4-0.4c-0.6-0.1-0.7-0.5-1.4,0.2c0.1-0.6-0.5-0.7-0.7-0.6l0.4,0.5c-0.4,0.1-0.6,0-0.9,0l0.1-0.9
						c-0.6-0.5-1.1-0.1-1.7,0.1c-0.6,0.2-1.1,0.4-1.4-0.5c-0.5,0.5,0.6,0.5,0.1,1.1c-0.6-0.2-0.9-1.6-1-1.6
						c-0.6-0.7-1.1,0.9-1.9,0.4c0,0.4-0.1,1.1-0.9,1.1c-0.6-0.4-0.2-1.5,0.2-1.5c0.1,0,0.1,0.1,0.1,0.2c0.2,0,0.5,0,0.4-0.4
						l-0.1,0.2c-0.1-0.4-1-0.7-0.6-1.1c-0.6,0.1-0.4,0.4-0.1,0.6c-0.6-0.7-1.2-0.5-2.2-1.1c0.1,0.2,0.1,0.6,0,0.5
						c-1.5-0.7-0.7,0.4-1.9,0.4c-0.6-0.5,0.2-1.1-0.9-0.7c-0.7-0.2-0.2-0.7,0.1-1c-1.2,0.6-2.4,0-3,0.1c0.1-0.1,0.4-0.2,0.5-0.4
						c-0.2,0.2-0.6,0.4-0.9,0.5l0.5,0.4c-0.4,0-0.6,0.1-0.6-0.1c-0.1,0.5,0.6,0.9,0.2,1.5c-0.5-0.1-0.9,0.7-1.2,0.1
						c1.1-0.2-0.5-0.6,0.4-1.1c-0.1,0.1-0.4,0.2-0.6,0.2c-0.1-0.1,0-0.1,0-0.2c-1.1-0.2,0,1-0.9,1.4c0-0.5-0.5-0.7-0.6-0.5
						c0.4-0.1,0.5,0.6,0.2,1c-0.7-0.1-0.5,0.5-0.9,0.6h0.4c0,0.5-0.2,0.5-0.6,0.9c-0.1-0.4,0.2-0.4,0.1-0.5
						c-0.2,0.9-1.2-0.4-1.7,0.4c-0.4-0.2-0.2-0.7-0.6-0.9c-0.5,0.7-1-0.4-1.6,0.4c0.4,0.5,0.4,0.4,0,1.1l1.1-0.7l-0.6,1
						c0.4-0.1,0.7-0.6,1-0.5c-0.2,0.6-0.2,0.4,0.1,0.9c-0.7-0.7-0.9,0.9-1.7,0.4l-0.4-1.5c-1.1-0.4-1.5,1.1-2.7,1l0.5,0.1
						c0,0.6-0.7,0.2-1.1,0.5c0-0.5-0.4-0.6-0.5-0.9c0.1,0.4-0.9,0.1-0.9,1.1l-0.6-0.5c-1-0.1-1,1.6-2,1.5c0.2-0.5-0.2-0.9,0.4-1.4
						c-0.4,0-0.6,0-0.6,0.4c-0.2-0.2-0.9,0.7-1.1,0.4c-0.1,0.2-0.1,0.7-0.5,0.7c0-0.1,0-0.2,0-0.2c0,0.2-0.5,0.4-0.1,0.9
						c-1.1-1.5-2.9,0.2-3.7-1c-0.7,0.2-1.6,0.4-2.2,0.4c0-0.1,0-0.2,0.1-0.2c-0.9-0.5-0.5,1.4-1.6,0.9c-0.5-0.7,0.5-0.4,0.2-0.7
						c-0.1-1.6-1.2,0.2-1.9-0.7l0.1-0.1c-0.5-0.5-1.2,0.6-2.1,0.5c0,0,0-0.1,0-0.2c-0.6,0.9-1.7,1-2.6,1.2c0.2-0.6,0.4-0.4,0.2-1
						c-0.4,0.1,0,1-0.7,1.1c-0.2-0.4-0.7-0.7-0.7-1.4h0.7c-0.2-0.9-0.9,0-1.2-0.2l0.1-0.4c-1,0-1.1,1-2.2,0.9l0.1,0.2
						c-0.7,0.9-0.5-0.6-1.1,0v-1c-0.4,0.1-1.5,0.7-2.4,0.7c0.6-0.6,1.5-0.9,2-1.1c-0.4-0.1-1.2-0.1-1.6,0.2c0.1-0.1,0.4-0.2,0.5-0.1
						c-0.6,0.6-1.4,0.9-2.1,0.6c0.6-1.7-1.9-1-1.7-2.6c-1.5,0.1-2.1-1.4-3.2-2.1c-0.5,1.5-0.4-0.2-1.2,1c-0.4-0.1-0.4-0.2-0.4-0.4
						c-0.1-0.5-0.1-1-0.1-1.4c0.1-0.5,0.5,0,0.6-0.2c-0.4-0.6,0.2-0.6,0.2-1.2c-0.4,0.4-0.7,0.4-0.7-0.1c-0.1,0.2-0.1,0.6-0.1,0.9
						c-1.2-0.2,0.5-1.4-0.6-1.7h0.5c-0.5-0.2-0.7-1.4-2-1.4c0.1-0.1,0.5-0.4,0.6-0.2c-0.1-0.5-0.5-1-0.9-1.6c-0.2-0.5-0.5-1.1,0-1.6
						l0.4,0.1c-0.1-0.2-0.6-0.5-0.2-0.6c0.1,0,0.4,0.1,0.4,0.1c-0.1-0.1-0.5-0.7-0.2-0.9l0.4,0.4c0.4-0.5,0.2-0.9,0.1-1.4
						s-0.4-1.1-0.1-1.6c1,0.5,1.7,0,2.1-0.2l0.1,0.1c0.9-0.9,0.9-2.2,1.7-3.5c0.7,0.2,1.2,0,2-0.4c0.4-0.1,0.6-0.4,1-0.4
						c0.4-0.1,0.7-0.1,1.1-0.1c-0.2-0.1-0.2-0.9,0-1c0.4,0.1,0.6-1,0.9,0h-0.1c0.5,0.9,0.9,0.5,1.4,0.5l-0.1-1.4
						c0.7,0.9,1.6,0.6,2.5,0.5c0.7-0.2,1.6-0.4,1.9,0.5c0.4-0.2,0.7-0.2,1.1-0.5l-0.1,0.7c0.9,0.4,1.2,0.5,2.4,0.6l-0.4,0.4
						c0.6,0.2,1.4-1.7,2-1.6l-0.1,1c1.1,0.4,1.9,1.6,3.2,1.2c-0.1,0.1-0.2,0.4-0.5,0.4c0.5,0.2,1.6,1.6,2.1,0.2
						c-0.2,0.4,0,0.6,0.5,0.6c0.6,0.2,1.5,0.4,2,0.4l-0.2,0.6c1-0.5,1-0.7,2-0.4c0.2,0.2,0.2,0.9-0.1,0.4c0.9,1,0.5-0.5,1.5,0.6
						c0,0.1-0.1,0.2-0.2,0.4c0.7,0.5,0.7,0.4,0.7-0.4c0-0.1,0-0.2,0-0.4c0-0.9,0.7-1.4,1.1-0.9c-0.1-0.6-0.4-1.6,0-2
						c0.2,0.1,0.2,0.5,0.2,0.6c0.5-0.6,0.6-1.4,0.7-1.9c0.1-0.5,0.1-0.7,0.6-0.7c0.1,0.1,0.2,0.1,0.4,0.1c-0.2,0.2-0.5,0.5-0.6,0.7
						c-0.2,0.4-0.4,0.5-0.4,0.5c0.2,0.2,0.5,0.1,0.7,0.1s0.5,0,0.6,0.7c0-0.1,0-0.4,0.1-0.5c0-0.2,0-0.2,0-0.4
						c0-0.2-0.1-0.4-0.1-0.6c0-0.4,0-0.9,0.4-0.9c0,0,0.1,0,0.2,0.1V15c0.1,0,0.1-0.1,0.1-0.4c0.2,0,0.4-0.1,0.5-0.2
						c0.4,0.4,0.6-0.2,0.9-0.4c-0.5-0.5-0.1-0.7-0.7-0.9c0.1,0,0,0.1-0.1,0.2v0.1v-0.1c-0.1,0.1-0.4,0.4-0.5,0.5
						c-0.1-0.4-0.1-0.9,0.4-0.7c-0.1-0.5-0.4-0.9-0.4-1.1c1,0.5,1.9,0.5,2.2,1c0.5-0.9,1.6-1.1,1.7-2.6c0.2-0.2,0.4,0.2,0.6,0.5
						c-0.1,0.1-0.2,0.2-0.2,0.4c0.4-0.5,1.4-0.5,1.4-1.4c0.7,0.4-0.2,0.9,0.6,0.6l-0.1,0.2c0.9,0.6,1.5,0.1,2.4-0.4
						c0.7-0.5,1.9-0.7,2.5,0.5c-0.1-0.1-0.1-0.2-0.1-0.4c1,0.7,2.1,1,3.2,1.6c1.1,0.5,2.1,1.4,2.1,2.6c0.1,0.6,0.6,0.4,1.2,0.5
						l-0.6,0.5c0.4,0,0.7,0.1,1.1,0.2c0.5,0.4,0.1,1-0.1,1.4c-0.2,0.5-0.5,0.9,0,1.4l0.5-0.1c0,0.4,0.2,1.4-0.4,1.1
						c0.1,0,0.5,0.2,0.2,0.4l-0.4-0.1c0.1,0.4,0.2,0.7,0.2,1.1c-0.2,0.2-0.6,0-1-0.2c-0.4-0.2-0.6-0.4-0.9-0.1c0,0.1,0,0.5,0.1,0.7
						c0,0.4,0,0.7,0.1,0.7c0.1-0.1,0.5,0,0.7,0.2l-0.2,0.4c0.2,0.5,0.5,1.1,0.7,1.6c0.2,0.5,0.7,0.7,1.9,0.5c0.1-0.5,0.4-1,0.4-1.4
						c0.2,0,0.5,0,0.6,0c-0.2,0.4-0.5,0.6-0.7,0.9c0.9-0.1,0.7-0.7,0.7-1.2c0.4,0.1,0.6,0,0.7-0.1c-0.1-0.6-0.2-1.1-0.5-1.6
						c0.5,0,0.6,0.9,1.1,0.1c-0.4-0.7-1.1,0.1-1.2-0.7c0.6-0.4,1-0.1,0.7-0.9c0.4,0,0.5,0.1,0.6,0.4c-0.2-0.6,0-1.6-0.6-1.9
						c0.6-0.6-0.4-1.7,0.7-1.9c-0.2-0.1-1-0.7-1.2-1.1c0.7,0.2,0.6-0.2,0.5-0.7s-0.4-1.1,0.4-1.2c-0.7-0.1-1-0.5-1.5-1.1
						c-0.4-0.5-0.9-1.1-1.5-1.4c0.1,0,0.4,0,0.4,0.1c-0.4-0.5-0.2-1-0.4-1.4c-0.7,0.6-1.6,0.1-2.4,0.4c0-1.2,1.1-0.6,1.5-1.5
						c-0.5,0.6-1.5-0.2-1.7,0.5c-0.1-0.7-0.2-0.5,0-1.4c-0.7,1-0.6-0.1-1.4,0.2c-0.4-0.9,0.4-1.1-0.6-1.1c-0.1-0.2,0-0.4,0.2-0.5
						C521.3,6.8,521.6,6.8,521.6,6.8z M502.4,12.1L502.4,12.1c0.1-0.1,0.1-0.2,0.2-0.4C502.5,11.9,502.5,12,502.4,12.1z M501.4,13.5
						c0.1-0.1,0.2-0.4,0.5-0.5c0.2,0.1,0.4,0.4,0.2,0.4C502,13.1,501.7,13.3,501.4,13.5z M506.9,14.5c-0.1,0.2-0.2,0.1-0.4,0
						c0-0.1,0.1-0.1,0.1-0.2c0,0,0,0,0-0.1C506.9,14.2,506.9,14.3,506.9,14.5z"/>
					<path class="st0" d="M506.6,13.6C506.6,13.5,506.6,13.5,506.6,13.6c0-0.1-0.1-0.1-0.1-0.1C506.5,13.5,506.5,13.6,506.6,13.6
						L506.6,13.6z"/>
					<path class="st0" d="M542.7,32.1L542.7,32.1C542.7,32.1,542.9,32.1,542.7,32.1C542.9,32.3,542.9,32.1,542.7,32.1z"/>
					<polygon class="st0" points="486.4,9 486.4,9.2 486.5,9.1 					"/>
					<path class="st0" d="M544.8,24.4c0,0,0-0.1,0-0.2C544.8,24.2,544.8,24.3,544.8,24.4z"/>
					<path class="st0" d="M541.7,21.7c-0.1-0.1-0.2-0.4-0.4-0.5C541.5,21.4,541.6,21.6,541.7,21.7z"/>
					<path class="st0" d="M539.1,20.2c-0.1,0.1-0.1,0.2-0.1,0.2l0,0L539.1,20.2z"/>
					<path class="st0" d="M518.2,38.5L518.2,38.5C518,38.7,518.1,38.6,518.2,38.5z"/>
					<path class="st0" d="M528.9,36.5c-0.1,0.1-0.4,0.1-0.5,0.1C528.7,36.7,528.8,36.9,528.9,36.5z"/>
					<path class="st0" d="M503.8,42.6L503.8,42.6L503.8,42.6L503.8,42.6z"/>
					<path class="st0" d="M527.8,36.4c0.1,0.2,0.4,0.2,0.6,0.2C528.3,36.5,528,36.4,527.8,36.4z"/>
					<path class="st0" d="M526.7,19.2h-0.1v0.1L526.7,19.2z"/>
					<path class="st0" d="M526.6,19.3l-0.1,0.1C526.6,19.4,526.6,19.4,526.6,19.3z"/>
					<path class="st0" d="M526.2,19.6l0.2-0.2C526.3,19.4,526.2,19.4,526.2,19.6z"/>
					<path class="st0" d="M530.5,19.3v-0.2C530.5,19.1,530.5,19.2,530.5,19.3z"/>
					<path class="st0" d="M531.7,19.2c-0.2-0.1-0.6-0.5-1.1-0.4v0.2C530.7,18.7,531.4,19.7,531.7,19.2z"/>
					<path class="st0" d="M535.9,22.7l-0.9-0.4c0.1,0.2,0.2,0.6-0.1,0.7C535.9,24,534.9,22.4,535.9,22.7z"/>
					<path class="st0" d="M538.4,23.7c-0.5,0-0.1,0.4-0.1,0.5C538.5,24,538.6,23.9,538.4,23.7z"/>
					<path class="st0" d="M538.1,34.8l-0.1-0.6C537.8,34.3,538.1,34.4,538.1,34.8z"/>
					<polygon class="st0" points="534.5,38.4 535,38.7 535.1,38.2 					"/>
					<path class="st0" d="M532.9,33.5l0.1-0.1c-0.1,0-0.4,0.1-0.6,0.1C532.7,33.6,532.8,33.6,532.9,33.5z"/>
					<path class="st0" d="M499.3,36.7l0.1,0.7C499.8,37.4,499.8,36.5,499.3,36.7z"/>
					<path class="st0" d="M484.9,37.1c-0.1-0.4-0.5-0.7-0.7-0.4C484.5,36.9,484.7,37.2,484.9,37.1z"/>
					<path class="st0" d="M482.4,15.2c-0.1,0.1-0.1,0.2-0.2,0.2c0.1-0.1,0.2-0.1,0.5-0.2H482.4z"/>
				</g>
			</g>
		</g>
	</g>
</g>
</svg>
