<?xml version="1.0" encoding="utf-8"?>
<!-- Generator: Adobe Illustrator 23.0.5, SVG Export Plug-In . SVG Version: 6.00 Build 0)  -->
<svg version="1.1" id="Capa_1" xmlns="http://www.w3.org/2000/svg" xmlns:xlink="http://www.w3.org/1999/xlink" x="0px" y="0px"
	 viewBox="0 0 703 611.1" style="enable-background:new 0 0 703 611.1;" xml:space="preserve">
<style type="text/css">
	.st0{fill:#FFFFFF;}
</style>
<image style="overflow:visible;enable-background:new    ;" width="1919" height="1081" xlink:href="1620ED0D.jpeg"  transform="matrix(0.9995 0 0 0.9995 -7905.583 -7876.9331)">
</image>
<ellipse class="st0" cx="393.7" cy="208.3" rx="56.6" ry="51.4"/>
<g>
	<g>
		<g>
			<g>
				<path class="st0" d="M334.1,208.7c0-0.5-0.5-0.4-0.6-0.4C333.6,209.2,334.3,208.7,334.1,208.7z"/>
				<polygon class="st0" points="336.1,217.3 335.9,217.2 336.6,218.3 				"/>
				<path class="st0" d="M338.2,225c0.5-1-1-2.7-1.1-4.2l0.1-0.2l-0.9-0.5c0.2,0.9,0.7,1.7,1.1,2.6
					C337.7,223.6,338.1,224.4,338.2,225z"/>
				<path class="st0" d="M338.1,229.7c0.2-0.4,0.6,0.7-0.2-1c0,0.1,0,0.1,0,0.2C337.9,229.1,338,229.4,338.1,229.7z"/>
				<path class="st0" d="M337.7,229C337.5,228.1,337.7,229.6,337.7,229L337.7,229z"/>
				<path class="st0" d="M339.7,232.5l-0.7-0.9c-0.1,0.4,0.4,1.2,0,1C339.7,233.6,339.7,233.2,339.7,232.5z"/>
				<path class="st0" d="M340.9,233.1l-0.4-0.5C340.5,232.8,340.5,233,340.9,233.1z"/>
				<path class="st0" d="M339.6,231.7l0.9,1c0-0.2,0.2-0.4-0.4-0.5C340.4,232.2,340.1,232.1,339.6,231.7z"/>
				<path class="st0" d="M339.4,231c-0.1-0.6-0.4-1.4,0.4-0.6c-0.6-0.9-1-1.2-1-1.1C338.6,229.5,338.9,230.1,339.4,231z"/>
				<path class="st0" d="M339.2,225v-0.9c-0.1-0.1-0.4-0.4-0.5-0.6C338.9,223.9,339,225.2,339.2,225z"/>
				<path class="st0" d="M343.2,238.8c0.1,0,0.1-0.6,0.4-0.9l-0.6-0.6C343,237.8,343.3,238.7,343.2,238.8z"/>
				<path class="st0" d="M343.5,238.1c0.4,0.2,0.6,0.6,1,0.9C343.8,237.9,343.6,237.8,343.5,238.1z"/>
				<polygon class="st0" points="341.9,232.8 340.2,231.3 342,233.2 				"/>
				<polygon class="st0" points="346.2,242.7 345.5,242.4 346.7,242.9 				"/>
				<path class="st0" d="M348.5,245c-0.6-0.1,0.1,1-0.5,0.7c0.6,0.6,1.4,0.9,2.1,1.1C349.4,246.4,348.9,245.9,348.5,245z"/>
				<path class="st0" d="M351.2,247.4c-0.4-0.1-0.6-0.4-1.1-0.5C350.4,247,350.8,247.3,351.2,247.4z"/>
				<path class="st0" d="M345.8,240.6c0,0.1-0.1,0.5,0.2,1.1l0.1-0.7C346,240.8,345.8,240.7,345.8,240.6z"/>
				<path class="st0" d="M346.1,240.9L346.1,240.9c0.4,0.5,0.6,0.7,0.6,0.9C346.7,241.7,346.5,241.4,346.1,240.9z"/>
				<path class="st0" d="M345.7,240.4C345.7,240.6,345.7,240.6,345.7,240.4C345.8,240.6,345.8,240.4,345.7,240.4z"/>
				<path class="st0" d="M343.1,235.8c0.6,0.5,1.7,1.5,1.4,0C343.8,235.7,344.1,236.5,343.1,235.8z"/>
				<path class="st0" d="M345.8,239.6l-0.7-1.1c-0.1,0.1-0.1,0.4-0.5,0.2L345.8,239.6z"/>
				<polygon class="st0" points="346.3,239.9 345.8,239.6 346.1,239.9 				"/>
				<path class="st0" d="M349.8,245.4c0.6,0.2,1,0.6,1.6,1.1c-0.5-0.6-1-1.2-1.5-1.7C349.7,244.8,349.3,244.8,349.8,245.4z"/>
				<path class="st0" d="M348,243.3C348,243.3,348.1,243.3,348,243.3C348.1,243.3,348.1,243.2,348,243.3z"/>
				<polygon class="st0" points="356.8,250.9 356.8,250.8 356.7,250.8 				"/>
				<path class="st0" d="M349.9,244.7c-0.4-0.5-0.6-0.6-1-0.7c0.4,0.2,0.6,0.6,1,0.9C350.1,244.8,350.1,244.8,349.9,244.7z"/>
				<path class="st0" d="M352.8,248.4c-0.1-0.2-0.4-0.6-0.6-0.9C352.3,247.9,352.7,248.5,352.8,248.4z"/>
				<path class="st0" d="M348.1,243.5L348.1,243.5C348.1,243.8,348.1,243.7,348.1,243.5z"/>
				<path class="st0" d="M348.1,243.5c0.2,0.1,0.5,0.2,0.7,0.4c-0.2-0.2-0.5-0.4-0.7-0.5V243.5z"/>
				<path class="st0" d="M360.5,249.3c-0.4,0.4-1.9-0.1-2.5-1.2c-1.1-0.5-1.6,1.4-1.1,2.7c0.1-0.1,0.2-0.4,1.5,0.1
					c-0.2-0.5-2-2.1-0.9-1.9c1.5,0.7,1,0.9,1.6,1.6c-0.2-0.9,2.2,0.5,2.5-0.5l-1.4-0.5C360.1,249.5,360.8,249.6,360.5,249.3z"/>
				<path class="st0" d="M354.8,249.3l-0.5-0.2c0.4,0.5,0.6,0.9,1,1.7c0.9,0.4,1.1,0.2,1.2,0.1c-0.7-0.5-1.4-1.1-2-1.6H354.8z"/>
				<path class="st0" d="M352.6,247.4c0.6-0.1,1.9,0.5,1.6-0.5c-1.2-1-1.1-0.4-2-0.7C354.2,247.7,351.3,245.9,352.6,247.4
					c-0.4-0.4-0.7-0.6-1.1-0.9c0.2,0.4,0.6,0.7,0.9,1.1l0,0l0,0l0,0c0-0.1,0-0.1,0,0l0,0C352.3,247.4,352.4,247.4,352.6,247.4
					c0.5,0.6,0,0.1-0.2,0.1c0,0,0,0-0.1,0l0,0l2.1,1.4C354.1,248.5,353.4,248.1,352.6,247.4z"/>
				<path class="st0" d="M346.1,236.3c0,0.1,0,0.1,0,0.1C346.2,236.6,346.2,236.6,346.1,236.3z"/>
				<path class="st0" d="M346.5,237.3c-0.1-0.1-0.4-0.1-0.7-0.6c-0.1-0.5,0.2-0.1,0.4-0.2c-0.4-0.2-1-0.7-0.6,0.2l0.1,0.1
					c0.4,1,0.7,2.4,0.5,2.2C346.3,238.6,346.5,238.2,346.5,237.3z"/>
				<path class="st0" d="M349.3,242.4l1.6,1.2l-0.4-1.1l-0.1,0.2C349.7,241.9,349.6,242.4,349.3,242.4z"/>
				<polygon class="st0" points="356.9,251.3 356.3,251.5 357.8,251.6 				"/>
				<polygon class="st0" points="359.2,252.8 358.9,253.1 359.7,253.3 				"/>
				<path class="st0" d="M439.3,182.8l-0.4-0.4C439,182.7,439.2,182.8,439.3,182.8z"/>
				<path class="st0" d="M441.4,186.3h0.2C441.5,186.2,441.4,186.2,441.4,186.3z"/>
				<path class="st0" d="M423.9,255.2c1,0,2.2,0.1,1.9-0.4l-0.5-0.4C424.9,255,424.4,255.1,423.9,255.2z"/>
				<path class="st0" d="M449,218.9c-0.1,0-0.1,0.1-0.2,0.2c0.1,0.2,0.2,0.5,0.4,0.6C449.1,219.5,449,219.2,449,218.9z"/>
				<path class="st0" d="M446.9,217.8l0.5-1C447.3,217,447.1,217.3,446.9,217.8z"/>
				<path class="st0" d="M422.9,168.4l-0.9,0.1C422.9,169,422.6,168.5,422.9,168.4z"/>
				<path class="st0" d="M385.7,262.1c0.7,0.4,1.4,0.5,1.9,0.6C386.7,262.2,385.9,261.7,385.7,262.1z"/>
				<path class="st0" d="M445,181.1c-0.2-0.2-0.5-0.4-0.6-0.2C444.8,181.1,444.9,181.2,445,181.1z"/>
				<path class="st0" d="M389.9,262.8c-0.1,0-0.2-0.1-0.4-0.1c-0.6,0-1.1,0.1-1.9,0C388.3,263,389,263.1,389.9,262.8z"/>
				<path class="st0" d="M350.1,180.6l-0.1,0.1C349.8,180.7,349.9,180.6,350.1,180.6z"/>
				<path class="st0" d="M335.4,200.7c0-0.2,0.1-0.6,0.1-1.1C335.5,199.9,335.4,200.2,335.4,200.7z"/>
				<path class="st0" d="M369,258.1C368.4,258,368.9,258.1,369,258.1L369,258.1z"/>
				<path class="st0" d="M367.2,255.1c0.1,0,0.2,0,0.4-0.1C367.5,255,367.4,255.1,367.2,255.1z"/>
				<path class="st0" d="M395.6,259.5L395.6,259.5C395.5,259.3,395.5,259.5,395.6,259.5z"/>
				<path class="st0" d="M368.2,257.6c0.1,0.1,0.4,0.2,0.6,0.5C368.9,258,368.6,257.7,368.2,257.6z"/>
				<path class="st0" d="M368.2,257.9c-0.1-0.1-0.4-0.1-0.5-0.2C367.7,257.6,367.7,257.7,368.2,257.9z"/>
				<path class="st0" d="M369.7,258.5c-0.4-0.1-0.6-0.2-0.9-0.5c0.1,0.1,0.1,0.1,0.1,0.1C369.1,258.2,369.4,258.4,369.7,258.5z"/>
				<path class="st0" d="M386.8,159h-0.1C386.2,159.3,386.4,159.2,386.8,159z"/>
				<path class="st0" d="M432.6,242.3L432.6,242.3L432.6,242.3L432.6,242.3z"/>
				<path class="st0" d="M433.6,240.7c-0.1,1-0.5,1.4-1,1.6l1.5,0.6C433.9,242.2,433.8,241.4,433.6,240.7z"/>
				<path class="st0" d="M433,175.6l0.6,1.2c-1.7-0.6-2.2-1.5-1.9-0.1c0.6-0.5,1.6,0.4,2.5,1.2c0.9,0.9,1.7,1.9,2.4,1.4l0.2,0.9
					c-0.1-0.2-0.2-0.1-0.4-0.4c0.2,0.9,0.6,1,1.2,1c0.6,0,1.2,0.1,1.7,1.1c0.4,0.7,0.4,1.2,0,1l1.2,1.2c0.2,0.5,0,0.5-0.4,0l0.7,1
					c0.2,0.4,0.5,0.7,0.6,1.1l0,0c0.4,0.2,1.1,0.7,1.5,1c0.1,0.7-0.4-0.2-0.4,0l1,1.1c-0.1,0.7-1.1-0.1-1.5-1.1
					c-0.5,1-0.2,1.2,0.2,1.5c0.2,0.1,0.5,0.4,0.6,0.7c0.1,0.4,0.4,0.9,0.4,1.6l-0.7-1.1c-0.6,1.2,0.1,2,0.1,3.6
					c0.1-0.4,0.2-3.4,1.2-2.1c0,0.5,0.2,1,0.9,1.6c-0.2,0.1-0.4,0.4-0.2,0.6c0,0.4,0.2,0.7,0.4,1.2l-0.7,0.1c0.5,1,0.9,0.7,1.4,1.4
					c0.2,1.2-0.2,1.6-0.7,2c0.2,1.9,0.7-1.6,1.2,0.7c0,0.9,0.1,1.5,0.4,2.2c0.1,0.7,0.6,1.5,0.9,2.5c-0.2,1.2-0.5-0.1-0.7,0.2l0.6,1
					c0,0.2-0.2,0.1-0.2,0.1c0.2,0.9,0.7,0,1.1,1.4c0.5,0.1,0.2,0.9-0.1,1.7c-0.4,0.9-0.7,1.9-0.2,2.7c-0.2,0.4-0.5-0.2-0.7-0.1
					c0.2,1.2,0.4,1.7,0.5,2.1c0.1,0.5,0.1,0.9,0.5,1.9l-0.7,1.5c0.7-1.1,1.2,0.6,1.5,2.1c0.4-0.4,0.6-0.7,0.9-0.9
					c0,0.7,0,1.5-0.1,2.4c-0.2,0.2-0.4,0-0.6-0.5c0,0.1,0,0.4,0.1,0.5c-0.5,0.7-0.9,0.1-1.1-0.5c0.2-0.2,0.5-0.5,0.7-0.6
					c-0.2-0.6-0.7-1.2-1.2-1.2c0,0.1,0.1,0.5,0,0.7c-0.1-0.1-0.1-0.2-0.2-0.2s0,0.4,0.1,0.7l-1,0.2l0.4,0.2l-1.2,2.5
					c0.1,0.5,0.1,1.1,0.2,1.6c0,0.5,0.1,1.1,0.1,1.7c0,1.2,0,2.6-0.6,4.1c-0.2-1-0.9-0.6-1.5-1c1.2-0.4,0.7-2.4,1.5-3.9
					c-0.4,0.7-0.6,0.5-0.7,0.2c-0.1,1-0.2,2-0.5,3c-0.5-0.4-0.7,0.4-1.2,0.9c1.4,0-0.2,2.4-0.6,3.6c-0.4-0.1-0.6-0.6,0.1-1.9
					c-1.5,1,0.1,2.5-1.4,3.5c0.1-0.4,0.4-0.5,0.2-0.6c-0.1,0.9-1.6,2.5-1.6,1.9l0.1-0.2c-0.6,1-1.9,2.4-2.7,3.6
					c-0.9,1.4-1.6,2.5-1.4,3c-0.1-0.1-0.7-1.1-0.7-1.4c-0.1,1.7-0.4,3.7-0.6,5.6c-0.4-1-2.9-1.6-1.7-3.2c-0.5,0.4-1.1,0.6-1.9,1.6
					c0.4-0.1,1.6,0.4,1.2,0.7c-1.7,0.1-1.1,0.2-3.1,0.7c0.6-0.2,1,1.4,0.1,1.9c0-0.2-0.9-1.1-0.7-1.4c-0.4,0.7-0.7,1.6-1.1,2.5
					c0.4-0.5-0.6-1-1.2-1.1c0.4,0.1-1.6,1.1-2.1,1.5c0.4-0.1,0.6-0.1,1-0.2c-0.5,0.4-0.9,0.6-1.2,1c-0.2,0.4-0.4,0.7-0.6,1.1
					c-0.4,0.7-0.6,1.5-1.9,2.1c0.1-0.4-0.1-2-1.4-1.5c-0.1,0.9-1,4.2-3,5.7l-0.6-0.2c-0.5,0.4-1.1,0.6-1.6,1
					c0.7-1.2,2.9-4.7,3.9-6.2c-1,0.1-0.5-0.4-1.7,0.2c-0.6-0.1,0.5-0.9,0.9-1l-3.1,1.1c0.5,0.7-2.1,1.6-1.7,2.2l1.6-1
					c0.5-0.4,1-0.7,1.5-1.1c0.2,0.4,0,1.1-0.6,1.9c-0.6,0.7-1.6,1.4-2.9,1.7c-0.6-0.1,0-1.6-0.1-1.9c-0.2,0.4-2,1.2-2.2,1.1l0.9-0.7
					c-1.2,0.1-1.7,1.6-3.5,1.2c-0.6,0.1-1.9-0.6-1.9-0.1c1,0.7,1.9,3.6,1.4,4.4c-0.1,0-0.9,0-1.7-0.1c-0.9-0.1-1.7-0.4-2.1-0.5
					c-1-0.6,1.1-2,0.2-2.5c0,0.2-0.5,0.6-0.6,0.7c-0.6-0.1,0.1-0.7-1.1-0.5c-0.1,0.9-2.6,0.2-0.5,0.7c-1.2,0.4-1.4,0.1-2.7,0.1
					c0.5,0.5-1.2,1.9-2.5,2.2c0-0.2-0.2-0.5-0.4-0.6c-0.6,0-1.2,0-1.7,0c-0.5,0-1-0.1-1.5-0.2c-1-0.1-1.9-0.2-3.1-0.4
					c-0.2-0.2-1.4-0.5-0.9-0.9c-0.4,0.1-0.7,0.4-1.4,0.2c-1.4-0.9,1.6,0.1,0.6-0.9c-0.1,0.5-2,0.4-3.1,0.6c0.2,0.7,2.4,0.5,3.5,0.4
					c-0.1,1-2,1.9-4.7,2c-2.1,0-0.7-0.7-1.1-0.7c-1.9-0.5-2.7-0.2-3.6,0c-0.4,0.1-0.7,0.1-1.2,0.1c-0.5,0-1-0.1-1.7-0.6
					c-1-1,0.4-1.2,0.2-1.9c0.4,0.1,0.7,0.1,1.1,0.4c0.4,0.1,0.6,0.2,0.9,0.4c0.5,0.2,1,0.5,1.5,0.6l-1.2-0.6c0.6-0.1,1.7,0,2.2,0.4
					c-0.5-0.5-2-0.7-3.7-1.2c-1.7-0.6-3.7-1.2-5-2c-0.6,0-1.5-0.1-1.2,0.2l0.9,0.2c0.6,0.9-1.9,0-0.9,0.7c-1.2-0.1-2.9-0.1-4.4-1.2
					v-0.9c-0.1,0.2,0.9,1,1.4,0.9c-0.9,0-2-2.1-3.1-1.6l0.9,1.1c-1.2-0.2-3.1-0.4-4.4-1.4c0.2,1,0.4,0.1,1,1.5
					c-0.4-1.4,3.6,2.1,2.7,0.2c0.2,0.7,0.6,1.1,1.1,1.4c0.5,0.4,1,0.6,1.5,1.4c0-0.2-0.4-0.6,0.9,0c0.1,0,0.2-0.1,0.4-0.1
					c0,0,0,0,0.1,0l0,0c0.1,0,0.1,0,0,0c-0.2-0.2-0.5-0.5-0.5-0.6c0.9-0.2,2.9,0.6,3.6,0.6c0.7,0.4-0.4,0.1-0.1,0.5l1.2-0.1
					c-0.1,0.6,1.7,1.6-0.1,1.2l1.6,0.6c0.9,0.6,2.2,1.2,3.1,1.1c0.7,0.4,2.1-0.1,1.4,0.1l2.7,0.2v0.1c1.2,0.4,2.7,0.2,4.1,0.4
					c1.4,0.1,2.9,0.4,4.4,0.9c0.9-0.1,1.9-0.2,3.4,0l0.2,0.5c1.1-0.1,3.5,0.4,4-0.1c0.6,0.6,2.1,0.6,3.6,0.4
					c1.5-0.2,3.1-0.6,4.1-0.7v-0.6c0.4,0,0.7-0.1,1-0.1c0.4-0.1,0.6-0.2,1-0.4c0.7-0.2,1.4-0.5,2.2-0.9l-0.2-0.5
					c0.6-0.4,1.6-0.5,2.6-0.6c1-0.1,2.2-0.4,3.4-0.7c-0.1,0.2-0.6,0.4-1.1,0.4c0.7,0.1,1.5,0,2.2-0.2c0.4-0.1,0.6-0.2,1-0.5
					c0.4-0.1,0.6-0.4,1-0.6c1.2-0.9,2.4-1.7,3.7-1.7c0.5-0.4,0.9-0.6,1.4-0.7c0,0-0.1,0-0.1,0.1c0,0,0.1-0.1,0.2-0.1
					c0.2,0,0.6-0.1,0.9-0.1c-0.2,0-0.6,0-0.7,0.1c0.4-0.2,1-0.6,1.6-1.1l0.6,0.4c0,0,0.1,0,0.1-0.1c0.7-0.1,0.4-0.5-0.2-0.7
					c0.2-0.2,0.5-0.5,0.6-0.7c1,0.6,1.4-1.2,2.6-0.9c0.1-0.7,2.9-2.4,2.5-3.5c0.1,0.1,0.4,0,0,0.2c0.6-0.4,1.4-0.9,1.7-1.5l0.7,0.4
					l0.6-1.9c1.1-0.4,1.6-0.5,1.2,0.7c1.2-2.5,1.2-1.7,2.1-3.9l0.2,0.4c0.2-0.2,0.5-0.7,0.7-1.1c0.2-0.5,0.5-0.7,0.7-0.9
					c1.9-0.7,5.6-6.6,8.1-10.3c-1.7,0.1,1.6-1.6,0.6-2.2c0.4-0.1,0.9-0.6,0.9,0.1c0.5-2.2,1.9-3.1,1.5-4.9c0.4-0.1,0.4,0.6,0.6,0.5
					c0-0.2-0.1-0.7,0.1-1s0.1,0.4,0.2,0.9c0.6-2.4-0.4-2.9-1.2-3.2c0.7-1,1-1.6,0.4-2.6c0.4-0.4,0.9-1,0.7,0.5
					c0.1-0.7,1.2-4.9,0.5-5.1c0.2-0.2,0.1-1.1,0-1.4c0.1-1.9,0.2-2,0.2-3.7l-0.1,0.5c-0.9-0.7-0.2-1.5-0.4-2.9h0.1
					c0.2-1.6,0.1-2,0-2.4s-0.1-0.6,0-2.4l-0.6,0.2c-0.6,0-0.6-0.7-0.5-1.7s0.4-2.1-0.1-3c0,0.2-0.1,0.5-0.1,0.7
					c-0.6-0.9,0.9-3.2,0.7-4.4c0-0.2,0.2,0.2,0.5,0.6c0-3-0.9-0.1-1.6-2c0.2-0.5,1.2,0.1,0.7-1.2c0-0.4-0.6-1.2-1.4-2.2
					c-0.4-0.5-0.6-1-1-1.5c-0.4-0.5-0.5-1-0.6-1.5c-0.1,0.5-0.2,1-0.9,0.2c-0.4-0.6-0.6-1.6-0.9-2.6c-0.2-1-0.7-1.7-1.6-2.1
					c0-0.2,0-0.4,0-0.4c-0.9-0.7-2.4-2.7-3.2-2.9c0.5-1-0.9-2.2-2-3.2c-1.2-1-2.5-1.7-1.9-2.5c-0.9-0.7-1.6-1.6-2.5-2.4l0.2-0.1
					c-1.6-1.5-2.5-1.6-3.4-1.7c-0.4-0.4,0.1-0.4,0.1-0.4c-0.2-0.2-0.5-0.5-0.7-0.7c-0.2-0.2-0.5-0.4-0.6-0.5
					c-0.4-0.4-0.7-0.5-1.1-0.7c-0.7-0.4-1.5-0.6-2.9-0.9l0.1-0.6c-0.4,0-1.2-0.7-2.5-1.6c-0.6-0.5-1.2-0.9-2-1.2
					c-0.7-0.4-1.5-0.6-2.4-0.7c0,0,0.1-0.1,0.5-0.1c-1.7-0.4-3.5-1.7-5.2-2.4c-1.6-0.7-3.1-1.4-4.1-0.5h-2.4
					c2.9,0.9-0.6,0.9,0.4,1.5c-1.1-0.1-2.7-1.4-1.4-1.1l0.1,0.1c0.7-1-3.5-1.2-3.2-1.9c-1.5-0.1-2.9-0.4-4.4-0.6
					c-1.4-0.2-2.9-0.2-4.4-0.5c-0.7-0.1-1.4-0.1-2.1-0.2c-0.7,0-1.4,0-2.1,0c-1.4,0-2.9,0-4.2,0.1c0.2,0.2,0.5,0.6,0.7,0.9
					c-0.6,0-1.2,0.1-1.9,0.1c-0.5-0.1-0.7-0.6,0.6-0.7c-0.7-0.4-2.2,0.7-2.2,1c-2.7,0,0.9-1.2,0.1-1.1l-1.1,0.2l0.2,0.1
					c-0.9,0.5-0.9,0.9-2.5,1.1c-1,0-0.6-0.4-1-0.4c0,0-0.1,0-0.6,0.1l-2.4,0.5l1.1,0.5c-1,0.6-2.2,0.5-1,1c-1-0.5-3.1,0.1-5.2,0.9
					c-0.5,0.1-1,0.4-1.5,0.5c-0.5,0.2-0.9,0.4-1.2,0.6c-0.7,0.4-1.4,0.6-1.6,0.6c-0.6,0.5-1.2,1-1.9,1.4c-0.6,0.4-1.4,0.7-2.2,1.2
					c0.5-0.1,1.1,0.5-0.4,1.1c-0.1-0.9-0.9-0.6-1.7-0.4c-0.9,0.4-1.9,1-2.7,0.9c1.4,0-3.6,2.7-1.5,2.6c-1.1,0.6-0.5-0.5-1.5-0.1
					c-1,1.2-2.5,2.2-4,3.4c-1.4,1.2-3,2.4-4.2,3.9c0.1,0.1,0.7-0.1,0.5,0.7l-2.1,0.9c-0.4,0.6,0.5,1.4-1,2c0.2,0,0.6-0.1,0.4,0.4
					c-1.4,1.4-2.5,3-3.5,4.6c-0.9,1.7-1.9,3.5-2.6,5.4c-1.5,3.7-2.7,7.3-4.4,11.1c0.6-1,0.5-0.2,0.4,0.5c0.1-0.5,0.5,0.1,0.9,0
					l-1.4,3.1c0.7,0.6-0.1,3.5,0.6,3.9l-0.1-1c0.9,1.4,2.1-1.7,3.4-1.4c-0.2-0.4-0.2-0.7-0.1-1.2c0.1-0.5,0.4-0.9,0.6-1.4
					c0.5-1,1-2,0.4-3.4c0.4-0.5,0.2,0.5,0.6,0.2c-0.4-0.6-0.2-1.4,0.4-2.6l0.1,0.1c0.2-0.9,0.5-1.6,0.6-2.4c0.2-0.6,0.6-1.2,1-1.9
					c0.6-1.2,1.2-2.5,2.5-4.2H344c0.5-0.7,0.7-0.9,1.1-1.1c-0.2-1.4-1.2,2.2-1.6,0.9c0.9-0.2,1.5-1.6,2.4-3c0.9-1.2,1.7-2.5,2.5-2.4
					c0.7-1.1-0.7,0,0-1.2c0.1,0,0.4,0,0.5,0l-0.1-0.6c0.6-0.6,1.2-0.7,1.5-0.5c-0.1,0.1-0.4,0.5-0.5,0.7c1.1-0.6,2-2.6,2.4-2.9
					l-1,0.9c0.2-0.4,0.5-0.7,0.9-1.1s0.6-0.7,1-1.1c0.7-0.7,1.4-1.5,2.1-2.2c0.7-0.7,1.6-1.4,2.2-2c0.7-0.6,1.4-1.4,2-2.1l-0.4-0.1
					c2-2,2-1,4.5-2.9v0.1c0.4-0.5,1-1,1.9-1.4c-0.5,0.6,1.6-0.1,0.9,0.6c2.4-2,1.1-1.1,2.5-2.9l0.6,0.2c0.5-0.6,0.4-0.9,1.9-1.6
					c-1,0.9,1.1,0.2,0,1.2c1.6-0.2,2.7-0.7,3.6-1.2c0.9-0.5,1.5-0.9,2.5-0.4c1-1.7-2.9,0.2-2.1-0.4c-0.7-0.1,0.9-1.2,1.9-1.5
					c1-0.2,2.1,1.1,4.6,0.6c-0.2,0-0.2,0.1-0.5,0.2c1,0.1,1.7-0.9,3-0.5c0.5-0.9,1.5-0.1,1.6-1.1l-2.4,0.5c1.2-0.5,2.4-1.7,4.7-1.5
					c-0.1,0.2-0.7,0.6-1.2,0.7c0.6,0.2,1.2-0.4,1.9-0.1c-0.1,0.9-2.9,0.6-4.1,1.5c0.7,0.4,2.6-1.1,2,0.1c0.4-0.7,1.1-0.7,1.7-0.7
					c0.7,0,1.5,0.1,2.4-0.4l-0.1,0.6c0.2-0.1,0.9-0.4,1.4-0.4l-0.9,0.7c1.4-0.7,2.7,0.4,4,0.1c-1.4,0-1.5-0.2-1.5-0.5
					c0-0.2,0.2-0.5-0.2-0.7c3.5-0.7,2,1.6,5.8,1.5c-0.5,0-1.9-0.5-1.1-0.6c0.4,0.1,0.7,0.1,1.1,0.4c0.4,0.1,0.7,0.4,0.9,0.5
					c2.5,0.2-0.4-0.6,0.7-0.9c0.7,0.9,1.2-0.1,2.5-0.1l-0.1,0.6c1.4,0.4,1.6,0.1,1.9-0.1c0.2-0.2,0.4-0.5,1.6,0l-1.2,0.6l1.4,0.1
					l-0.4,0.6c1.6-0.1,2,0.1,3.4,0.6c-0.2-0.5,0.5-1,1.7-0.6c0.7,0.6-0.6,0.4,1.1,0.9c-0.5,0.2-1.1,0.5-1.7-0.2
					c-0.1,0.1-0.5,0.2-0.6,0.4c0.7,0.7,2.2,0.9,2.9,1c-0.2-0.1-0.5-0.2-0.6-0.4c0.9,0,1.9,0,2.9,0.1c0.2,0.4-0.1,0.4-0.5,0.5
					c0.5,0.1,1,0,1.7,0.4c-0.4,0.4-0.5,0.9-1.6,0.6l2.5,0.5c0.1,0.2,1,1,0.6,1.1c0.6,0.4,1.4,0.6,2.4,0.9c0.9,0.2,1.9,0.5,2.6,1.1
					c0.1,0,0.4,0,0.7,0.1c1.4,1.1,2.4,2.4,4.4,3.1l0.4,1.4c1.4,0.9-0.5-1.9,1.7-0.4c1.6,1,0,1,0.4,1.6c1,0.2,2.7,0.7,3.5,2.5
					C433.6,176.3,433.3,175.8,433,175.6z M444.3,191.6c-0.2-0.4-0.9-0.9-0.6-1.2C444.4,190.5,444.3,190.9,444.3,191.6z M447,221.5
					c-0.1-0.4,0.1-0.7,0.5-1.2C447.5,220.6,447.4,221.1,447,221.5z M375.2,259.8L375.2,259.8C376.1,260.3,375.8,260.2,375.2,259.8z
					 M373.3,259c-0.2,0-0.2,0.1-0.1,0.2c0.1-0.1,0.6,0,1.1,0.2C374.2,259.2,374,259.1,373.3,259z M380.3,155.9h0.4
					C379.8,156.4,380.1,156.2,380.3,155.9z"/>
				<path class="st0" d="M447.1,217.9c0.1-0.1,0.2-0.1,0.4-0.1C447.4,217.7,447.4,217.7,447.1,217.9z"/>
				<path class="st0" d="M423,168.4L423,168.4c-0.1,0-0.1,0-0.1,0H423z"/>
				<path class="st0" d="M402.7,256.5c0.4,0,0.6,0.1,0.7,0.2C403.5,256.5,403.2,256.5,402.7,256.5z"/>
				<path class="st0" d="M363.4,255.7l1.2,0.5c-0.6-0.2-0.6-0.5-0.9-0.7C363.6,255.6,363.8,256,363.4,255.7z"/>
				<path class="st0" d="M356.4,246.8c-0.1,0-0.2-0.2-0.5-0.2l-0.1,0.2C356.3,247.2,356.9,247.3,356.4,246.8z"/>
				<path class="st0" d="M363.3,253.5c0.1-0.5-0.6-0.7-1.4-1c0,0,0.1,0,0.1,0.1C361.4,253,362.4,253.3,363.3,253.5z"/>
				<path class="st0" d="M361.6,252.4c-0.2-0.1-0.5-0.2-0.6-0.4C360.8,252.1,361.3,252.1,361.6,252.4z"/>
				<path class="st0" d="M370.9,258.5c-0.4-0.2-0.5,0.5-0.6,0.2C369.6,259.2,373.2,258.9,370.9,258.5z"/>
				<polygon class="st0" points="363.5,251.6 363.4,252.4 364.1,252.1 				"/>
				<path class="st0" d="M369.2,255.1l-1.2-0.7c0,0.1-0.2,0.1-0.4,0C368.5,254.7,369.2,255.2,369.2,255.1z"/>
				<path class="st0" d="M367.7,254.4c-0.4-0.1-0.7-0.4-1-0.4C366.9,254.1,367.4,254.4,367.7,254.4z"/>
				<polygon class="st0" points="365.3,252.4 365.5,252.8 366.2,253.3 				"/>
				<path class="st0" d="M383.3,259.3h1.5c0.1-0.1-0.2-0.4-0.7-0.4C383.7,259.1,383,259.1,383.3,259.3z"/>
				<path class="st0" d="M379.3,256.7c0.4,0.2,0.4,0.4,0.5,0.6l0.2-0.7L379.3,256.7z"/>
				<path class="st0" d="M383.4,257.5c0.1-0.1,2.1-0.4,0.4-0.5C383.7,257.1,382.2,257.1,383.4,257.5z"/>
				<path class="st0" d="M405.2,258.2c-0.1,0-0.2,0-0.4,0.1l0.2,1.2L405.2,258.2z"/>
				<path class="st0" d="M422,248.9c-1.6,0.5,0,0.9-1.5,1.2c-0.2,0.5,1.2-0.4,1,0.1C422.2,249.5,422.7,249.4,422,248.9z"/>
				<path class="st0" d="M421.5,250.3c-0.1,0.1-0.2,0.2-0.4,0.4C421.4,250.5,421.5,250.4,421.5,250.3z"/>
				<polygon class="st0" points="334.3,205 333.9,206.2 334.4,205.5 				"/>
				<path class="st0" d="M335.1,207.3l-0.9,0.2l0.7,0.7C334.9,208.1,334.9,207.5,335.1,207.3z"/>
				<path class="st0" d="M443.8,194.9h0.2c0.1-0.2,0.1-0.5,0-0.9C443.9,194.3,443.9,194.5,443.8,194.9z"/>
				<polygon class="st0" points="437.9,182.2 438.1,182.4 438.4,181.6 				"/>
				<path class="st0" d="M429.2,174.2c0.4,0.4,0.9,0.6,1.2,0.9C429.6,174.6,429.7,173.5,429.2,174.2z"/>
			</g>
		</g>
	</g>
</g>
</svg>
