<?xml version="1.0" encoding="utf-8"?>
<!-- Generator: Adobe Illustrator 23.0.5, SVG Export Plug-In . SVG Version: 6.00 Build 0)  -->
<svg version="1.1" id="Capa_1" xmlns="http://www.w3.org/2000/svg" xmlns:xlink="http://www.w3.org/1999/xlink" x="0px" y="0px"
	 viewBox="0 0 703 611.1" style="enable-background:new 0 0 703 611.1;" xml:space="preserve">
<style type="text/css">
	.st0{fill:none;}
	.st1{fill:#FFFFFF;}
	.st2{fill:none;stroke:#FFFFFF;stroke-width:0;stroke-linecap:round;stroke-linejoin:round;}
	.st3{opacity:0.48;}
</style>
<image style="overflow:visible;enable-background:new    ;" width="1919" height="1081" xlink:href="1620ED0D.jpeg"  transform="matrix(0.9995 0 0 0.9995 -7905.583 -7876.9331)">
</image>
<path class="st0" d="M360,449.1L360,449.1c-0.1,0.1-0.1,0.1-0.1,0.1l-0.1,0C359.9,449.9,359.9,449.6,360,449.1z"/>
<path class="st0" d="M358.6,460.8c-0.2,0.1-0.3,0.3-0.5,0.4c0,0.2,0.1,0.5,0.1,0.7C358.6,461.5,358.8,461.2,358.6,460.8z"/>
<path class="st0" d="M367.2,436.1c0,0.1-0.1,0.1-0.1,0.2C367.1,436.3,367.2,436.2,367.2,436.1c0.1-0.1,0.2-0.2,0.3-0.4
	c0-0.1,0-0.1-0.1-0.2c-0.5,0-1,0.4-1.2,0.7c0.1,0,0.4,0.1,0.6,0c-0.7,1-1,1.9-1.9,3c0.4,0,0.5,0.6,0.9-0.9c-0.7,0.3,1.7-1.6,1.7-2.6
	C367.4,435.9,367.3,436.1,367.2,436.1z"/>
<path class="st1" d="M338,495.2l-0.5,0.6C337.9,496.5,337.7,495.8,338,495.2z"/>
<path class="st1" d="M338,495.2l0.4-0.4C338.1,494.8,338,495.1,338,495.2z"/>
<path class="st1" d="M339.7,494.2c1-0.9,1.6-2.5,1-3.1C340.6,492.3,339.4,493.2,339.7,494.2z"/>
<polygon class="st1" points="339.7,491.4 339.5,492.3 339.7,492.7 "/>
<polygon class="st1" points="339,492.7 339.4,491.1 338.7,492.7 "/>
<path class="st1" d="M342.9,487.7l-0.5,1.1c-1,0.6-0.4-1-1.1-0.6c-0.6,1.2,0.9,1-0.1,2.5c0.6,0.1,1.4-2.5,2-1.9
	C344.2,487.7,342.9,488.6,342.9,487.7z"/>
<path class="st1" d="M371.7,424.5l0.1-0.1C371.8,424.4,371.7,424.4,371.7,424.5z"/>
<path class="st1" d="M380.4,406.9l-0.1,0.5c0.2-0.2,0.4-0.4,0.5-0.6C380.7,406.8,380.6,406.9,380.4,406.9z"/>
<path class="st1" d="M367.5,435.8C367.5,435.8,367.5,435.8,367.5,435.8c-0.1,0.1-0.2,0.2-0.3,0.4
	C367.3,436.1,367.4,435.9,367.5,435.8z"/>
<path class="st1" d="M367.2,436.1c-0.1,0.1-0.1,0.1-0.1,0.2C367.2,436.2,367.2,436.2,367.2,436.1z"/>
<path class="st1" d="M389.3,388c0.1-0.2,0.2-0.5,0.4-0.7C389.3,387.7,389.3,387.9,389.3,388z"/>
<path class="st1" d="M364.5,441.5c-0.1,0-0.2,0.1-0.1,0.2c0,0,0,0,0,0c0,0,0,0,0,0C364.4,441.7,364.5,441.6,364.5,441.5z"/>
<path class="st1" d="M376.3,412.3c0.1-0.2,0.4-0.4,0.4-0.6C376.5,411.9,376.5,412.2,376.3,412.3z"/>
<path class="st1" d="M352.2,472.8c0.2-0.2,0.4-0.5,0.4-0.7C352.3,472,352.2,472.3,352.2,472.8z"/>
<path class="st2" d="M357.4,462.9C357.5,462.9,357.5,462.9,357.4,462.9"/>
<path class="st1" d="M352.4,470.7c0,0.4,0.1,0.8,0,1.2c0.6-0.4,1.6,0,0.9-1.1h-0.2c0.4-0.2,0.4-0.6,0.4-1c-0.1,0.1-0.1,0.2-0.2,0.3
	C352.9,470.1,352.6,470.3,352.4,470.7z"/>
<path class="st1" d="M372,424.6C371.7,424.6,371.6,425,372,424.6L372,424.6z"/>
<path class="st1" d="M370,430.2c0.1-0.1,0.2-0.4,0.4-0.5C370.1,429.8,370,430,370,430.2z"/>
<path class="st2" d="M359.2,449.5C359.2,449.5,359.2,449.4,359.2,449.5C359.2,449.4,359.2,449.4,359.2,449.5"/>
<path class="st1" d="M370.2,429.7c0.1-0.1,0.2-0.2,0.2-0.5C370.4,429.3,370.4,429.6,370.2,429.7z"/>
<path class="st1" d="M354.1,459.6C354.1,459.6,354.1,459.6,354.1,459.6c0,0-0.1,0.1-0.1,0.1L354.1,459.6z"/>
<line class="st2" x1="398.3" y1="259.6" x2="398.4" y2="259.6"/>
<path class="st1" d="M374.1,435.1C374.1,435.1,374.1,435.1,374.1,435.1C374.2,435.1,374.2,435.1,374.1,435.1z"/>
<path class="st1" d="M368.2,444.4c-0.1,0.1-0.2,0.2-0.3,0.4c0,0,0.1,0,0.1,0.1C368.1,444.7,368.2,444.5,368.2,444.4z"/>
<path class="st1" d="M368.1,444.9C368.1,444.9,368.1,445,368.1,444.9c0,0.1,0,0.1,0,0.1V444.9z"/>
<path class="st1" d="M368,444.9C368,444.9,368,444.8,368,444.9c-0.3,0.2-0.5,0.5-0.8,0.9C367.6,445.7,367.8,445.3,368,444.9z"/>
<path class="st1" d="M393.3,379.9c-1,1.9-2.1,3.7-3.1,5.6c-0.4,1.4,0.7,1,0.6,2.2c-0.2,0.4-0.7,1.5-1.2,1.2c0.2-1-0.4-0.6-0.4-1.1
	c-0.7,1.5-2.2,3-2.4,4.6l1.1-0.7c0,0.6-0.6,1.2-0.9,1.7c-0.1-0.4-1.1,0-1-0.5c-0.1,3.4-1.7,1.7-2.4,4.4c0.9,1,0.2,4.4,0,6.6
	l-0.9,0.9c0.7-1.2-0.9-0.4,0.1-2c-1,1.1-1.2,2.7-2.1,3.9c0.4-0.1,0.7,0.1,0.6,0.7c-0.6,0.7-1.1,0.5-1.7,1.4l0.1-1.1
	c-0.7,0.4-0.5,1.2-0.7,1.7c-0.6-0.1-1.4,1.2-1.7,0.7c0,1.5-0.6,1.7-0.9,3.2c1.2-1.1,0.4,0.6,0.9,0.7l0.6-1.6c-1.5,2,0.2-0.7-0.6-1
	c0.9-0.9,0.5,2.1,1.4,0.4c-0.6,2.2-1.2,2.5-1.7,4.9c0.5-1.4,0.4,0.5,1,0c-0.9,1.6-0.5,0.2-1.2,0.5c-0.5,0.9-1.1,1-0.9,2.1
	c-1,1.2-0.5-0.5-1.2,0c-0.2-0.9,2.7-3.5,0.9-4.1c0.4-0.7,0.2-2,0.7-3c-0.7,0.7-2,1.7-2.2,3.1l1,0.6c-0.5,0.9,0.1,1.4-0.2,2
	c-0.1-0.5-0.9-0.1-1.1,0.6c0.2-0.1,0.4-0.4,0.5-0.2c-0.6,1.4,0,1.9-0.7,3.5c1-1.1,1.4-1.2,2.5-2.1c0.5,0.6-0.4,0.9-0.6,1.6
	c0-0.1,0-0.4-0.2-0.1l-0.1,0.9c-1.1,1.4-0.9-0.7-1.9,0.4c-1.1,0.6-0.4,1.4-1,1.9c0.1,0,0.1,0,0.2,0c-0.1,0.1-0.1,0.2-0.2,0.4
	c-0.4,0.9-0.9,1.7-0.5,2.2c-0.2,0-0.4,0.7-0.4,1.1c0,0.6,0,2-1.2,2.2c-0.6,1-1.4,1.6-1.5,1.2l-1.1,1.6l-0.6-0.5
	c-0.6,1.6-0.1,1.6,0,3.1c-1,0.9-1.7,3-1.9,3.9c-0.1,0.1-0.2,0.2-0.4,0.6l0.6-0.5c-0.5,1-0.3,1.2-0.5,1.7c0,0.1-0.1,0.2-0.1,0.2
	c0,0,0,0,0,0c0.1-0.1,0.2-0.1-0.1,0.2c-0.1,0.1-0.1,0.2-0.2,0.4c0-0.1,0-0.2,0.1-0.4h-0.2c-1.2,0.6-0.4,1.6-1.2,2.5
	c0-0.1,0.1-0.2,0.1-0.4c-0.5,0.5-1.9,0.7-1.4,1.4c-0.1,0.1-0.1,0.4-0.1,0.6c0,0.4,0.1,0.7,0,0.7l-0.9,1.4c-0.2,0.2-0.4,0.6-0.5,0.9
	l0.1,0c-0.1,0.5-0.1,0.7-0.2,0.2l-0.3,0.1c-0.2,0.5-0.4,0.5-0.5,0.4c-2,1.4-1.1,3.1-3,4.6c0.2,0.6,0.9-0.1,1.2,0
	c0.1,0.5-0.1,1.9-0.1,2.5c-1.1,0.5-3.1,3-3.9,2c-1,1.6,0.9-0.2,0.7,0.7c0.4-0.4,0.9-0.6,1.4-0.7c0.6,0.1-0.1,1.6-0.5,2l-0.5-0.7
	c-0.6,1.6,0.6,1.9,0.9,3.2c-1,1-1.2,0-2-0.1l-0.5,1.4l-0.5-0.2c-0.2,0.9,0.1,1.4-0.7,2.4c0-1.1-1.4,1.5-1.5,0
	c-0.5,0.5,0.4,1.2-0.5,1.2c0.4,0.7,0.6-0.4,1-0.6c1,0.2-0.4,1.6-0.6,2.5c-0.5-0.1-0.2-0.7-1,0c0.2,0.4,0.1,1-0.5,1.4
	c0.5,0.2-0.5,1.1-0.7,1.6c0.4-0.5,1.2-1.1,1.5-0.5c0,0.6-0.1,1-0.7,2l0.6-0.6c0.2,1.2-1.4,1.1-1.7,2.5c0-0.6,0.1-1,0-1.6
	c0,0.7-0.2,2-0.5,3l-1.4,0.6c0.4,0.4-0.6,1.1-0.1,1.4c-1,1.1-0.1-1.4-0.4-1.7c-1.2,1.4,0.2,1.7-1.4,2.9l-0.2-0.7
	c-0.4,0.5-0.6,1.6-0.9,1.6c0.1,0.1,0.2-0.2,0.4-0.5c0.9,0.9-0.5,2.7,0.6,3.1l0.5-0.6c-0.4,1.2,0,2.4-0.9,3c-0.7,0.5-0.5-0.9-0.6-1.4
	c-0.6,1,0.7,1.5,0,2.6c0.5-0.5,0.9-0.2,0.9,0.4c0.5-0.6,1.5-2,0.9-2l-0.2,0.2c-0.2-0.2-0.1-0.6-0.1-0.9c0.5-1,0.7-0.1,1-0.2
	c1-1.5-1-0.7-0.2-2.1l0.4-0.1c0.1-0.9,0.6-2,0.1-2.5c1-0.2,0.6-1.7,1.4-2.2c1.6,0.7-1.5,2.4-1,3.7c0.7-0.6,0.5,0.9,0.6,1.4l0.6-2.7
	c0.4-0.1,1.5-0.4,1.1-1.1l-0.1,0.1c0.4-1-0.5-1.1,0.2-1.9c0.2,0,0.4,0.4,0.4,0.5c0.5-0.6,0-0.9,0.1-1.4c0.5-0.6,0.5,0.7,1,0.2
	c-0.1-1.2,0.9-1.4,1.2-2.1c-1.1-0.1,0.5-3.7-1.2-2.5l0.4-2.1c0.7-0.4,0.5,1.9,1.6,1.9l-0.9,1.5c1,0.3,1-2,1.8-3.1
	c0.2-0.3,0.5-0.6,0.9-0.6c0.1-0.1,0.1-0.2,0.2-0.3c0.3-0.4,0.3-0.5,1.4-1.6l-1.1-0.2c0.6-0.6,1.2-0.6,1.5-0.5
	c0.1-0.5,0.4-0.9,0.6-1.2c0.1,0.2,0.1,0.4,0,0.7c0.9-0.2,0.7-0.6,0.6-0.9c-0.1-0.5,0.2-0.9,0.5-1.4l0.1,0.6c0.1-0.4,0.1-0.7,0-0.9
	c0.1-0.2,0.1-0.4,0.2-0.6c-0.2,0-1,0-1.6,0.6c1-1.2,1.5-2.3,2.4-3.2c0,0,0,0,0-0.1c0,0,0,0,0,0.1c0.1-0.2,0.3-0.3,0.5-0.4
	c0,0-0.1-0.1-0.1-0.1c0.1-0.1,0.3-0.1,0.4-0.1c0.1-0.1,0.2-0.2,0.4-0.3c0.2,0.2,0.2,1,0.4,0.9c0.5-0.6,0.5-1.7,0-1.9
	c0-0.2,0.1-0.4,0.1-0.4c0.4,0,0.6,0,0.9-0.4c0.1,0,0.2-0.1,0.5-0.4c0,0,0,0,0,0c-0.6-0.6,0.5-1.9,0.4-2.5c-0.2,0.2-0.5,0.7-0.7,1.1
	c-0.1-0.9-0.5-1.7,0.1-2c-0.1,1.4,1.5-0.7,0.7,1c1.6-0.6-0.4-1,0.6-2.1l0.9-0.6c0.5,0.4-0.5,1.5-0.1,1.4l0.2-0.6
	c0.1,0.7-1.4,2.9-1.4,4.5l1.7-2.5c1.1-3.7,4.2-7.4,4.5-10.9c0,0,0-0.1-0.1-0.1c-0.2,0.4-0.4,0.8-0.8,0.9c0.3-0.4,0.5-0.7,0.7-0.9
	c-0.1,0-0.1-0.1-0.2-0.2h0.2l-0.1-0.7c0.9-0.4,1.6-1.5,2.6-2.2c-0.7,0.5-0.7,0.5-1.1,0.2c-0.5-0.4-0.6-0.6,0-1.5
	c0.4,0.2,0.1,0.7,0.7,0.2c-0.4,0.2-0.5-0.2-0.4-0.6c0.5-0.4,1.1-1.2,1.5-1c-0.1-0.1,0.5-0.6,0.8-0.2c0.7-0.6-0.4,0.5-0.6,0.2
	c-0.1,0-0.1,0-0.1,0c0,0.4-0.2,0.4-0.4,0.6c0,0.4,0.9-0.9,0.9,0.1l0.4-1c0.6-0.4,0.4,0.6,0.6,0.5c0.6-1.7,0.1-3.1,0.6-4.7
	c0.1,0.2,0.6,0.4,0.8,0.5c0.9-1,0.4-2.9,1-4.2c0.1,0.4-0.2,0.7-0.2,1.2c2.5-3.7,4.2-6.8,7-10.1l-0.4-1.5l1.1-0.6
	c2.6-3.5,3.7-6.8,5.4-10.6c0.6-1.1,1-0.4,1.6-0.7c1.5-2.5,0.7-3.6,1.9-6.1c0.1,0.5,0.6,1.5,1.2,0.5c-0.1-0.4-0.5-0.6,0-1.2l0.1,0.5
	c0.7-0.4,0.6-1.1,1.5-2.2c1.1-2.2,1.6-4.6,1.6-7c1.1-1.9,0.9,0.7,1.2,0.5c-1.1,1.1-0.4,1-0.1,1.5c0.1-0.9,0.5-1.9,1.2-1.9
	c0.5-1,0.7-1.5,0.9-2.7c0,0.6-0.6,0.9-0.6,0.2c0.6-0.6,1.5-2.9,2.4-2.4c0.4-0.6,0.6-1.2,1-1.9c0.5-1,1-1.9,1.5-2.9c0-1.5,0-3,0-4.5
	c-3.6,0-6.4,0-10.1,0C393.2,379.4,393.3,379.6,393.3,379.9z M356.5,465.1l-0.1-0.2C356.5,464.9,356.5,464.9,356.5,465.1z
	 M359.3,458.2c0.1-0.2,0.4-0.2,0.6-0.2C359.7,458.1,359.5,458.2,359.3,458.2z M365.9,438.4c-0.4,1.5-0.5,0.9-0.9,0.9
	c0.9-1.1,1.1-2,1.9-3c-0.2,0.1-0.5,0-0.6,0c0.2-0.4,0.7-0.7,1.2-0.7c0,0.1,0,0.1,0.1,0.2c0,0,0,0,0,0
	C367.6,436.8,365.2,438.8,365.9,438.4z"/>
<path class="st1" d="M359.3,458.2c0.2,0,0.4-0.1,0.6-0.2C359.7,458,359.4,458,359.3,458.2z"/>
<path class="st1" d="M402.1,361c-0.4-0.4,0.2-1.1-0.2-1.4c0,0,0,0,0-0.1c-0.1,0.5-0.5,0.9-0.5,1C401.5,361,401.8,361.8,402.1,361z"
	/>
<path class="st1" d="M359.9,449.2l-0.2,0.1c0,0,0,0,0,0L359.9,449.2C359.9,449.2,359.9,449.2,359.9,449.2z"/>
<path class="st1" d="M356.4,464.8l0.1,0.2C356.5,464.9,356.5,464.9,356.4,464.8z"/>
<path class="st1" d="M342.7,483.4l-1.2,0.9l0.1-0.4l-0.7,0.6c-0.4,1.5,0.1,1.7,0.5,2.4C341.5,485.5,342.1,484.8,342.7,483.4z"/>
<path class="st1" d="M345.3,485.5c0.2,0,0.7-0.1,0.9-0.4l-0.2-0.4L345.3,485.5z"/>
<path class="st1" d="M354.1,472.3c0.1,0.6,1.4-0.5,1-1L354.1,472.3z"/>
<path class="st1" d="M347.2,473c-0.1,0.7-0.2,0-0.6,0.6v0.9C347.2,474.1,347.6,473.3,347.2,473z"/>
<path class="st1" d="M356.9,468.2c-0.5-0.7,1-1,0.5-1.6C357.3,466.9,356.3,467.8,356.9,468.2z"/>
<path class="st1" d="M350.3,465.7c-0.7,0-0.6,1-1.1,1.6C349.6,466.8,350.7,466.2,350.3,465.7z"/>
<path class="st1" d="M358.5,460.7c0,0,0.1,0.1,0.1,0.1c0.2,0.3,0,0.7-0.3,1.1c0-0.2-0.1-0.5-0.1-0.7c0,0,0,0,0-0.1c0,0,0,0,0,0.1
	c-0.1,1-0.2,1.1-0.5,1.9c0.7-0.6,1.6-1.6,2-1.2c0-0.5-0.2-1.4-0.7-1.4C358.8,460.6,358.7,460.6,358.5,460.7z"/>
<path class="st1" d="M351.2,464.4l0.4,0.6c0.7-0.6-0.9-0.1-0.2-1.2c-0.5,0.5-1.1,0.7-1.5,1.5C350.2,465.3,350.8,465.3,351.2,464.4z"
	/>
<path class="st1" d="M360.6,461.1c0.6-1,1.1-2.5,1-3.2l-0.5,0.2c0,0,0,0.1,0,0.1c0,0,0,0,0,0C361.1,459.3,360.3,460.2,360.6,461.1z"
	/>
<path class="st1" d="M353.9,461.3l-0.6-0.5c-0.6,0.9,0.2,0.1,0.2,0.5c-0.2,0.2-0.5,0.5-0.5,0.7C353.6,461,353.8,462.3,353.9,461.3z"
	/>
<path class="st1" d="M354.7,458l0.2-1.2l-1.2,0.5C353.3,458.6,354.2,457.3,354.7,458z"/>
<path class="st1" d="M356.2,456.8l-0.1-2.2c-0.1,1.1-0.2,1.1-0.1,2.2H356.2z"/>
<path class="st1" d="M372,438.8c-0.2-0.3-0.9,0.2-0.8,0.2c0,0,0,0,0,0c0,0,0.1,0,0.1,0C371.6,439.3,372.7,438.2,372,438.8z"/>
<path class="st1" d="M365,436.7c-0.4,0.9-1.6,2.9-1.1,3C364.4,439.3,364.8,437.4,365,436.7z"/>
<path class="st2" d="M365,436.7c0-0.1,0-0.4,0-0.4"/>
<path class="st2" d="M379.2,406.2c0-0.1,0-0.1,0-0.2"/>
<path class="st1" d="M378.6,408.8c0.2-0.9,0.5-1.5,0.6-2.6c-0.1,0.4-0.6,0.6-0.2,0.7C378.6,407.3,378.3,408.4,378.6,408.8z"/>
<path class="st1" d="M382.8,401.3c0.2-0.2,0.4-1.1,0-1C382.8,400.8,382.4,401.2,382.8,401.3z"/>
<g class="st3">
	<g>
		<g>
			<g>
				<g>
					<path class="st1" d="M523.4,20.3c0,0.2,0.1,0.7,0.4,0.5v-0.9L523.4,20.3z"/>
					<path class="st1" d="M525.6,21.4c0.2-0.5,0.6-1.1,0.2-1.9c-0.2,0.9-0.4,0.5-0.6,1.5c-0.2,0.1-0.5-0.1-0.5-0.5
						c0,0.2-0.5-0.1-0.5,0.4c0.5,0.5,1,0.5,1.4-0.1C525.7,21.1,525.6,21.3,525.6,21.4z"/>
					<path class="st1" d="M542.6,32.3l0.1-0.1C542.7,32.3,542.6,32.3,542.6,32.3z"/>
					<path class="st1" d="M528.4,33.4c0.1,0,0.2,0,0.2-0.1C528.5,33.4,528.4,33.4,528.4,33.4z"/>
					<path class="st1" d="M525.7,31.5c0.1,0,0.1,0.1,0.2,0.1C525.8,31.5,525.8,31.4,525.7,31.5z"/>
					<path class="st1" d="M542.6,32.3l-0.5,0.1C542.4,32.6,542.4,32.4,542.6,32.3z"/>
					<path class="st1" d="M529.3,19.1c-0.1,0-0.1,0.1-0.2,0.2C529,19.3,529.2,19.2,529.3,19.1C529.3,19.2,529.3,19.1,529.3,19.1z"/>
					<path class="st1" d="M542.6,26.8L542.6,26.8c-0.1-0.1-0.2,0-0.4,0H542.6z"/>
					<path class="st1" d="M539,24.2c0.1,0.1,0.4-0.6,0.5-0.9c-0.1,0.2-0.2,0.4-0.4,0.4C539.1,23.8,539,24,539,24.2z"/>
					<path class="st1" d="M530.7,21.9l-0.1,0.1C530.5,21.9,530.7,21.9,530.7,21.9z"/>
					<path class="st1" d="M542.9,29.5c-0.1,0-0.2,0-0.2,0C542.7,29.5,542.9,29.5,542.9,29.5z"/>
					<path class="st1" d="M528.8,17.1h-0.1C528.8,17.1,528.8,17.1,528.8,17.1z"/>
					<path class="st1" d="M523.3,23.3L523.3,23.3c0-0.2,0-0.4-0.1-0.4L523.3,23.3z"/>
					<path class="st1" d="M518.5,31.8C518.6,31.8,518.6,31.8,518.5,31.8C518.6,31.6,518.6,31.6,518.5,31.8z"/>
					<path class="st1" d="M474.5,32c0,0.7-1.1,0.1-1,1.1C473.7,32.9,474.7,32.8,474.5,32z"/>
					<path class="st1" d="M529.4,19.2c0.1,0,0.1,0,0.2,0C529.5,19.2,529.5,19.2,529.4,19.2z"/>
					<path class="st1" d="M473.5,33.1L473.5,33.1L473.5,33.1C473.5,33.3,473.5,33.1,473.5,33.1z"/>
					<path class="st1" d="M507.8,35.5c0,0.1,0.1,0.2,0.1,0.2S507.9,35.6,507.8,35.5z"/>
					<path class="st1" d="M516.3,34.3h-0.2C516.2,34.3,516.3,34.3,516.3,34.3z"/>
					<path class="st1" d="M503.4,37.1c-0.1,0-0.1-0.1-0.4,0v0.1C503.2,37,503.2,37,503.4,37.1z"/>
					<path class="st1" d="M498.6,37.4c0,0,0,0.1,0.1,0.1h0.1L498.6,37.4z"/>
					<path class="st1" d="M514.7,6c0.1,0.2,0.1,0.4,0.2,0.6C515,6.1,515.9,6,514.7,6z"/>
					<path class="st1" d="M529.3,19.4c0-0.1,0-0.2,0.1-0.4h-0.1C529.3,19.3,529.3,19.4,529.3,19.4z"/>
					<path class="st1" d="M503.7,42.6h-0.9C503,42.6,503.4,42.6,503.7,42.6z"/>
					<path class="st1" d="M484.5,9.2l0.2-0.1C484.6,9.1,484.6,9.2,484.5,9.2z"/>
					<path class="st1" d="M500.4,42.8c-0.1-0.2-0.4-0.4-0.5-0.5c0,0.1,0,0.1-0.1,0.2L500.4,42.8z"/>
					<path class="st1" d="M515,6.6L515,6.6L515,6.6z"/>
					<path class="st1" d="M521.6,6.8c-0.9-0.4-0.7,0.6-1.2,1c-1.1-0.2-0.1-0.9-0.4-1.4c-0.7,0-1.5,0.6-2,0.4c0-0.1-0.1-0.2,0.1-0.4
						c-0.9,0.5-2.1-0.5-3,0.4c0-0.1-0.1-0.1-0.1-0.2c0.1,0.5,0,1,0,1.2c-0.4,0-0.7,0.5-0.7-0.1c0.2,0,0.2-0.2,0.4-0.4l-0.4,0.2
						c-0.4-0.9,0.5-0.2,0.6-0.9c-0.9,0.2-1.7,1-2.2,0.7c-0.2-0.9,1.4-0.4,0.5-1.1l1,0.4c-0.7-1.4,0.6,0.1,0-1.4
						c-1.4-0.2-1.5,0.4-2.9,0.4c-0.2,0.5,0.2,0.6,0,1.1c-0.7,0.6-1.2,0.1-1.6-0.2s-0.9-0.7-1.2,0c-0.1,0.6,0.1,1.6-0.9,1.5
						c0-0.4-0.1-0.6-0.1-1c-1.2,0.5,0,1.5-1.4,1.6c0-0.4,0.6-0.7,0.5-0.7c-1.1-0.2-0.2,0.7-0.7,1.1l-0.6-0.6
						c-1.1,0.9-1.7,2.2-2.6,3.5c-0.1-0.2-0.1-0.6-0.6-0.5c-0.2,0.4-0.5,0.9-0.7,1.2c-0.1,0.1-0.4,0.4-0.4,0.5l-0.1,0.1
						c-0.2,0.1-0.5,0-0.6-0.1c0.1,0.2,0.1,0.6,0.2,0.9v0.1c0,0-0.1-0.4-0.2-0.6c-0.2-0.4,0.1,0.6,0.2,1c-0.1,0-0.2-0.6-0.2-0.9
						c0,0.7-0.9,1-1.2-0.1l0.2-0.1c-0.6-0.6-1.5,0.9-2-0.1h0.2c-1.6-1.1-3.9-1.2-4.9-2.7c-0.6,0.9-1.7-1-2.2,0.4
						c-0.9-1-0.5-1.1-2.1-2c-0.5-0.1-0.7,0.9-1.4,0.9V9c-0.2,0.2-0.5,0.5-0.7,0.7l-0.4-1l-0.5,0.1c0.2,0,0.4,0.4,0.4,0.6
						c-0.7,0.2-1.9-0.6-2-1c-0.6,0.2-1.2,0.5-1.9,0.7c0-0.4,0.4-0.5,0.6-0.7c-1,0.9-0.2-0.7-1.1,0c0.1,0.1,0,0.5,0,0.6
						c-0.5-0.4-1.7-0.1-2.5,0.2V8.9c-1.5,0.2-3,1.4-4.4,2.1c0.6-0.1,1,0.7,0.6,1.1l-0.6-0.6c0,0.6,0.6,0,0.4,0.9
						c-0.5,0.2-0.9-0.5-0.6-1l-0.5,0.6c-0.1-0.1-0.1-0.4-0.2-0.6c0,0.5-1.6,0.1-1.4,1.1l-0.1-0.1c-1.4,1.1-1.7,1.9-2.6,2.9
						c0.5,0.5,0.1,0.7,0.2,1.5c-0.7,0.6-1.9,1.2-2.4,2.5c0,0.9,0.5,0.5,0.6,1c-0.6-0.2-1,1-1.2,0.2c-0.2,0.7-0.2,1.2-0.4,1.7
						c0,0.5,0,1.1,0.1,2.1c0.2-0.2,0.4-0.4,0.6-0.2c0,0.4-0.4,0.7-0.6,0.6v-0.1c0.2,0.5,0.2,1.1,0.1,1.6c0,0.6-0.2,1.2-0.2,1.9
						c-0.1,1.2,0,2.6,1,3l-0.1-0.1c0.5,0.4,1,0.9,1.5,1.1c0.4,0.7-0.6-0.1-0.6,0.6c1,0.5,1.4,1,1.7,1.6c0.4,0.5,0.7,1.1,1.6,1.4
						c-0.2,1.1,0.6,1.7,1.6,2.2c1,0.5,2,0.9,2.5,1.7l0.1-0.4c0.5-0.2,0.4,0.4,0.6,0.6c0.1-0.4-0.2-0.5,0.1-0.6
						c1.6,0.4,3.1,1,4.7,1.7c1.6,0.6,3.1,1.2,4.7,1.6c1.1,0.2,0.9-2.2,2.2-1l-0.5,0.7c2.4-0.9,4.6,0.2,6.8-0.5
						c-0.1,0.2-0.1,0.4-0.4,0.4c0.5,0.6,1.7,0,1.7-0.4c0.4,0.1,0.1,0.4,0.2,0.7c0.5,0.4,1.1-0.7,1.4-0.1c0,0.1-0.1,0.2-0.2,0.2
						c0.2-0.2,1.4,0.1,1.1-0.6c0.9,0.4,1.6-0.4,2.2,0c0.4-0.7,1.5,0.2,1.5-0.7c0,1.1,1.5,0.7,2,0.2c-0.1,0.4,0.5,0.4,0.4,0.7
						c0.6-0.1,1.1-0.4,1-0.9c1.2,1.2,2.1-1.4,3,0.2c1.7-0.9,3.2-1.6,4.7-2.2c0.2,1.1-1.7,0.5-1.4,1.6c1.5-0.7,2-2,3.6-2.1
						c0.4,0-0.1,0.5-0.1,0.7c1.4-0.9,3-0.9,4-1.9c0,0.1,0,0.2-0.1,0.4c0.2-0.1,0.6-0.1,0.5-0.5l-0.2,0.2c-0.6-0.5,0.4-1.9,0.2-2.2
						c0.1,1.5,1.4-0.2,1.5,1.7c0.1-0.1,0.2-0.5,0-0.7c0.2,0,0.5,0.1,0.4,0.6c0.7-0.6,0.2-1,1-1.4c0.1,0.2,0,0.4,0,0.6
						c0.1-0.6,0.4-1.2,0.9-1.1c0,0.1,0.1,0.4,0,0.4c0.4-0.1,0.6-0.5,1-0.9c0.4-0.2,0.9-0.4,1.4,0c-0.6,1,0.2,0.4,0,1.4
						c0.2,0,0.4-0.1,0.6-0.1l-0.1-0.5c0.5,0.2,1.2-0.2,1.6,0.2l-0.6,0.1l1.1,0.2l-0.5-0.6c0.7-0.2,0.4-1.1,1.1-0.5
						c-0.2,0,0.6,0.2,0.7,0.9l0,0c0.4-0.1,0.7-0.4,1.2,0c0,0.4-0.4,1-0.4,1.1c0.5-0.6,1.6,0.2,2.1-0.5c-0.1,0.1-0.2,0.6-0.2,0.7
						l0.4-0.5c0.2,0.2,0.2,0.4,0.1,0.7c0.9,0.2-0.1-1.2,0.9-0.5c-0.1,0,0,0.1-0.2,0.2c1.1,0.5,2.1-0.1,3.2,0.1c0.4,1-0.9,0.2-0.6,1
						c0.7-0.1,1.6-0.4,2.4-0.7c0.7-0.4,1.5-0.7,2.2-0.9c-0.1,0-0.2,0-0.2,0c-0.1-0.6,0.1-0.6,0.6-0.5c0.4,0.1,1,0.2,1.1-0.2
						c-0.1,0.2,0.1,0.7,0.1,0.6c1.1-0.4,1.7-1.5,2.4-3l0.1,0.4c0.6-0.2,1.1-1.2,1.6-1.7c-0.2-0.4,0-0.6-0.5-0.6
						c1.4-0.5,1.4-1.7,1.1-2.9c-0.2-1.1-0.7-1.7-0.2-3c0.1,0.2,0.5,0.5,0.4,0.2c-0.2-0.5-0.6-1-1-1.5c-0.5,0.4-0.1,0.4-0.5,0.9
						c-0.4,0-0.7-0.2-1-0.5c0.6,0.4,0.7-0.5,0.9-1c-0.1,0.1-0.4,0.1-0.5,0.4c0.2-1.2-1,0.6-1.1-0.5l0.2-0.2
						c-0.4-0.1-0.9-0.1-1.1-0.4c0.2-0.6,0.5,0,0.9-0.4c-0.5-0.4-1.6,0.4-1.7-0.5c0.4,0,0.6,0.1,0.9,0.1c-0.1-1-0.2-0.9-0.6-1.1l0,0
						c-0.2-0.2-0.5-0.5-0.7-0.7l0.1,0.4c-0.7,0.6-1.1,0.6-1.4,0.4c-0.4-0.1-0.7-0.4-1.4,0.1c1.2-0.7,0.4-0.5,0.6-1.2
						c-0.1-0.2-0.5-0.6-0.4-0.7c-0.6,0.5-0.7-0.6-1.5,0.1c0-0.2-0.5-0.1-0.2-0.7c-0.6,0.1,0.1,0.4,0,0.7c-1,0.6-2.1-1.2-3.5-0.2
						c-1.1,0.4-1.4,1.2-2.4,1.6c-0.4-0.4,0.2-0.9,0.2-0.9c-0.6-0.4-1-0.2-1.5,0c0.1-0.2,0-0.4-0.1-0.6c-0.4,0.1-0.2,0.9-0.9,0.6
						c0.1-0.2,0.1-0.7,0.4-1c-0.5,0.2-1,0.7-1.5,1c-0.1-0.4,0.2-0.6,0.4-1c-0.6,0.2-1.5,0.5-1.6,1.2l0.4,0.2c-0.2,0-0.1-0.5,0-0.7
						c0.5-0.6,0.7,0.1,0.7,0.4l-0.4,0.2c0.5,1.4,1.4-0.4,2.2-0.4l-0.2,1l0.7-0.9c0.1,0.2,0.2,0.9,0,1c0.5,0.5,0.5-0.4,0.9,0.2
						c0,0.1,0,0.1,0,0.1l0.5-0.4c-0.1,0.2,0.1,0.7-0.2,0.6c0.9,0.6,1.5-0.7,1.7,0l-0.1,0.1c1.2-0.2,0.1-0.7,1.1-1.6
						c0.1,0.6,0.4,1.2,0.5,1.9l0.1-0.7c0.1,0,0.4,0.1,0.2,0.4c0.5-0.5,0-0.4,0.2-0.7c0.5,0.7,1.7-0.1,1.7,1.1
						c0.4-0.5-0.5-0.5,0.2-0.9c-0.1,1.4,0.7-0.1,1.2,0.6c-0.4,0.6-0.7,0.1-0.4,0.9c0.6-1,0.9,0.5,1.4,0.5c0.4-0.9,1,0,1.9,0.1
						c-0.1,0.2,1,1.1,1.1,1.9l-0.1,0.1c0.7-0.6,1.1,0,1.5,0.4c-0.5,0.2-0.7,0.4-1,0.2c0.1,0.1,0.1,0.2,0.2,0.4
						c0.2-0.1,0.5,0,0.7,0.1l-0.6,0.2c0.1,0.2,0.4,0.4,0.6,0.6c0.2,0.2,0.4,0.5,0.1,0.9c0.4,0,0.7-0.1,1.1-0.2
						c0.4-0.1,0.7-0.1,1,0.4c-0.4,0-1,0.1-1.1-0.1c0,0.1,0.2,0.2,0.1,0.4c-0.1-0.1-0.4-0.2-0.6-0.4c-0.2,0.4,0.5,0.2,0.4,0.5
						c-0.5,0-0.4,0.2-0.7,0.1c0-0.1,0.2-0.2,0-0.4c-0.1,0.2-0.4,0.6-0.9,0.6c0.2,0,0.6,0.1,0.6,0.4c-0.1,0.6-0.6,0-1,0.2
						c0.2,0.2-0.1,0.4,0.5,0.7c-0.1,0.1-0.4,0-0.6,0c0.1,0.4-0.6,1.2,0.2,1.4h0.1c0,0,0,0,0,0.1l0,0l0,0c0,0.6-0.5,1-1,1.4
						c-0.5,0.2-1.1,0.5-1.4,0.9l-0.1-0.2c-0.4,0.6-1.1,0.7-1.4,1.4c-0.2,0.1-0.6-0.2-0.6-0.6c-0.4,0.2-0.4,0.6-1.2,0.2
						c0.4-0.5-0.2-0.4,0.4-0.4c-0.6-0.1-0.7-0.5-1.4,0.2c0.1-0.6-0.5-0.7-0.7-0.6l0.4,0.5c-0.4,0.1-0.6,0-0.9,0l0.1-0.9
						c-0.6-0.5-1.1-0.1-1.7,0.1c-0.6,0.2-1.1,0.4-1.4-0.5c-0.5,0.5,0.6,0.5,0.1,1.1c-0.6-0.2-0.9-1.6-1-1.6
						c-0.6-0.7-1.1,0.9-1.9,0.4c0,0.4-0.1,1.1-0.9,1.1c-0.6-0.4-0.2-1.5,0.2-1.5c0.1,0,0.1,0.1,0.1,0.2c0.2,0,0.5,0,0.4-0.4
						l-0.1,0.2c-0.1-0.4-1-0.7-0.6-1.1c-0.6,0.1-0.4,0.4-0.1,0.6c-0.6-0.7-1.2-0.5-2.2-1.1c0.1,0.2,0.1,0.6,0,0.5
						c-1.5-0.7-0.7,0.4-1.9,0.4c-0.6-0.5,0.2-1.1-0.9-0.7c-0.7-0.2-0.2-0.7,0.1-1c-1.2,0.6-2.4,0-3,0.1c0.1-0.1,0.4-0.2,0.5-0.4
						c-0.2,0.2-0.6,0.4-0.9,0.5l0.5,0.4c-0.4,0-0.6,0.1-0.6-0.1c-0.1,0.5,0.6,0.9,0.2,1.5c-0.5-0.1-0.9,0.7-1.2,0.1
						c1.1-0.2-0.5-0.6,0.4-1.1c-0.1,0.1-0.4,0.2-0.6,0.2c-0.1-0.1,0-0.1,0-0.2c-1.1-0.2,0,1-0.9,1.4c0-0.5-0.5-0.7-0.6-0.5
						c0.4-0.1,0.5,0.6,0.2,1c-0.7-0.1-0.5,0.5-0.9,0.6h0.4c0,0.5-0.2,0.5-0.6,0.9c-0.1-0.4,0.2-0.4,0.1-0.5
						c-0.2,0.9-1.2-0.4-1.7,0.4c-0.4-0.2-0.2-0.7-0.6-0.9c-0.5,0.7-1-0.4-1.6,0.4c0.4,0.5,0.4,0.4,0,1.1l1.1-0.7l-0.6,1
						c0.4-0.1,0.7-0.6,1-0.5c-0.2,0.6-0.2,0.4,0.1,0.9c-0.7-0.7-0.9,0.9-1.7,0.4l-0.4-1.5c-1.1-0.4-1.5,1.1-2.7,1l0.5,0.1
						c0,0.6-0.7,0.2-1.1,0.5c0-0.5-0.4-0.6-0.5-0.9c0.1,0.4-0.9,0.1-0.9,1.1l-0.6-0.5c-1-0.1-1,1.6-2,1.5c0.2-0.5-0.2-0.9,0.4-1.4
						c-0.4,0-0.6,0-0.6,0.4c-0.2-0.2-0.9,0.7-1.1,0.4c-0.1,0.2-0.1,0.7-0.5,0.7c0-0.1,0-0.2,0-0.2c0,0.2-0.5,0.4-0.1,0.9
						c-1.1-1.5-2.9,0.2-3.7-1c-0.7,0.2-1.6,0.4-2.2,0.4c0-0.1,0-0.2,0.1-0.2c-0.9-0.5-0.5,1.4-1.6,0.9c-0.5-0.7,0.5-0.4,0.2-0.7
						c-0.1-1.6-1.2,0.2-1.9-0.7l0.1-0.1c-0.5-0.5-1.2,0.6-2.1,0.5c0,0,0-0.1,0-0.2c-0.6,0.9-1.7,1-2.6,1.2c0.2-0.6,0.4-0.4,0.2-1
						c-0.4,0.1,0,1-0.7,1.1c-0.2-0.4-0.7-0.7-0.7-1.4h0.7c-0.2-0.9-0.9,0-1.2-0.2l0.1-0.4c-1,0-1.1,1-2.2,0.9l0.1,0.2
						c-0.7,0.9-0.5-0.6-1.1,0v-1c-0.4,0.1-1.5,0.7-2.4,0.7c0.6-0.6,1.5-0.9,2-1.1c-0.4-0.1-1.2-0.1-1.6,0.2c0.1-0.1,0.4-0.2,0.5-0.1
						c-0.6,0.6-1.4,0.9-2.1,0.6c0.6-1.7-1.9-1-1.7-2.6c-1.5,0.1-2.1-1.4-3.2-2.1c-0.5,1.5-0.4-0.2-1.2,1c-0.4-0.1-0.4-0.2-0.4-0.4
						c-0.1-0.5-0.1-1-0.1-1.4c0.1-0.5,0.5,0,0.6-0.2c-0.4-0.6,0.2-0.6,0.2-1.2c-0.4,0.4-0.7,0.4-0.7-0.1c-0.1,0.2-0.1,0.6-0.1,0.9
						c-1.2-0.2,0.5-1.4-0.6-1.7h0.5c-0.5-0.2-0.7-1.4-2-1.4c0.1-0.1,0.5-0.4,0.6-0.2c-0.1-0.5-0.5-1-0.9-1.6c-0.2-0.5-0.5-1.1,0-1.6
						l0.4,0.1c-0.1-0.2-0.6-0.5-0.2-0.6c0.1,0,0.4,0.1,0.4,0.1c-0.1-0.1-0.5-0.7-0.2-0.9l0.4,0.4c0.4-0.5,0.2-0.9,0.1-1.4
						s-0.4-1.1-0.1-1.6c1,0.5,1.7,0,2.1-0.2l0.1,0.1c0.9-0.9,0.9-2.2,1.7-3.5c0.7,0.2,1.2,0,2-0.4c0.4-0.1,0.6-0.4,1-0.4
						c0.4-0.1,0.7-0.1,1.1-0.1c-0.2-0.1-0.2-0.9,0-1c0.4,0.1,0.6-1,0.9,0h-0.1c0.5,0.9,0.9,0.5,1.4,0.5l-0.1-1.4
						c0.7,0.9,1.6,0.6,2.5,0.5c0.7-0.2,1.6-0.4,1.9,0.5c0.4-0.2,0.7-0.2,1.1-0.5l-0.1,0.7c0.9,0.4,1.2,0.5,2.4,0.6l-0.4,0.4
						c0.6,0.2,1.4-1.7,2-1.6l-0.1,1c1.1,0.4,1.9,1.6,3.2,1.2c-0.1,0.1-0.2,0.4-0.5,0.4c0.5,0.2,1.6,1.6,2.1,0.2
						c-0.2,0.4,0,0.6,0.5,0.6c0.6,0.2,1.5,0.4,2,0.4l-0.2,0.6c1-0.5,1-0.7,2-0.4c0.2,0.2,0.2,0.9-0.1,0.4c0.9,1,0.5-0.5,1.5,0.6
						c0,0.1-0.1,0.2-0.2,0.4c0.7,0.5,0.7,0.4,0.7-0.4c0-0.1,0-0.2,0-0.4c0-0.9,0.7-1.4,1.1-0.9c-0.1-0.6-0.4-1.6,0-2
						c0.2,0.1,0.2,0.5,0.2,0.6c0.5-0.6,0.6-1.4,0.7-1.9c0.1-0.5,0.1-0.7,0.6-0.7c0.1,0.1,0.2,0.1,0.4,0.1c-0.2,0.2-0.5,0.5-0.6,0.7
						c-0.2,0.4-0.4,0.5-0.4,0.5c0.2,0.2,0.5,0.1,0.7,0.1s0.5,0,0.6,0.7c0-0.1,0-0.4,0.1-0.5c0-0.2,0-0.2,0-0.4
						c0-0.2-0.1-0.4-0.1-0.6c0-0.4,0-0.9,0.4-0.9c0,0,0.1,0,0.2,0.1V15c0.1,0,0.1-0.1,0.1-0.4c0.2,0,0.4-0.1,0.5-0.2
						c0.4,0.4,0.6-0.2,0.9-0.4c-0.5-0.5-0.1-0.7-0.7-0.9c0.1,0,0,0.1-0.1,0.2v0.1v-0.1c-0.1,0.1-0.4,0.4-0.5,0.5
						c-0.1-0.4-0.1-0.9,0.4-0.7c-0.1-0.5-0.4-0.9-0.4-1.1c1,0.5,1.9,0.5,2.2,1c0.5-0.9,1.6-1.1,1.7-2.6c0.2-0.2,0.4,0.2,0.6,0.5
						c-0.1,0.1-0.2,0.2-0.2,0.4c0.4-0.5,1.4-0.5,1.4-1.4c0.7,0.4-0.2,0.9,0.6,0.6l-0.1,0.2c0.9,0.6,1.5,0.1,2.4-0.4
						c0.7-0.5,1.9-0.7,2.5,0.5c-0.1-0.1-0.1-0.2-0.1-0.4c1,0.7,2.1,1,3.2,1.6c1.1,0.5,2.1,1.4,2.1,2.6c0.1,0.6,0.6,0.4,1.2,0.5
						l-0.6,0.5c0.4,0,0.7,0.1,1.1,0.2c0.5,0.4,0.1,1-0.1,1.4c-0.2,0.5-0.5,0.9,0,1.4l0.5-0.1c0,0.4,0.2,1.4-0.4,1.1
						c0.1,0,0.5,0.2,0.2,0.4l-0.4-0.1c0.1,0.4,0.2,0.7,0.2,1.1c-0.2,0.2-0.6,0-1-0.2c-0.4-0.2-0.6-0.4-0.9-0.1c0,0.1,0,0.5,0.1,0.7
						c0,0.4,0,0.7,0.1,0.7c0.1-0.1,0.5,0,0.7,0.2l-0.2,0.4c0.2,0.5,0.5,1.1,0.7,1.6c0.2,0.5,0.7,0.7,1.9,0.5c0.1-0.5,0.4-1,0.4-1.4
						c0.2,0,0.5,0,0.6,0c-0.2,0.4-0.5,0.6-0.7,0.9c0.9-0.1,0.7-0.7,0.7-1.2c0.4,0.1,0.6,0,0.7-0.1c-0.1-0.6-0.2-1.1-0.5-1.6
						c0.5,0,0.6,0.9,1.1,0.1c-0.4-0.7-1.1,0.1-1.2-0.7c0.6-0.4,1-0.1,0.7-0.9c0.4,0,0.5,0.1,0.6,0.4c-0.2-0.6,0-1.6-0.6-1.9
						c0.6-0.6-0.4-1.7,0.7-1.9c-0.2-0.1-1-0.7-1.2-1.1c0.7,0.2,0.6-0.2,0.5-0.7s-0.4-1.1,0.4-1.2c-0.7-0.1-1-0.5-1.5-1.1
						c-0.4-0.5-0.9-1.1-1.5-1.4c0.1,0,0.4,0,0.4,0.1c-0.4-0.5-0.2-1-0.4-1.4c-0.7,0.6-1.6,0.1-2.4,0.4c0-1.2,1.1-0.6,1.5-1.5
						c-0.5,0.6-1.5-0.2-1.7,0.5c-0.1-0.7-0.2-0.5,0-1.4c-0.7,1-0.6-0.1-1.4,0.2c-0.4-0.9,0.4-1.1-0.6-1.1c-0.1-0.2,0-0.4,0.2-0.5
						C521.3,6.8,521.6,6.8,521.6,6.8z M502.4,12.1L502.4,12.1c0.1-0.1,0.1-0.2,0.2-0.4C502.5,11.9,502.5,12,502.4,12.1z M501.4,13.5
						c0.1-0.1,0.2-0.4,0.5-0.5c0.2,0.1,0.4,0.4,0.2,0.4C502,13.1,501.7,13.3,501.4,13.5z M506.9,14.5c-0.1,0.2-0.2,0.1-0.4,0
						c0-0.1,0.1-0.1,0.1-0.2c0,0,0,0,0-0.1C506.9,14.2,506.9,14.3,506.9,14.5z"/>
					<path class="st1" d="M506.6,13.6C506.6,13.5,506.6,13.5,506.6,13.6c0-0.1-0.1-0.1-0.1-0.1C506.5,13.5,506.5,13.6,506.6,13.6
						L506.6,13.6z"/>
					<path class="st1" d="M542.7,32.1L542.7,32.1C542.7,32.1,542.9,32.1,542.7,32.1C542.9,32.3,542.9,32.1,542.7,32.1z"/>
					<polygon class="st1" points="486.4,9 486.4,9.2 486.5,9.1 					"/>
					<path class="st1" d="M544.8,24.4c0,0,0-0.1,0-0.2C544.8,24.2,544.8,24.3,544.8,24.4z"/>
					<path class="st1" d="M541.7,21.7c-0.1-0.1-0.2-0.4-0.4-0.5C541.5,21.4,541.6,21.6,541.7,21.7z"/>
					<path class="st1" d="M539.1,20.2c-0.1,0.1-0.1,0.2-0.1,0.2l0,0L539.1,20.2z"/>
					<path class="st1" d="M518.2,38.5L518.2,38.5C518,38.7,518.1,38.6,518.2,38.5z"/>
					<path class="st1" d="M528.9,36.5c-0.1,0.1-0.4,0.1-0.5,0.1C528.7,36.7,528.8,36.9,528.9,36.5z"/>
					<path class="st1" d="M503.8,42.6L503.8,42.6L503.8,42.6L503.8,42.6z"/>
					<path class="st1" d="M527.8,36.4c0.1,0.2,0.4,0.2,0.6,0.2C528.3,36.5,528,36.4,527.8,36.4z"/>
					<path class="st1" d="M526.7,19.2h-0.1v0.1L526.7,19.2z"/>
					<path class="st1" d="M526.6,19.3l-0.1,0.1C526.6,19.4,526.6,19.4,526.6,19.3z"/>
					<path class="st1" d="M526.2,19.6l0.2-0.2C526.3,19.4,526.2,19.4,526.2,19.6z"/>
					<path class="st1" d="M530.5,19.3v-0.2C530.5,19.1,530.5,19.2,530.5,19.3z"/>
					<path class="st1" d="M531.7,19.2c-0.2-0.1-0.6-0.5-1.1-0.4v0.2C530.7,18.7,531.4,19.7,531.7,19.2z"/>
					<path class="st1" d="M535.9,22.7l-0.9-0.4c0.1,0.2,0.2,0.6-0.1,0.7C535.9,24,534.9,22.4,535.9,22.7z"/>
					<path class="st1" d="M538.4,23.7c-0.5,0-0.1,0.4-0.1,0.5C538.5,24,538.6,23.9,538.4,23.7z"/>
					<path class="st1" d="M538.1,34.8l-0.1-0.6C537.8,34.3,538.1,34.4,538.1,34.8z"/>
					<polygon class="st1" points="534.5,38.4 535,38.7 535.1,38.2 					"/>
					<path class="st1" d="M532.9,33.5l0.1-0.1c-0.1,0-0.4,0.1-0.6,0.1C532.7,33.6,532.8,33.6,532.9,33.5z"/>
					<path class="st1" d="M499.3,36.7l0.1,0.7C499.8,37.4,499.8,36.5,499.3,36.7z"/>
					<path class="st1" d="M484.9,37.1c-0.1-0.4-0.5-0.7-0.7-0.4C484.5,36.9,484.7,37.2,484.9,37.1z"/>
					<path class="st1" d="M482.4,15.2c-0.1,0.1-0.1,0.2-0.2,0.2c0.1-0.1,0.2-0.1,0.5-0.2H482.4z"/>
				</g>
			</g>
		</g>
	</g>
</g>
</svg>
